<svg width="904" height="447" viewBox="0 0 904 447" fill="none" xmlns="http://www.w3.org/2000/svg">
<path d="M10.7617 223.619L231.381 3L452 223.619L231.381 444.238L10.7617 223.619Z" stroke="#EEF1F4" stroke-width="3"/>
<path d="M452.396 223.619L673.016 3L893.635 223.619L673.016 444.238L452.396 223.619Z" stroke="#EEF1F4" stroke-width="3"/>
<ellipse cx="10.5" cy="223.119" rx="10.5" ry="10" fill="#EEF1F4"/>
<ellipse cx="452.5" cy="223.119" rx="10.5" ry="10" fill="#EEF1F4"/>
<ellipse cx="893.5" cy="223.119" rx="10.5" ry="10" fill="#EEF1F4"/>
<path d="M231 3L231 444" stroke="#EEF1F4" stroke-dasharray="6 6"/>
<path d="M673 1L673 444" stroke="#EEF1F4" stroke-dasharray="6 6"/>
<path d="M402.93 27V9.864H409.866C410.762 9.864 411.578 10.088 412.314 10.536C413.066 10.968 413.65 11.576 414.066 12.36C414.498 13.128 414.714 13.992 414.714 14.952C414.714 15.928 414.506 16.808 414.09 17.592C413.674 18.376 413.106 18.992 412.386 19.44C411.666 19.872 410.874 20.088 410.01 20.088H404.538V27H402.93ZM410.01 18.672C410.57 18.672 411.082 18.52 411.546 18.216C412.026 17.912 412.41 17.48 412.698 16.92C412.986 16.344 413.13 15.688 413.13 14.952C413.13 14.248 412.978 13.616 412.674 13.056C412.386 12.496 411.994 12.064 411.498 11.76C411.002 11.44 410.458 11.28 409.866 11.28H404.538V18.672H410.01ZM417.289 27V14.472H418.897V16.248C419.281 15.608 419.801 15.088 420.457 14.688C421.129 14.288 421.881 14.088 422.713 14.088C423.081 14.088 423.417 14.112 423.721 14.16L423.505 15.744C423.089 15.68 422.801 15.648 422.641 15.648C421.969 15.648 421.345 15.808 420.769 16.128C420.193 16.448 419.737 16.896 419.401 17.472C419.065 18.048 418.897 18.704 418.897 19.44V27H417.289ZM430.587 25.968C431.963 25.968 433.019 25.528 433.755 24.648C434.491 23.768 434.859 22.456 434.859 20.712C434.859 19.048 434.491 17.768 433.755 16.872C433.019 15.96 431.963 15.504 430.587 15.504C429.195 15.504 428.131 15.944 427.395 16.824C426.675 17.688 426.315 18.984 426.315 20.712C426.315 22.408 426.675 23.712 427.395 24.624C428.131 25.52 429.195 25.968 430.587 25.968ZM430.587 27.384C428.715 27.384 427.267 26.792 426.243 25.608C425.219 24.408 424.707 22.776 424.707 20.712C424.707 18.6 425.219 16.968 426.243 15.816C427.283 14.664 428.731 14.088 430.587 14.088C432.443 14.088 433.883 14.688 434.907 15.888C435.931 17.072 436.443 18.68 436.443 20.712C436.443 22.824 435.923 24.464 434.883 25.632C433.843 26.8 432.411 27.384 430.587 27.384ZM450.192 23.64C449.792 24.84 449.12 25.768 448.176 26.424C447.232 27.064 446.08 27.384 444.72 27.384C442.864 27.384 441.416 26.792 440.376 25.608C439.336 24.424 438.816 22.808 438.816 20.76C438.816 18.696 439.328 17.072 440.352 15.888C441.392 14.688 442.848 14.088 444.72 14.088C446.08 14.088 447.232 14.416 448.176 15.072C449.12 15.712 449.792 16.632 450.192 17.832L448.68 18.288C448.04 16.432 446.72 15.504 444.72 15.504C443.328 15.504 442.264 15.96 441.528 16.872C440.792 17.784 440.424 19.08 440.424 20.76C440.424 22.424 440.792 23.712 441.528 24.624C442.264 25.52 443.328 25.968 444.72 25.968C446.72 25.968 448.04 25.04 448.68 23.184L450.192 23.64ZM463.836 24.312C463.372 25.304 462.668 26.064 461.724 26.592C460.78 27.12 459.676 27.384 458.412 27.384C456.476 27.384 454.972 26.792 453.9 25.608C452.844 24.424 452.316 22.792 452.316 20.712C452.316 18.584 452.828 16.952 453.852 15.816C454.892 14.664 456.34 14.088 458.196 14.088C459.396 14.088 460.436 14.36 461.316 14.904C462.212 15.448 462.892 16.176 463.356 17.088C463.836 17.984 464.076 18.96 464.076 20.016V21.144H453.924C454.004 22.712 454.42 23.912 455.172 24.744C455.924 25.56 457.004 25.968 458.412 25.968C460.348 25.968 461.676 25.216 462.396 23.712L463.836 24.312ZM462.468 19.728C462.404 18.528 461.988 17.528 461.22 16.728C460.468 15.912 459.46 15.504 458.196 15.504C455.636 15.504 454.228 16.912 453.972 19.728H462.468ZM467.435 23.28C467.755 24.24 468.323 24.928 469.139 25.344C469.955 25.76 470.811 25.968 471.707 25.968C472.699 25.968 473.523 25.8 474.179 25.464C474.851 25.128 475.187 24.576 475.187 23.808C475.187 23.216 475.051 22.76 474.779 22.44C474.507 22.104 474.139 21.864 473.675 21.72C473.211 21.56 472.547 21.4 471.683 21.24C470.595 21.064 469.731 20.896 469.091 20.736C468.467 20.56 467.891 20.232 467.363 19.752C466.835 19.256 466.571 18.552 466.571 17.64C466.571 17.016 466.779 16.432 467.195 15.888C467.627 15.344 468.219 14.912 468.971 14.592C469.723 14.256 470.571 14.088 471.515 14.088C472.859 14.088 473.979 14.432 474.875 15.12C475.771 15.792 476.379 16.576 476.699 17.472L475.187 17.952C474.947 17.264 474.507 16.688 473.867 16.224C473.243 15.744 472.459 15.504 471.515 15.504C470.859 15.504 470.275 15.608 469.763 15.816C469.251 16.024 468.851 16.296 468.563 16.632C468.291 16.952 468.155 17.288 468.155 17.64C468.155 18.184 468.315 18.6 468.635 18.888C468.955 19.16 469.331 19.344 469.763 19.44C470.195 19.536 470.923 19.664 471.947 19.824C472.955 20.016 473.779 20.232 474.419 20.472C475.059 20.696 475.611 21.08 476.075 21.624C476.539 22.152 476.771 22.88 476.771 23.808C476.771 25.072 476.251 25.984 475.211 26.544C474.187 27.104 473.019 27.384 471.707 27.384C471.019 27.384 470.291 27.272 469.523 27.048C468.755 26.824 468.035 26.44 467.363 25.896C466.707 25.352 466.227 24.632 465.923 23.736L467.435 23.28ZM479.786 23.28C480.106 24.24 480.674 24.928 481.49 25.344C482.306 25.76 483.162 25.968 484.058 25.968C485.05 25.968 485.874 25.8 486.53 25.464C487.202 25.128 487.538 24.576 487.538 23.808C487.538 23.216 487.402 22.76 487.13 22.44C486.858 22.104 486.49 21.864 486.026 21.72C485.562 21.56 484.898 21.4 484.034 21.24C482.946 21.064 482.082 20.896 481.442 20.736C480.818 20.56 480.242 20.232 479.714 19.752C479.186 19.256 478.922 18.552 478.922 17.64C478.922 17.016 479.13 16.432 479.546 15.888C479.978 15.344 480.57 14.912 481.322 14.592C482.074 14.256 482.922 14.088 483.866 14.088C485.21 14.088 486.33 14.432 487.226 15.12C488.122 15.792 488.73 16.576 489.05 17.472L487.538 17.952C487.298 17.264 486.858 16.688 486.218 16.224C485.594 15.744 484.81 15.504 483.866 15.504C483.21 15.504 482.626 15.608 482.114 15.816C481.602 16.024 481.202 16.296 480.914 16.632C480.642 16.952 480.506 17.288 480.506 17.64C480.506 18.184 480.666 18.6 480.986 18.888C481.306 19.16 481.682 19.344 482.114 19.44C482.546 19.536 483.274 19.664 484.298 19.824C485.306 20.016 486.13 20.232 486.77 20.472C487.41 20.696 487.962 21.08 488.426 21.624C488.89 22.152 489.122 22.88 489.122 23.808C489.122 25.072 488.602 25.984 487.562 26.544C486.538 27.104 485.37 27.384 484.058 27.384C483.37 27.384 482.642 27.272 481.874 27.048C481.106 26.824 480.386 26.44 479.714 25.896C479.058 25.352 478.578 24.632 478.274 23.736L479.786 23.28ZM497.079 25.968C498.455 25.968 499.511 25.528 500.247 24.648C500.983 23.768 501.351 22.456 501.351 20.712C501.351 19.048 500.983 17.768 500.247 16.872C499.511 15.96 498.455 15.504 497.079 15.504C495.687 15.504 494.623 15.944 493.887 16.824C493.167 17.688 492.807 18.984 492.807 20.712C492.807 22.408 493.167 23.712 493.887 24.624C494.623 25.52 495.687 25.968 497.079 25.968ZM497.079 27.384C495.207 27.384 493.759 26.792 492.735 25.608C491.711 24.408 491.199 22.776 491.199 20.712C491.199 18.6 491.711 16.968 492.735 15.816C493.775 14.664 495.223 14.088 497.079 14.088C498.935 14.088 500.375 14.688 501.399 15.888C502.423 17.072 502.935 18.68 502.935 20.712C502.935 22.824 502.415 24.464 501.375 25.632C500.335 26.8 498.903 27.384 497.079 27.384ZM361.075 38.864H367.675C369.307 38.864 370.731 39.2 371.947 39.872C373.179 40.544 374.131 41.528 374.803 42.824C375.491 44.104 375.835 45.64 375.835 47.432C375.835 49.272 375.483 50.832 374.779 52.112C374.091 53.392 373.131 54.36 371.899 55.016C370.683 55.672 369.275 56 367.675 56H361.075V38.864ZM367.675 52.88C369.147 52.88 370.275 52.432 371.059 51.536C371.843 50.64 372.235 49.272 372.235 47.432C372.235 45.672 371.851 44.328 371.083 43.4C370.315 42.456 369.179 41.984 367.675 41.984H364.675V52.88H367.675ZM383.866 53.696C384.826 53.696 385.538 53.384 386.002 52.76C386.466 52.12 386.698 51.104 386.698 49.712C386.698 47.088 385.754 45.776 383.866 45.776C382.906 45.776 382.194 46.088 381.73 46.712C381.266 47.336 381.034 48.336 381.034 49.712C381.034 52.368 381.978 53.696 383.866 53.696ZM383.866 56.384C382.618 56.384 381.514 56.128 380.554 55.616C379.61 55.104 378.874 54.352 378.346 53.36C377.818 52.352 377.554 51.136 377.554 49.712C377.554 48.256 377.826 47.032 378.37 46.04C378.914 45.048 379.658 44.312 380.602 43.832C381.562 43.336 382.65 43.088 383.866 43.088C385.114 43.088 386.21 43.352 387.154 43.88C388.114 44.392 388.858 45.152 389.386 46.16C389.914 47.152 390.178 48.336 390.178 49.712C390.178 51.808 389.61 53.448 388.474 54.632C387.338 55.8 385.802 56.384 383.866 56.384ZM403.684 43.472V56H400.324V54.464C399.524 55.744 398.26 56.384 396.532 56.384C395.428 56.384 394.564 56.176 393.94 55.76C393.332 55.328 392.908 54.72 392.668 53.936C392.444 53.152 392.332 52.16 392.332 50.96V43.472H395.692V50.96C395.692 51.888 395.812 52.56 396.052 52.976C396.308 53.376 396.804 53.576 397.54 53.576C398.356 53.576 399.02 53.352 399.532 52.904C400.06 52.456 400.324 51.808 400.324 50.96V43.472H403.684ZM406.371 56V38.864H409.731V44.912C410.163 44.336 410.675 43.888 411.267 43.568C411.875 43.248 412.563 43.088 413.331 43.088C414.403 43.088 415.347 43.352 416.163 43.88C416.979 44.408 417.603 45.168 418.035 46.16C418.483 47.152 418.707 48.336 418.707 49.712C418.707 51.072 418.451 52.256 417.939 53.264C417.427 54.272 416.755 55.048 415.923 55.592C415.091 56.12 414.203 56.384 413.259 56.384C411.803 56.384 410.627 55.856 409.731 54.8V56H406.371ZM412.539 53.648C413.483 53.648 414.187 53.328 414.651 52.688C415.115 52.048 415.347 51.056 415.347 49.712C415.347 47.12 414.411 45.824 412.539 45.824C411.595 45.824 410.891 46.144 410.427 46.784C409.963 47.408 409.731 48.384 409.731 49.712C409.731 52.336 410.667 53.648 412.539 53.648ZM420.856 56V38.864H424.216V56H420.856ZM438.687 53.216C438.223 54.176 437.487 54.944 436.479 55.52C435.471 56.096 434.279 56.384 432.903 56.384C431.607 56.384 430.463 56.128 429.471 55.616C428.495 55.088 427.735 54.32 427.191 53.312C426.647 52.304 426.375 51.104 426.375 49.712C426.375 48.256 426.647 47.032 427.191 46.04C427.735 45.048 428.479 44.312 429.423 43.832C430.383 43.336 431.471 43.088 432.687 43.088C433.951 43.088 435.063 43.368 436.023 43.928C436.983 44.472 437.719 45.208 438.231 46.136C438.743 47.048 438.999 48.04 438.999 49.112C438.999 49.56 438.983 50.08 438.951 50.672H429.735C429.975 52.736 431.031 53.768 432.903 53.768C433.575 53.768 434.135 53.64 434.583 53.384C435.047 53.128 435.471 52.736 435.855 52.208L438.687 53.216ZM435.567 48.272C435.439 47.488 435.127 46.856 434.631 46.376C434.135 45.896 433.487 45.656 432.687 45.656C431.871 45.656 431.223 45.864 430.743 46.28C430.279 46.696 429.967 47.36 429.807 48.272H435.567ZM446.809 38.864H453.409C455.041 38.864 456.465 39.2 457.681 39.872C458.913 40.544 459.865 41.528 460.537 42.824C461.225 44.104 461.569 45.64 461.569 47.432C461.569 49.272 461.217 50.832 460.513 52.112C459.825 53.392 458.865 54.36 457.633 55.016C456.417 55.672 455.009 56 453.409 56H446.809V38.864ZM453.409 52.88C454.881 52.88 456.009 52.432 456.793 51.536C457.577 50.64 457.969 49.272 457.969 47.432C457.969 45.672 457.585 44.328 456.817 43.4C456.049 42.456 454.913 41.984 453.409 41.984H450.409V52.88H453.409ZM463.746 56V43.472H467.106V56H463.746ZM467.106 38.864V41.744H463.746V38.864H467.106ZM477.329 56V54.488C476.801 55.096 476.177 55.568 475.457 55.904C474.737 56.224 474.009 56.384 473.273 56.384C472.489 56.384 471.769 56.192 471.113 55.808C470.473 55.424 469.985 54.952 469.649 54.392C469.313 53.832 469.145 53.24 469.145 52.616C469.145 51.576 469.577 50.624 470.441 49.76C470.905 49.296 471.545 48.968 472.361 48.776C473.193 48.568 474.353 48.384 475.841 48.224C476.529 48.16 477.025 48.104 477.329 48.056C477.281 47.192 477.073 46.6 476.705 46.28C476.353 45.96 475.817 45.8 475.097 45.8C474.393 45.8 473.849 45.936 473.465 46.208C473.081 46.464 472.841 46.816 472.745 47.264L469.625 46.904C469.753 46.264 470.025 45.656 470.441 45.08C470.873 44.488 471.481 44.008 472.265 43.64C473.049 43.272 473.993 43.088 475.097 43.088C476.857 43.088 478.225 43.536 479.201 44.432C480.193 45.312 480.689 46.648 480.689 48.44V56H477.329ZM472.937 53.48C473.241 53.704 473.657 53.816 474.185 53.816C474.681 53.816 475.169 53.704 475.649 53.48C476.129 53.24 476.529 52.872 476.849 52.376C477.169 51.88 477.329 51.256 477.329 50.504V50.36L475.913 50.504C475.081 50.584 474.449 50.672 474.017 50.768C473.601 50.848 473.265 51.016 473.009 51.272C472.865 51.416 472.745 51.6 472.649 51.824C472.569 52.048 472.529 52.28 472.529 52.52C472.529 52.936 472.665 53.256 472.937 53.48ZM483.387 56V43.472H486.747V44.984C487.147 44.392 487.635 43.928 488.211 43.592C488.803 43.256 489.483 43.088 490.251 43.088C491.211 43.088 491.963 43.272 492.507 43.64C493.067 44.008 493.475 44.552 493.731 45.272C494.147 44.6 494.683 44.072 495.339 43.688C496.011 43.288 496.779 43.088 497.643 43.088C498.667 43.088 499.459 43.296 500.019 43.712C500.579 44.128 500.963 44.728 501.171 45.512C501.379 46.28 501.483 47.28 501.483 48.512V56H498.123V48.512C498.123 47.568 498.027 46.912 497.835 46.544C497.643 46.16 497.235 45.968 496.611 45.968C495.891 45.968 495.291 46.184 494.811 46.616C494.347 47.032 494.115 47.664 494.115 48.512V56H490.755V48.512C490.755 47.568 490.659 46.912 490.467 46.544C490.275 46.16 489.867 45.968 489.243 45.968C488.523 45.968 487.923 46.184 487.443 46.616C486.979 47.032 486.747 47.664 486.747 48.512V56H483.387ZM509.96 53.696C510.92 53.696 511.632 53.384 512.096 52.76C512.56 52.12 512.792 51.104 512.792 49.712C512.792 47.088 511.848 45.776 509.96 45.776C509 45.776 508.288 46.088 507.824 46.712C507.36 47.336 507.128 48.336 507.128 49.712C507.128 52.368 508.072 53.696 509.96 53.696ZM509.96 56.384C508.712 56.384 507.608 56.128 506.648 55.616C505.704 55.104 504.968 54.352 504.44 53.36C503.912 52.352 503.648 51.136 503.648 49.712C503.648 48.256 503.92 47.032 504.464 46.04C505.008 45.048 505.752 44.312 506.696 43.832C507.656 43.336 508.744 43.088 509.96 43.088C511.208 43.088 512.304 43.352 513.248 43.88C514.208 44.392 514.952 45.152 515.48 46.16C516.008 47.152 516.272 48.336 516.272 49.712C516.272 51.808 515.704 53.448 514.568 54.632C513.432 55.8 511.896 56.384 509.96 56.384ZM518.426 56V43.472H521.786V45.008C522.586 43.728 523.85 43.088 525.578 43.088C526.682 43.088 527.538 43.304 528.146 43.736C528.77 44.152 529.194 44.752 529.418 45.536C529.658 46.32 529.778 47.312 529.778 48.512V56H526.418V48.512C526.418 47.584 526.29 46.92 526.034 46.52C525.794 46.104 525.306 45.896 524.57 45.896C523.754 45.896 523.082 46.12 522.554 46.568C522.042 47.016 521.786 47.664 521.786 48.512V56H518.426ZM540.913 54.8C540.017 55.856 538.841 56.384 537.385 56.384C536.441 56.384 535.553 56.12 534.721 55.592C533.889 55.048 533.217 54.272 532.705 53.264C532.193 52.256 531.937 51.072 531.937 49.712C531.937 48.336 532.153 47.152 532.585 46.16C533.033 45.168 533.665 44.408 534.481 43.88C535.297 43.352 536.241 43.088 537.313 43.088C538.081 43.088 538.761 43.248 539.353 43.568C539.961 43.888 540.481 44.336 540.913 44.912V38.864H544.273V56H540.913V54.8ZM538.105 53.648C539.977 53.648 540.913 52.336 540.913 49.712C540.913 48.384 540.681 47.408 540.217 46.784C539.753 46.144 539.049 45.824 538.105 45.824C536.233 45.824 535.297 47.12 535.297 49.712C535.297 51.056 535.529 52.048 535.993 52.688C536.457 53.328 537.161 53.648 538.105 53.648Z" fill="#EEF1F4"/>
<path d="M93.245 218.576H97.645C98.733 218.576 99.6823 218.8 100.493 219.248C101.314 219.696 101.949 220.352 102.397 221.216C102.856 222.069 103.085 223.093 103.085 224.288C103.085 225.515 102.85 226.555 102.381 227.408C101.922 228.261 101.282 228.907 100.461 229.344C99.6503 229.781 98.7117 230 97.645 230H93.245V218.576ZM97.645 227.92C98.6263 227.92 99.3783 227.621 99.901 227.024C100.424 226.427 100.685 225.515 100.685 224.288C100.685 223.115 100.429 222.219 99.917 221.6C99.405 220.971 98.6477 220.656 97.645 220.656H95.645V227.92H97.645ZM112.44 228.144C112.13 228.784 111.64 229.296 110.968 229.68C110.296 230.064 109.501 230.256 108.584 230.256C107.72 230.256 106.957 230.085 106.296 229.744C105.645 229.392 105.138 228.88 104.776 228.208C104.413 227.536 104.232 226.736 104.232 225.808C104.232 224.837 104.413 224.021 104.776 223.36C105.138 222.699 105.634 222.208 106.264 221.888C106.904 221.557 107.629 221.392 108.44 221.392C109.282 221.392 110.024 221.579 110.664 221.952C111.304 222.315 111.794 222.805 112.135 223.424C112.477 224.032 112.648 224.693 112.648 225.408C112.648 225.707 112.637 226.053 112.616 226.448H106.472C106.632 227.824 107.336 228.512 108.584 228.512C109.032 228.512 109.405 228.427 109.704 228.256C110.013 228.085 110.296 227.824 110.552 227.472L112.44 228.144ZM110.36 224.848C110.274 224.325 110.066 223.904 109.736 223.584C109.405 223.264 108.973 223.104 108.44 223.104C107.896 223.104 107.464 223.243 107.144 223.52C106.834 223.797 106.626 224.24 106.52 224.848H110.36ZM115.364 227.2C115.502 227.691 115.769 228.032 116.164 228.224C116.558 228.405 116.99 228.496 117.46 228.496C117.94 228.496 118.297 228.437 118.532 228.32C118.777 228.192 118.9 227.979 118.9 227.68C118.9 227.435 118.857 227.253 118.772 227.136C118.686 227.019 118.542 226.933 118.34 226.88C118.148 226.816 117.812 226.741 117.332 226.656C116.585 226.539 115.966 226.405 115.476 226.256C114.996 226.096 114.585 225.84 114.243 225.488C113.902 225.136 113.732 224.645 113.732 224.016C113.732 223.568 113.881 223.147 114.18 222.752C114.489 222.347 114.916 222.021 115.46 221.776C116.014 221.52 116.644 221.392 117.348 221.392C117.998 221.392 118.58 221.509 119.092 221.744C119.614 221.979 120.036 222.277 120.356 222.64C120.686 222.992 120.921 223.36 121.06 223.744L119.092 224.32C118.985 223.936 118.772 223.643 118.452 223.44C118.132 223.227 117.764 223.12 117.348 223.12C116.932 223.12 116.596 223.211 116.34 223.392C116.094 223.563 115.972 223.749 115.972 223.952C115.972 224.133 116.025 224.272 116.132 224.368C116.249 224.464 116.409 224.533 116.612 224.576C116.814 224.619 117.177 224.683 117.7 224.768C118.809 224.949 119.657 225.248 120.244 225.664C120.841 226.069 121.14 226.72 121.14 227.616C121.14 228.469 120.782 229.125 120.068 229.584C119.364 230.032 118.494 230.256 117.46 230.256C116.628 230.256 115.833 230.075 115.076 229.712C114.318 229.349 113.796 228.683 113.508 227.712L115.364 227.2ZM130.297 227.712C130.02 228.512 129.534 229.136 128.841 229.584C128.158 230.032 127.337 230.256 126.377 230.256C125.545 230.256 124.809 230.085 124.169 229.744C123.54 229.392 123.049 228.885 122.697 228.224C122.345 227.563 122.169 226.768 122.169 225.84C122.169 224.891 122.345 224.085 122.697 223.424C123.049 222.752 123.54 222.245 124.169 221.904C124.809 221.563 125.545 221.392 126.377 221.392C127.337 221.392 128.158 221.616 128.841 222.064C129.534 222.512 130.02 223.136 130.297 223.936L128.185 224.512C128.025 224.043 127.801 223.707 127.513 223.504C127.236 223.301 126.857 223.2 126.377 223.2C125.065 223.2 124.409 224.08 124.409 225.84C124.409 227.579 125.065 228.448 126.377 228.448C126.857 228.448 127.236 228.347 127.513 228.144C127.801 227.941 128.025 227.605 128.185 227.136L130.297 227.712ZM135.44 228.464C136.08 228.464 136.554 228.256 136.864 227.84C137.173 227.413 137.328 226.736 137.328 225.808C137.328 224.059 136.698 223.184 135.44 223.184C134.8 223.184 134.325 223.392 134.016 223.808C133.706 224.224 133.552 224.891 133.552 225.808C133.552 227.579 134.181 228.464 135.44 228.464ZM135.44 230.256C134.608 230.256 133.872 230.085 133.232 229.744C132.602 229.403 132.112 228.901 131.76 228.24C131.408 227.568 131.232 226.757 131.232 225.808C131.232 224.837 131.413 224.021 131.776 223.36C132.138 222.699 132.634 222.208 133.264 221.888C133.904 221.557 134.629 221.392 135.44 221.392C136.272 221.392 137.002 221.568 137.632 221.92C138.272 222.261 138.768 222.768 139.12 223.44C139.472 224.101 139.648 224.891 139.648 225.808C139.648 227.205 139.269 228.299 138.512 229.088C137.754 229.867 136.73 230.256 135.44 230.256ZM141.084 230V218.576H143.324V222.608C143.612 222.224 143.953 221.925 144.348 221.712C144.753 221.499 145.212 221.392 145.724 221.392C146.438 221.392 147.068 221.568 147.612 221.92C148.156 222.272 148.572 222.779 148.86 223.44C149.158 224.101 149.308 224.891 149.308 225.808C149.308 226.715 149.137 227.504 148.796 228.176C148.454 228.848 148.006 229.365 147.452 229.728C146.897 230.08 146.305 230.256 145.676 230.256C144.705 230.256 143.921 229.904 143.324 229.2V230H141.084ZM145.196 228.432C145.825 228.432 146.294 228.219 146.604 227.792C146.913 227.365 147.068 226.704 147.068 225.808C147.068 224.08 146.444 223.216 145.196 223.216C144.566 223.216 144.097 223.429 143.788 223.856C143.478 224.272 143.324 224.923 143.324 225.808C143.324 227.557 143.948 228.432 145.196 228.432ZM150.74 230V221.648H152.98V222.832C153.545 221.872 154.516 221.392 155.892 221.392C156.02 221.392 156.116 221.397 156.18 221.408L155.892 223.616C155.636 223.552 155.358 223.52 155.06 223.52C153.673 223.52 152.98 224.235 152.98 225.664V230H150.74ZM157.24 230V221.648H159.48V230H157.24ZM159.48 218.576V220.496H157.24V218.576H159.48ZM161.271 230V221.648H163.511V222.832C164.076 221.872 165.047 221.392 166.423 221.392C166.551 221.392 166.647 221.397 166.711 221.408L166.423 223.616C166.167 223.552 165.89 223.52 165.591 223.52C164.204 223.52 163.511 224.235 163.511 225.664V230H161.271Z" fill="#EEF1F4"/>
<path d="M530.237 218.576H534.637C535.725 218.576 536.675 218.8 537.485 219.248C538.307 219.696 538.941 220.352 539.389 221.216C539.848 222.069 540.077 223.093 540.077 224.288C540.077 225.515 539.843 226.555 539.373 227.408C538.915 228.261 538.275 228.907 537.453 229.344C536.643 229.781 535.704 230 534.637 230H530.237V218.576ZM534.637 227.92C535.619 227.92 536.371 227.621 536.893 227.024C537.416 226.427 537.677 225.515 537.677 224.288C537.677 223.115 537.421 222.219 536.909 221.6C536.397 220.971 535.64 220.656 534.637 220.656H532.637V227.92H534.637ZM549.432 228.144C549.122 228.784 548.632 229.296 547.96 229.68C547.288 230.064 546.493 230.256 545.576 230.256C544.712 230.256 543.949 230.085 543.288 229.744C542.637 229.392 542.13 228.88 541.768 228.208C541.405 227.536 541.224 226.736 541.224 225.808C541.224 224.837 541.405 224.021 541.768 223.36C542.13 222.699 542.626 222.208 543.256 221.888C543.896 221.557 544.621 221.392 545.432 221.392C546.274 221.392 547.016 221.579 547.656 221.952C548.296 222.315 548.786 222.805 549.128 223.424C549.469 224.032 549.64 224.693 549.64 225.408C549.64 225.707 549.629 226.053 549.608 226.448H543.464C543.624 227.824 544.328 228.512 545.576 228.512C546.024 228.512 546.397 228.427 546.696 228.256C547.005 228.085 547.288 227.824 547.544 227.472L549.432 228.144ZM547.352 224.848C547.266 224.325 547.058 223.904 546.728 223.584C546.397 223.264 545.965 223.104 545.432 223.104C544.888 223.104 544.456 223.243 544.136 223.52C543.826 223.797 543.618 224.24 543.512 224.848H547.352ZM552.356 227.2C552.494 227.691 552.761 228.032 553.156 228.224C553.55 228.405 553.982 228.496 554.452 228.496C554.932 228.496 555.289 228.437 555.524 228.32C555.769 228.192 555.892 227.979 555.892 227.68C555.892 227.435 555.849 227.253 555.764 227.136C555.678 227.019 555.534 226.933 555.332 226.88C555.14 226.816 554.804 226.741 554.324 226.656C553.577 226.539 552.958 226.405 552.468 226.256C551.988 226.096 551.577 225.84 551.236 225.488C550.894 225.136 550.724 224.645 550.724 224.016C550.724 223.568 550.873 223.147 551.172 222.752C551.481 222.347 551.908 222.021 552.452 221.776C553.006 221.52 553.636 221.392 554.34 221.392C554.99 221.392 555.572 221.509 556.084 221.744C556.606 221.979 557.028 222.277 557.348 222.64C557.678 222.992 557.913 223.36 558.052 223.744L556.084 224.32C555.977 223.936 555.764 223.643 555.444 223.44C555.124 223.227 554.756 223.12 554.34 223.12C553.924 223.12 553.588 223.211 553.332 223.392C553.086 223.563 552.964 223.749 552.964 223.952C552.964 224.133 553.017 224.272 553.124 224.368C553.241 224.464 553.401 224.533 553.604 224.576C553.806 224.619 554.169 224.683 554.692 224.768C555.801 224.949 556.649 225.248 557.236 225.664C557.833 226.069 558.132 226.72 558.132 227.616C558.132 228.469 557.774 229.125 557.06 229.584C556.356 230.032 555.486 230.256 554.452 230.256C553.62 230.256 552.825 230.075 552.068 229.712C551.31 229.349 550.788 228.683 550.5 227.712L552.356 227.2ZM567.369 228.144C567.06 228.784 566.569 229.296 565.897 229.68C565.225 230.064 564.431 230.256 563.513 230.256C562.649 230.256 561.887 230.085 561.225 229.744C560.575 229.392 560.068 228.88 559.705 228.208C559.343 227.536 559.161 226.736 559.161 225.808C559.161 224.837 559.343 224.021 559.705 223.36C560.068 222.699 560.564 222.208 561.193 221.888C561.833 221.557 562.559 221.392 563.369 221.392C564.212 221.392 564.953 221.579 565.593 221.952C566.233 222.315 566.724 222.805 567.065 223.424C567.407 224.032 567.577 224.693 567.577 225.408C567.577 225.707 567.567 226.053 567.545 226.448H561.401C561.561 227.824 562.265 228.512 563.513 228.512C563.961 228.512 564.335 228.427 564.633 228.256C564.943 228.085 565.225 227.824 565.481 227.472L567.369 228.144ZM565.289 224.848C565.204 224.325 564.996 223.904 564.665 223.584C564.335 223.264 563.903 223.104 563.369 223.104C562.825 223.104 562.393 223.243 562.073 223.52C561.764 223.797 561.556 224.24 561.449 224.848H565.289ZM569.013 230V221.648H571.253V222.672C571.787 221.819 572.629 221.392 573.781 221.392C574.517 221.392 575.088 221.536 575.493 221.824C575.909 222.101 576.192 222.501 576.341 223.024C576.501 223.547 576.581 224.208 576.581 225.008V230H574.341V225.008C574.341 224.389 574.256 223.947 574.085 223.68C573.925 223.403 573.6 223.264 573.109 223.264C572.565 223.264 572.117 223.413 571.765 223.712C571.424 224.011 571.253 224.443 571.253 225.008V230H569.013ZM577.355 221.648H579.691L581.643 227.392L583.579 221.648H585.915L582.715 230H580.555L577.355 221.648ZM590.51 228.464C591.15 228.464 591.624 228.256 591.934 227.84C592.243 227.413 592.398 226.736 592.398 225.808C592.398 224.059 591.768 223.184 590.51 223.184C589.87 223.184 589.395 223.392 589.086 223.808C588.776 224.224 588.622 224.891 588.622 225.808C588.622 227.579 589.251 228.464 590.51 228.464ZM590.51 230.256C589.678 230.256 588.942 230.085 588.302 229.744C587.672 229.403 587.182 228.901 586.83 228.24C586.478 227.568 586.302 226.757 586.302 225.808C586.302 224.837 586.483 224.021 586.846 223.36C587.208 222.699 587.704 222.208 588.334 221.888C588.974 221.557 589.699 221.392 590.51 221.392C591.342 221.392 592.072 221.568 592.702 221.92C593.342 222.261 593.838 222.768 594.19 223.44C594.542 224.101 594.718 224.891 594.718 225.808C594.718 227.205 594.339 228.299 593.582 229.088C592.824 229.867 591.8 230.256 590.51 230.256ZM596.154 230V218.576H598.394V230H596.154ZM599.48 221.648H601.816L603.768 227.392L605.704 221.648H608.04L604.84 230H602.68L599.48 221.648ZM616.635 228.144C616.325 228.784 615.835 229.296 615.163 229.68C614.491 230.064 613.696 230.256 612.779 230.256C611.915 230.256 611.152 230.085 610.491 229.744C609.84 229.392 609.333 228.88 608.971 228.208C608.608 227.536 608.427 226.736 608.427 225.808C608.427 224.837 608.608 224.021 608.971 223.36C609.333 222.699 609.829 222.208 610.459 221.888C611.099 221.557 611.824 221.392 612.635 221.392C613.477 221.392 614.219 221.579 614.859 221.952C615.499 222.315 615.989 222.805 616.331 223.424C616.672 224.032 616.843 224.693 616.843 225.408C616.843 225.707 616.832 226.053 616.811 226.448H610.667C610.827 227.824 611.531 228.512 612.779 228.512C613.227 228.512 613.6 228.427 613.899 228.256C614.208 228.085 614.491 227.824 614.747 227.472L616.635 228.144ZM614.555 224.848C614.469 224.325 614.261 223.904 613.931 223.584C613.6 223.264 613.168 223.104 612.635 223.104C612.091 223.104 611.659 223.243 611.339 223.52C611.029 223.797 610.821 224.24 610.715 224.848H614.555ZM618.279 230V221.648H620.519V222.832C621.084 221.872 622.055 221.392 623.431 221.392C623.559 221.392 623.655 221.397 623.719 221.408L623.431 223.616C623.175 223.552 622.897 223.52 622.599 223.52C621.212 223.52 620.519 224.235 620.519 225.664V230H618.279Z" fill="#EEF1F4"/>
<path d="M308.518 218.576H312.918C314.006 218.576 314.956 218.8 315.766 219.248C316.588 219.696 317.222 220.352 317.67 221.216C318.129 222.069 318.358 223.093 318.358 224.288C318.358 225.515 318.124 226.555 317.654 227.408C317.196 228.261 316.556 228.907 315.734 229.344C314.924 229.781 313.985 230 312.918 230H308.518V218.576ZM312.918 227.92C313.9 227.92 314.652 227.621 315.174 227.024C315.697 226.427 315.958 225.515 315.958 224.288C315.958 223.115 315.702 222.219 315.19 221.6C314.678 220.971 313.921 220.656 312.918 220.656H310.918V227.92H312.918ZM327.713 228.144C327.404 228.784 326.913 229.296 326.241 229.68C325.569 230.064 324.774 230.256 323.857 230.256C322.993 230.256 322.23 230.085 321.569 229.744C320.918 229.392 320.412 228.88 320.049 228.208C319.686 227.536 319.505 226.736 319.505 225.808C319.505 224.837 319.686 224.021 320.049 223.36C320.412 222.699 320.908 222.208 321.537 221.888C322.177 221.557 322.902 221.392 323.713 221.392C324.556 221.392 325.297 221.579 325.937 221.952C326.577 222.315 327.068 222.805 327.409 223.424C327.75 224.032 327.921 224.693 327.921 225.408C327.921 225.707 327.91 226.053 327.889 226.448H321.745C321.905 227.824 322.609 228.512 323.857 228.512C324.305 228.512 324.678 228.427 324.977 228.256C325.286 228.085 325.569 227.824 325.825 227.472L327.713 228.144ZM325.633 224.848C325.548 224.325 325.34 223.904 325.009 223.584C324.678 223.264 324.246 223.104 323.713 223.104C323.169 223.104 322.737 223.243 322.417 223.52C322.108 223.797 321.9 224.24 321.793 224.848H325.633ZM334.046 223.248H332.11V230H329.87V223.248H328.574V221.648H329.87V220.944C329.87 220.453 329.998 219.995 330.254 219.568C330.521 219.141 330.878 218.8 331.326 218.544C331.785 218.288 332.297 218.16 332.862 218.16C333.534 218.16 334.201 218.341 334.862 218.704L333.998 220.208C333.667 220.08 333.363 220.016 333.086 220.016C332.766 220.016 332.521 220.107 332.35 220.288C332.19 220.459 332.11 220.677 332.11 220.944V221.648H334.046V223.248ZM335.576 230V221.648H337.816V230H335.576ZM337.816 218.576V220.496H335.576V218.576H337.816ZM339.607 230V221.648H341.847V222.672C342.38 221.819 343.223 221.392 344.375 221.392C345.111 221.392 345.682 221.536 346.087 221.824C346.503 222.101 346.786 222.501 346.935 223.024C347.095 223.547 347.175 224.208 347.175 225.008V230H344.935V225.008C344.935 224.389 344.85 223.947 344.679 223.68C344.519 223.403 344.194 223.264 343.703 223.264C343.159 223.264 342.711 223.413 342.359 223.712C342.018 224.011 341.847 224.443 341.847 225.008V230H339.607ZM348.966 230V221.648H351.206V230H348.966ZM351.206 218.576V220.496H348.966V218.576H351.206ZM352.998 230V221.648H355.238V222.832C355.803 221.872 356.774 221.392 358.15 221.392C358.278 221.392 358.374 221.397 358.438 221.408L358.15 223.616C357.894 223.552 357.616 223.52 357.318 223.52C355.931 223.52 355.238 224.235 355.238 225.664V230H352.998Z" fill="#EEF1F4"/>
<path d="M748.014 220.656H742.622V223.232H747.694V225.312H742.622V227.92H748.014V230H740.222V218.576H748.014V220.656ZM749.482 230V221.648H751.722V222.672C752.255 221.819 753.098 221.392 754.25 221.392C754.986 221.392 755.557 221.536 755.962 221.824C756.378 222.101 756.661 222.501 756.81 223.024C756.97 223.547 757.05 224.208 757.05 225.008V230H754.81V225.008C754.81 224.389 754.725 223.947 754.554 223.68C754.394 223.403 754.069 223.264 753.578 223.264C753.034 223.264 752.586 223.413 752.234 223.712C751.893 224.011 751.722 224.443 751.722 225.008V230H749.482ZM763.471 223.248H761.535V227.424C761.535 227.733 761.615 227.989 761.775 228.192C761.945 228.384 762.217 228.48 762.591 228.48C762.804 228.48 763.081 228.437 763.423 228.352L763.743 230C763.039 230.171 762.425 230.256 761.903 230.256C760.164 230.256 759.295 229.312 759.295 227.424V223.248H757.999V221.648H759.295V219.424H761.535V221.648H763.471V223.248ZM764.951 230V221.648H767.191V222.832C767.756 221.872 768.727 221.392 770.103 221.392C770.231 221.392 770.327 221.397 770.391 221.408L770.103 223.616C769.847 223.552 769.569 223.52 769.271 223.52C767.884 223.52 767.191 224.235 767.191 225.664V230H764.951ZM778.932 228.144C778.622 228.784 778.132 229.296 777.46 229.68C776.788 230.064 775.993 230.256 775.076 230.256C774.212 230.256 773.449 230.085 772.788 229.744C772.137 229.392 771.63 228.88 771.268 228.208C770.905 227.536 770.724 226.736 770.724 225.808C770.724 224.837 770.905 224.021 771.268 223.36C771.63 222.699 772.126 222.208 772.756 221.888C773.396 221.557 774.121 221.392 774.932 221.392C775.774 221.392 776.516 221.579 777.156 221.952C777.796 222.315 778.286 222.805 778.628 223.424C778.969 224.032 779.14 224.693 779.14 225.408C779.14 225.707 779.129 226.053 779.108 226.448H772.964C773.124 227.824 773.828 228.512 775.076 228.512C775.524 228.512 775.897 228.427 776.196 228.256C776.505 228.085 776.788 227.824 777.044 227.472L778.932 228.144ZM776.852 224.848C776.766 224.325 776.558 223.904 776.228 223.584C775.897 223.264 775.465 223.104 774.932 223.104C774.388 223.104 773.956 223.243 773.636 223.52C773.326 223.797 773.118 224.24 773.012 224.848H776.852ZM784.336 228.08C784.965 228.08 785.434 227.888 785.744 227.504C786.053 227.109 786.208 226.48 786.208 225.616C786.208 224.005 785.584 223.2 784.336 223.2C783.706 223.2 783.237 223.392 782.928 223.776C782.618 224.16 782.464 224.773 782.464 225.616C782.464 227.259 783.088 228.08 784.336 228.08ZM783.856 230C782.65 230 781.744 229.632 781.136 228.896C780.528 228.16 780.224 227.088 780.224 225.68C780.224 224.251 780.533 223.179 781.152 222.464C781.77 221.749 782.672 221.392 783.856 221.392C784.89 221.392 785.674 221.765 786.208 222.512V221.648H788.448V230C788.448 230.64 788.256 231.232 787.872 231.776C787.498 232.32 786.986 232.747 786.336 233.056C785.696 233.376 785.002 233.536 784.256 233.536C783.328 233.536 782.506 233.312 781.792 232.864C781.077 232.427 780.586 231.888 780.32 231.248L782.368 230.48C782.528 230.843 782.768 231.12 783.088 231.312C783.418 231.515 783.808 231.616 784.256 231.616C784.8 231.616 785.258 231.456 785.632 231.136C786.016 230.816 786.208 230.437 786.208 230V228.816C785.632 229.605 784.848 230 783.856 230ZM795.256 230V228.992C794.904 229.397 794.488 229.712 794.008 229.936C793.528 230.149 793.043 230.256 792.552 230.256C792.029 230.256 791.549 230.128 791.112 229.872C790.685 229.616 790.36 229.301 790.136 228.928C789.912 228.555 789.8 228.16 789.8 227.744C789.8 227.051 790.088 226.416 790.664 225.84C790.973 225.531 791.4 225.312 791.944 225.184C792.499 225.045 793.272 224.923 794.264 224.816C794.723 224.773 795.053 224.736 795.256 224.704C795.224 224.128 795.085 223.733 794.84 223.52C794.605 223.307 794.248 223.2 793.768 223.2C793.299 223.2 792.936 223.291 792.68 223.472C792.424 223.643 792.264 223.877 792.2 224.176L790.12 223.936C790.205 223.509 790.387 223.104 790.664 222.72C790.952 222.325 791.357 222.005 791.88 221.76C792.403 221.515 793.032 221.392 793.768 221.392C794.941 221.392 795.853 221.691 796.504 222.288C797.165 222.875 797.496 223.765 797.496 224.96V230H795.256ZM792.328 228.32C792.531 228.469 792.808 228.544 793.16 228.544C793.491 228.544 793.816 228.469 794.136 228.32C794.456 228.16 794.723 227.915 794.936 227.584C795.149 227.253 795.256 226.837 795.256 226.336V226.24L794.312 226.336C793.757 226.389 793.336 226.448 793.048 226.512C792.771 226.565 792.547 226.677 792.376 226.848C792.28 226.944 792.2 227.067 792.136 227.216C792.083 227.365 792.056 227.52 792.056 227.68C792.056 227.957 792.147 228.171 792.328 228.32ZM799.294 230V221.648H801.534V222.832C802.1 221.872 803.07 221.392 804.446 221.392C804.574 221.392 804.67 221.397 804.734 221.408L804.446 223.616C804.19 223.552 803.913 223.52 803.614 223.52C802.228 223.52 801.534 224.235 801.534 225.664V230H799.294Z" fill="#EEF1F4"/>
</svg>
