<svg width="515" height="905" viewBox="0 0 515 905" fill="none" xmlns="http://www.w3.org/2000/svg">
<path d="M292 11.3808L512.619 232L292 452.619L71.381 232L292 11.3808Z" stroke="#EEF1F4" stroke-width="3"/>
<path d="M292 453.016L512.619 673.635L292 894.254L71.381 673.635L292 453.016Z" stroke="#EEF1F4" stroke-width="3"/>
<ellipse cx="292.5" cy="11.1191" rx="10.5" ry="10" transform="rotate(90 292.5 11.1191)" fill="#EEF1F4"/>
<ellipse cx="292.5" cy="453.119" rx="10.5" ry="10" transform="rotate(90 292.5 453.119)" fill="#EEF1F4"/>
<ellipse cx="292.5" cy="894.119" rx="10.5" ry="10" transform="rotate(90 292.5 894.119)" fill="#EEF1F4"/>
<path d="M512.619 231.619L71.6191 231.619" stroke="#EEF1F4" stroke-dasharray="6 6"/>
<path d="M514.619 673.619L71.6191 673.619" stroke="#EEF1F4" stroke-dasharray="6 6"/>
<path d="M43.9301 453V435.864H50.8661C51.7621 435.864 52.5781 436.088 53.3141 436.536C54.0661 436.968 54.6501 437.576 55.0661 438.36C55.4981 439.128 55.7141 439.992 55.7141 440.952C55.7141 441.928 55.5061 442.808 55.0901 443.592C54.6741 444.376 54.1061 444.992 53.3861 445.44C52.6661 445.872 51.8741 446.088 51.0101 446.088H45.5381V453H43.9301ZM51.0101 444.672C51.5701 444.672 52.0821 444.52 52.5461 444.216C53.0261 443.912 53.4101 443.48 53.6981 442.92C53.9861 442.344 54.1301 441.688 54.1301 440.952C54.1301 440.248 53.9781 439.616 53.6741 439.056C53.3861 438.496 52.9941 438.064 52.4981 437.76C52.0021 437.44 51.4581 437.28 50.8661 437.28H45.5381V444.672H51.0101ZM58.2894 453V440.472H59.8974V442.248C60.2814 441.608 60.8014 441.088 61.4574 440.688C62.1294 440.288 62.8814 440.088 63.7134 440.088C64.0814 440.088 64.4174 440.112 64.7214 440.16L64.5054 441.744C64.0894 441.68 63.8014 441.648 63.6414 441.648C62.9694 441.648 62.3454 441.808 61.7694 442.128C61.1934 442.448 60.7374 442.896 60.4014 443.472C60.0654 444.048 59.8974 444.704 59.8974 445.44V453H58.2894ZM71.5867 451.968C72.9627 451.968 74.0187 451.528 74.7547 450.648C75.4907 449.768 75.8587 448.456 75.8587 446.712C75.8587 445.048 75.4907 443.768 74.7547 442.872C74.0187 441.96 72.9627 441.504 71.5867 441.504C70.1947 441.504 69.1307 441.944 68.3947 442.824C67.6747 443.688 67.3147 444.984 67.3147 446.712C67.3147 448.408 67.6747 449.712 68.3947 450.624C69.1307 451.52 70.1947 451.968 71.5867 451.968ZM71.5867 453.384C69.7147 453.384 68.2667 452.792 67.2427 451.608C66.2187 450.408 65.7067 448.776 65.7067 446.712C65.7067 444.6 66.2187 442.968 67.2427 441.816C68.2827 440.664 69.7307 440.088 71.5867 440.088C73.4427 440.088 74.8827 440.688 75.9067 441.888C76.9307 443.072 77.4427 444.68 77.4427 446.712C77.4427 448.824 76.9227 450.464 75.8827 451.632C74.8427 452.8 73.4107 453.384 71.5867 453.384ZM91.1921 449.64C90.7921 450.84 90.1201 451.768 89.1761 452.424C88.2321 453.064 87.0801 453.384 85.7201 453.384C83.8641 453.384 82.4161 452.792 81.3761 451.608C80.3361 450.424 79.8161 448.808 79.8161 446.76C79.8161 444.696 80.3281 443.072 81.3521 441.888C82.3921 440.688 83.8481 440.088 85.7201 440.088C87.0801 440.088 88.2321 440.416 89.1761 441.072C90.1201 441.712 90.7921 442.632 91.1921 443.832L89.6801 444.288C89.0401 442.432 87.7201 441.504 85.7201 441.504C84.3281 441.504 83.2641 441.96 82.5281 442.872C81.7921 443.784 81.4241 445.08 81.4241 446.76C81.4241 448.424 81.7921 449.712 82.5281 450.624C83.2641 451.52 84.3281 451.968 85.7201 451.968C87.7201 451.968 89.0401 451.04 89.6801 449.184L91.1921 449.64ZM104.836 450.312C104.372 451.304 103.668 452.064 102.724 452.592C101.78 453.12 100.676 453.384 99.4121 453.384C97.4761 453.384 95.9721 452.792 94.9001 451.608C93.8441 450.424 93.3161 448.792 93.3161 446.712C93.3161 444.584 93.8281 442.952 94.8521 441.816C95.8921 440.664 97.3401 440.088 99.1961 440.088C100.396 440.088 101.436 440.36 102.316 440.904C103.212 441.448 103.892 442.176 104.356 443.088C104.836 443.984 105.076 444.96 105.076 446.016V447.144H94.9241C95.0041 448.712 95.4201 449.912 96.1721 450.744C96.9241 451.56 98.0041 451.968 99.4121 451.968C101.348 451.968 102.676 451.216 103.396 449.712L104.836 450.312ZM103.468 445.728C103.404 444.528 102.988 443.528 102.22 442.728C101.468 441.912 100.46 441.504 99.1961 441.504C96.6361 441.504 95.2281 442.912 94.9721 445.728H103.468ZM108.435 449.28C108.755 450.24 109.323 450.928 110.139 451.344C110.955 451.76 111.811 451.968 112.707 451.968C113.699 451.968 114.523 451.8 115.179 451.464C115.851 451.128 116.187 450.576 116.187 449.808C116.187 449.216 116.051 448.76 115.779 448.44C115.507 448.104 115.139 447.864 114.675 447.72C114.211 447.56 113.547 447.4 112.683 447.24C111.595 447.064 110.731 446.896 110.091 446.736C109.467 446.56 108.891 446.232 108.363 445.752C107.835 445.256 107.571 444.552 107.571 443.64C107.571 443.016 107.779 442.432 108.195 441.888C108.627 441.344 109.219 440.912 109.971 440.592C110.723 440.256 111.571 440.088 112.515 440.088C113.859 440.088 114.979 440.432 115.875 441.12C116.771 441.792 117.379 442.576 117.699 443.472L116.187 443.952C115.947 443.264 115.507 442.688 114.867 442.224C114.243 441.744 113.459 441.504 112.515 441.504C111.859 441.504 111.275 441.608 110.763 441.816C110.251 442.024 109.851 442.296 109.563 442.632C109.291 442.952 109.155 443.288 109.155 443.64C109.155 444.184 109.315 444.6 109.635 444.888C109.955 445.16 110.331 445.344 110.763 445.44C111.195 445.536 111.923 445.664 112.947 445.824C113.955 446.016 114.779 446.232 115.419 446.472C116.059 446.696 116.611 447.08 117.075 447.624C117.539 448.152 117.771 448.88 117.771 449.808C117.771 451.072 117.251 451.984 116.211 452.544C115.187 453.104 114.019 453.384 112.707 453.384C112.019 453.384 111.291 453.272 110.523 453.048C109.755 452.824 109.035 452.44 108.363 451.896C107.707 451.352 107.227 450.632 106.923 449.736L108.435 449.28ZM120.786 449.28C121.106 450.24 121.674 450.928 122.49 451.344C123.306 451.76 124.162 451.968 125.058 451.968C126.05 451.968 126.874 451.8 127.53 451.464C128.202 451.128 128.538 450.576 128.538 449.808C128.538 449.216 128.402 448.76 128.13 448.44C127.858 448.104 127.49 447.864 127.026 447.72C126.562 447.56 125.898 447.4 125.034 447.24C123.946 447.064 123.082 446.896 122.442 446.736C121.818 446.56 121.242 446.232 120.714 445.752C120.186 445.256 119.922 444.552 119.922 443.64C119.922 443.016 120.13 442.432 120.546 441.888C120.978 441.344 121.57 440.912 122.322 440.592C123.074 440.256 123.922 440.088 124.866 440.088C126.21 440.088 127.33 440.432 128.226 441.12C129.122 441.792 129.73 442.576 130.05 443.472L128.538 443.952C128.298 443.264 127.858 442.688 127.218 442.224C126.594 441.744 125.81 441.504 124.866 441.504C124.21 441.504 123.626 441.608 123.114 441.816C122.602 442.024 122.202 442.296 121.914 442.632C121.642 442.952 121.506 443.288 121.506 443.64C121.506 444.184 121.666 444.6 121.986 444.888C122.306 445.16 122.682 445.344 123.114 445.44C123.546 445.536 124.274 445.664 125.298 445.824C126.306 446.016 127.13 446.232 127.77 446.472C128.41 446.696 128.962 447.08 129.426 447.624C129.89 448.152 130.122 448.88 130.122 449.808C130.122 451.072 129.602 451.984 128.562 452.544C127.538 453.104 126.37 453.384 125.058 453.384C124.37 453.384 123.642 453.272 122.874 453.048C122.106 452.824 121.386 452.44 120.714 451.896C120.058 451.352 119.578 450.632 119.274 449.736L120.786 449.28ZM138.079 451.968C139.455 451.968 140.511 451.528 141.247 450.648C141.983 449.768 142.351 448.456 142.351 446.712C142.351 445.048 141.983 443.768 141.247 442.872C140.511 441.96 139.455 441.504 138.079 441.504C136.687 441.504 135.623 441.944 134.887 442.824C134.167 443.688 133.807 444.984 133.807 446.712C133.807 448.408 134.167 449.712 134.887 450.624C135.623 451.52 136.687 451.968 138.079 451.968ZM138.079 453.384C136.207 453.384 134.759 452.792 133.735 451.608C132.711 450.408 132.199 448.776 132.199 446.712C132.199 444.6 132.711 442.968 133.735 441.816C134.775 440.664 136.223 440.088 138.079 440.088C139.935 440.088 141.375 440.688 142.399 441.888C143.423 443.072 143.935 444.68 143.935 446.712C143.935 448.824 143.415 450.464 142.375 451.632C141.335 452.8 139.903 453.384 138.079 453.384ZM2.07453 464.864H8.67453C10.3065 464.864 11.7305 465.2 12.9465 465.872C14.1785 466.544 15.1305 467.528 15.8025 468.824C16.4905 470.104 16.8345 471.64 16.8345 473.432C16.8345 475.272 16.4825 476.832 15.7785 478.112C15.0905 479.392 14.1305 480.36 12.8985 481.016C11.6825 481.672 10.2745 482 8.67453 482H2.07453V464.864ZM8.67453 478.88C10.1465 478.88 11.2745 478.432 12.0585 477.536C12.8425 476.64 13.2345 475.272 13.2345 473.432C13.2345 471.672 12.8505 470.328 12.0825 469.4C11.3145 468.456 10.1785 467.984 8.67453 467.984H5.67453V478.88H8.67453ZM24.8663 479.696C25.8263 479.696 26.5383 479.384 27.0023 478.76C27.4663 478.12 27.6983 477.104 27.6983 475.712C27.6983 473.088 26.7543 471.776 24.8663 471.776C23.9063 471.776 23.1943 472.088 22.7303 472.712C22.2663 473.336 22.0343 474.336 22.0343 475.712C22.0343 478.368 22.9783 479.696 24.8663 479.696ZM24.8663 482.384C23.6183 482.384 22.5143 482.128 21.5543 481.616C20.6103 481.104 19.8743 480.352 19.3463 479.36C18.8183 478.352 18.5543 477.136 18.5543 475.712C18.5543 474.256 18.8263 473.032 19.3703 472.04C19.9143 471.048 20.6583 470.312 21.6023 469.832C22.5623 469.336 23.6503 469.088 24.8663 469.088C26.1143 469.088 27.2103 469.352 28.1543 469.88C29.1143 470.392 29.8583 471.152 30.3863 472.16C30.9143 473.152 31.1783 474.336 31.1783 475.712C31.1783 477.808 30.6103 479.448 29.4743 480.632C28.3383 481.8 26.8023 482.384 24.8663 482.384ZM44.6843 469.472V482H41.3243V480.464C40.5243 481.744 39.2603 482.384 37.5323 482.384C36.4283 482.384 35.5643 482.176 34.9403 481.76C34.3323 481.328 33.9083 480.72 33.6683 479.936C33.4443 479.152 33.3323 478.16 33.3323 476.96V469.472H36.6923V476.96C36.6923 477.888 36.8123 478.56 37.0523 478.976C37.3083 479.376 37.8043 479.576 38.5403 479.576C39.3563 479.576 40.0203 479.352 40.5323 478.904C41.0603 478.456 41.3243 477.808 41.3243 476.96V469.472H44.6843ZM47.3713 482V464.864H50.7313V470.912C51.1633 470.336 51.6753 469.888 52.2673 469.568C52.8753 469.248 53.5633 469.088 54.3313 469.088C55.4033 469.088 56.3473 469.352 57.1633 469.88C57.9793 470.408 58.6033 471.168 59.0353 472.16C59.4833 473.152 59.7073 474.336 59.7073 475.712C59.7073 477.072 59.4513 478.256 58.9393 479.264C58.4273 480.272 57.7553 481.048 56.9233 481.592C56.0913 482.12 55.2033 482.384 54.2593 482.384C52.8033 482.384 51.6273 481.856 50.7313 480.8V482H47.3713ZM53.5393 479.648C54.4833 479.648 55.1873 479.328 55.6513 478.688C56.1153 478.048 56.3473 477.056 56.3473 475.712C56.3473 473.12 55.4113 471.824 53.5393 471.824C52.5953 471.824 51.8913 472.144 51.4273 472.784C50.9633 473.408 50.7313 474.384 50.7313 475.712C50.7313 478.336 51.6673 479.648 53.5393 479.648ZM61.8557 482V464.864H65.2157V482H61.8557ZM79.6866 479.216C79.2226 480.176 78.4866 480.944 77.4786 481.52C76.4706 482.096 75.2786 482.384 73.9026 482.384C72.6066 482.384 71.4626 482.128 70.4706 481.616C69.4946 481.088 68.7346 480.32 68.1906 479.312C67.6466 478.304 67.3746 477.104 67.3746 475.712C67.3746 474.256 67.6466 473.032 68.1906 472.04C68.7346 471.048 69.4786 470.312 70.4226 469.832C71.3826 469.336 72.4706 469.088 73.6866 469.088C74.9506 469.088 76.0626 469.368 77.0226 469.928C77.9826 470.472 78.7186 471.208 79.2306 472.136C79.7426 473.048 79.9986 474.04 79.9986 475.112C79.9986 475.56 79.9826 476.08 79.9506 476.672H70.7346C70.9746 478.736 72.0306 479.768 73.9026 479.768C74.5746 479.768 75.1346 479.64 75.5826 479.384C76.0466 479.128 76.4706 478.736 76.8546 478.208L79.6866 479.216ZM76.5666 474.272C76.4386 473.488 76.1266 472.856 75.6306 472.376C75.1346 471.896 74.4866 471.656 73.6866 471.656C72.8706 471.656 72.2226 471.864 71.7426 472.28C71.2786 472.696 70.9666 473.36 70.8066 474.272H76.5666ZM87.8089 464.864H94.4089C96.0409 464.864 97.4649 465.2 98.6809 465.872C99.9129 466.544 100.865 467.528 101.537 468.824C102.225 470.104 102.569 471.64 102.569 473.432C102.569 475.272 102.217 476.832 101.513 478.112C100.825 479.392 99.8649 480.36 98.6329 481.016C97.4169 481.672 96.0089 482 94.4089 482H87.8089V464.864ZM94.4089 478.88C95.8809 478.88 97.0089 478.432 97.7929 477.536C98.5769 476.64 98.9689 475.272 98.9689 473.432C98.9689 471.672 98.5849 470.328 97.8169 469.4C97.0489 468.456 95.9129 467.984 94.4089 467.984H91.4089V478.88H94.4089ZM104.746 482V469.472H108.106V482H104.746ZM108.106 464.864V467.744H104.746V464.864H108.106ZM118.329 482V480.488C117.801 481.096 117.177 481.568 116.457 481.904C115.737 482.224 115.009 482.384 114.273 482.384C113.489 482.384 112.769 482.192 112.113 481.808C111.473 481.424 110.985 480.952 110.649 480.392C110.313 479.832 110.145 479.24 110.145 478.616C110.145 477.576 110.577 476.624 111.441 475.76C111.905 475.296 112.545 474.968 113.361 474.776C114.193 474.568 115.353 474.384 116.841 474.224C117.529 474.16 118.025 474.104 118.329 474.056C118.281 473.192 118.073 472.6 117.705 472.28C117.353 471.96 116.817 471.8 116.097 471.8C115.393 471.8 114.849 471.936 114.465 472.208C114.081 472.464 113.841 472.816 113.745 473.264L110.625 472.904C110.753 472.264 111.025 471.656 111.441 471.08C111.873 470.488 112.481 470.008 113.265 469.64C114.049 469.272 114.993 469.088 116.097 469.088C117.857 469.088 119.225 469.536 120.201 470.432C121.193 471.312 121.689 472.648 121.689 474.44V482H118.329ZM113.937 479.48C114.241 479.704 114.657 479.816 115.185 479.816C115.681 479.816 116.169 479.704 116.649 479.48C117.129 479.24 117.529 478.872 117.849 478.376C118.169 477.88 118.329 477.256 118.329 476.504V476.36L116.913 476.504C116.081 476.584 115.449 476.672 115.017 476.768C114.601 476.848 114.265 477.016 114.009 477.272C113.865 477.416 113.745 477.6 113.649 477.824C113.569 478.048 113.529 478.28 113.529 478.52C113.529 478.936 113.665 479.256 113.937 479.48ZM124.387 482V469.472H127.747V470.984C128.147 470.392 128.635 469.928 129.211 469.592C129.803 469.256 130.483 469.088 131.251 469.088C132.211 469.088 132.963 469.272 133.507 469.64C134.067 470.008 134.475 470.552 134.731 471.272C135.147 470.6 135.683 470.072 136.339 469.688C137.011 469.288 137.779 469.088 138.643 469.088C139.667 469.088 140.459 469.296 141.019 469.712C141.579 470.128 141.963 470.728 142.171 471.512C142.379 472.28 142.483 473.28 142.483 474.512V482H139.123V474.512C139.123 473.568 139.027 472.912 138.835 472.544C138.643 472.16 138.235 471.968 137.611 471.968C136.891 471.968 136.291 472.184 135.811 472.616C135.347 473.032 135.115 473.664 135.115 474.512V482H131.755V474.512C131.755 473.568 131.659 472.912 131.467 472.544C131.275 472.16 130.867 471.968 130.243 471.968C129.523 471.968 128.923 472.184 128.443 472.616C127.979 473.032 127.747 473.664 127.747 474.512V482H124.387ZM150.96 479.696C151.92 479.696 152.632 479.384 153.096 478.76C153.56 478.12 153.792 477.104 153.792 475.712C153.792 473.088 152.848 471.776 150.96 471.776C150 471.776 149.288 472.088 148.824 472.712C148.36 473.336 148.128 474.336 148.128 475.712C148.128 478.368 149.072 479.696 150.96 479.696ZM150.96 482.384C149.712 482.384 148.608 482.128 147.648 481.616C146.704 481.104 145.968 480.352 145.44 479.36C144.912 478.352 144.648 477.136 144.648 475.712C144.648 474.256 144.92 473.032 145.464 472.04C146.008 471.048 146.752 470.312 147.696 469.832C148.656 469.336 149.744 469.088 150.96 469.088C152.208 469.088 153.304 469.352 154.248 469.88C155.208 470.392 155.952 471.152 156.48 472.16C157.008 473.152 157.272 474.336 157.272 475.712C157.272 477.808 156.704 479.448 155.568 480.632C154.432 481.8 152.896 482.384 150.96 482.384ZM159.426 482V469.472H162.786V471.008C163.586 469.728 164.85 469.088 166.578 469.088C167.682 469.088 168.538 469.304 169.146 469.736C169.77 470.152 170.194 470.752 170.418 471.536C170.658 472.32 170.778 473.312 170.778 474.512V482H167.418V474.512C167.418 473.584 167.29 472.92 167.034 472.52C166.794 472.104 166.306 471.896 165.57 471.896C164.754 471.896 164.082 472.12 163.554 472.568C163.042 473.016 162.786 473.664 162.786 474.512V482H159.426ZM181.913 480.8C181.017 481.856 179.841 482.384 178.385 482.384C177.441 482.384 176.553 482.12 175.721 481.592C174.889 481.048 174.217 480.272 173.705 479.264C173.193 478.256 172.937 477.072 172.937 475.712C172.937 474.336 173.153 473.152 173.585 472.16C174.033 471.168 174.665 470.408 175.481 469.88C176.297 469.352 177.241 469.088 178.313 469.088C179.081 469.088 179.761 469.248 180.353 469.568C180.961 469.888 181.481 470.336 181.913 470.912V464.864H185.273V482H181.913V480.8ZM179.105 479.648C180.977 479.648 181.913 478.336 181.913 475.712C181.913 474.384 181.681 473.408 181.217 472.784C180.753 472.144 180.049 471.824 179.105 471.824C177.233 471.824 176.297 473.12 176.297 475.712C176.297 477.056 176.529 478.048 176.993 478.688C177.457 479.328 178.161 479.648 179.105 479.648Z" fill="#EEF1F4"/>
<path d="M255.245 155.576H259.645C260.733 155.576 261.682 155.8 262.493 156.248C263.314 156.696 263.949 157.352 264.397 158.216C264.856 159.069 265.085 160.093 265.085 161.288C265.085 162.515 264.85 163.555 264.381 164.408C263.922 165.261 263.282 165.907 262.461 166.344C261.65 166.781 260.712 167 259.645 167H255.245V155.576ZM259.645 164.92C260.626 164.92 261.378 164.621 261.901 164.024C262.424 163.427 262.685 162.515 262.685 161.288C262.685 160.115 262.429 159.219 261.917 158.6C261.405 157.971 260.648 157.656 259.645 157.656H257.645V164.92H259.645ZM274.44 165.144C274.13 165.784 273.64 166.296 272.968 166.68C272.296 167.064 271.501 167.256 270.584 167.256C269.72 167.256 268.957 167.085 268.296 166.744C267.645 166.392 267.138 165.88 266.776 165.208C266.413 164.536 266.232 163.736 266.232 162.808C266.232 161.837 266.413 161.021 266.776 160.36C267.138 159.699 267.634 159.208 268.264 158.888C268.904 158.557 269.629 158.392 270.44 158.392C271.282 158.392 272.024 158.579 272.664 158.952C273.304 159.315 273.794 159.805 274.135 160.424C274.477 161.032 274.648 161.693 274.648 162.408C274.648 162.707 274.637 163.053 274.616 163.448H268.472C268.632 164.824 269.336 165.512 270.584 165.512C271.032 165.512 271.405 165.427 271.704 165.256C272.013 165.085 272.296 164.824 272.552 164.472L274.44 165.144ZM272.36 161.848C272.274 161.325 272.066 160.904 271.736 160.584C271.405 160.264 270.973 160.104 270.44 160.104C269.896 160.104 269.464 160.243 269.144 160.52C268.834 160.797 268.626 161.24 268.52 161.848H272.36ZM277.364 164.2C277.502 164.691 277.769 165.032 278.164 165.224C278.558 165.405 278.99 165.496 279.46 165.496C279.94 165.496 280.297 165.437 280.532 165.32C280.777 165.192 280.9 164.979 280.9 164.68C280.9 164.435 280.857 164.253 280.772 164.136C280.686 164.019 280.542 163.933 280.34 163.88C280.148 163.816 279.812 163.741 279.332 163.656C278.585 163.539 277.966 163.405 277.476 163.256C276.996 163.096 276.585 162.84 276.243 162.488C275.902 162.136 275.732 161.645 275.732 161.016C275.732 160.568 275.881 160.147 276.18 159.752C276.489 159.347 276.916 159.021 277.46 158.776C278.014 158.52 278.644 158.392 279.348 158.392C279.998 158.392 280.58 158.509 281.092 158.744C281.614 158.979 282.036 159.277 282.356 159.64C282.686 159.992 282.921 160.36 283.06 160.744L281.092 161.32C280.985 160.936 280.772 160.643 280.452 160.44C280.132 160.227 279.764 160.12 279.348 160.12C278.932 160.12 278.596 160.211 278.34 160.392C278.094 160.563 277.972 160.749 277.972 160.952C277.972 161.133 278.025 161.272 278.132 161.368C278.249 161.464 278.409 161.533 278.612 161.576C278.814 161.619 279.177 161.683 279.7 161.768C280.809 161.949 281.657 162.248 282.244 162.664C282.841 163.069 283.14 163.72 283.14 164.616C283.14 165.469 282.782 166.125 282.068 166.584C281.364 167.032 280.494 167.256 279.46 167.256C278.628 167.256 277.833 167.075 277.076 166.712C276.318 166.349 275.796 165.683 275.508 164.712L277.364 164.2ZM292.297 164.712C292.02 165.512 291.534 166.136 290.841 166.584C290.158 167.032 289.337 167.256 288.377 167.256C287.545 167.256 286.809 167.085 286.169 166.744C285.54 166.392 285.049 165.885 284.697 165.224C284.345 164.563 284.169 163.768 284.169 162.84C284.169 161.891 284.345 161.085 284.697 160.424C285.049 159.752 285.54 159.245 286.169 158.904C286.809 158.563 287.545 158.392 288.377 158.392C289.337 158.392 290.158 158.616 290.841 159.064C291.534 159.512 292.02 160.136 292.297 160.936L290.185 161.512C290.025 161.043 289.801 160.707 289.513 160.504C289.236 160.301 288.857 160.2 288.377 160.2C287.065 160.2 286.409 161.08 286.409 162.84C286.409 164.579 287.065 165.448 288.377 165.448C288.857 165.448 289.236 165.347 289.513 165.144C289.801 164.941 290.025 164.605 290.185 164.136L292.297 164.712ZM297.44 165.464C298.08 165.464 298.554 165.256 298.864 164.84C299.173 164.413 299.328 163.736 299.328 162.808C299.328 161.059 298.698 160.184 297.44 160.184C296.8 160.184 296.325 160.392 296.016 160.808C295.706 161.224 295.552 161.891 295.552 162.808C295.552 164.579 296.181 165.464 297.44 165.464ZM297.44 167.256C296.608 167.256 295.872 167.085 295.232 166.744C294.602 166.403 294.112 165.901 293.76 165.24C293.408 164.568 293.232 163.757 293.232 162.808C293.232 161.837 293.413 161.021 293.776 160.36C294.138 159.699 294.634 159.208 295.264 158.888C295.904 158.557 296.629 158.392 297.44 158.392C298.272 158.392 299.002 158.568 299.632 158.92C300.272 159.261 300.768 159.768 301.12 160.44C301.472 161.101 301.648 161.891 301.648 162.808C301.648 164.205 301.269 165.299 300.512 166.088C299.754 166.867 298.73 167.256 297.44 167.256ZM303.084 167V155.576H305.324V159.608C305.612 159.224 305.953 158.925 306.348 158.712C306.753 158.499 307.212 158.392 307.724 158.392C308.438 158.392 309.068 158.568 309.612 158.92C310.156 159.272 310.572 159.779 310.86 160.44C311.158 161.101 311.308 161.891 311.308 162.808C311.308 163.715 311.137 164.504 310.796 165.176C310.454 165.848 310.006 166.365 309.452 166.728C308.897 167.08 308.305 167.256 307.676 167.256C306.705 167.256 305.921 166.904 305.324 166.2V167H303.084ZM307.196 165.432C307.825 165.432 308.294 165.219 308.604 164.792C308.913 164.365 309.068 163.704 309.068 162.808C309.068 161.08 308.444 160.216 307.196 160.216C306.566 160.216 306.097 160.429 305.788 160.856C305.478 161.272 305.324 161.923 305.324 162.808C305.324 164.557 305.948 165.432 307.196 165.432ZM312.74 167V158.648H314.98V159.832C315.545 158.872 316.516 158.392 317.892 158.392C318.02 158.392 318.116 158.397 318.18 158.408L317.892 160.616C317.636 160.552 317.358 160.52 317.06 160.52C315.673 160.52 314.98 161.235 314.98 162.664V167H312.74ZM319.24 167V158.648H321.48V167H319.24ZM321.48 155.576V157.496H319.24V155.576H321.48ZM323.271 167V158.648H325.511V159.832C326.076 158.872 327.047 158.392 328.423 158.392C328.551 158.392 328.647 158.397 328.711 158.408L328.423 160.616C328.167 160.552 327.89 160.52 327.591 160.52C326.204 160.52 325.511 161.235 325.511 162.664V167H323.271Z" fill="#EEF1F4"/>
<path d="M245.237 589.576H249.637C250.725 589.576 251.675 589.8 252.485 590.248C253.307 590.696 253.941 591.352 254.389 592.216C254.848 593.069 255.077 594.093 255.077 595.288C255.077 596.515 254.843 597.555 254.373 598.408C253.915 599.261 253.275 599.907 252.453 600.344C251.643 600.781 250.704 601 249.637 601H245.237V589.576ZM249.637 598.92C250.619 598.92 251.371 598.621 251.893 598.024C252.416 597.427 252.677 596.515 252.677 595.288C252.677 594.115 252.421 593.219 251.909 592.6C251.397 591.971 250.64 591.656 249.637 591.656H247.637V598.92H249.637ZM264.432 599.144C264.122 599.784 263.632 600.296 262.96 600.68C262.288 601.064 261.493 601.256 260.576 601.256C259.712 601.256 258.949 601.085 258.288 600.744C257.637 600.392 257.13 599.88 256.768 599.208C256.405 598.536 256.224 597.736 256.224 596.808C256.224 595.837 256.405 595.021 256.768 594.36C257.13 593.699 257.626 593.208 258.256 592.888C258.896 592.557 259.621 592.392 260.432 592.392C261.274 592.392 262.016 592.579 262.656 592.952C263.296 593.315 263.786 593.805 264.128 594.424C264.469 595.032 264.64 595.693 264.64 596.408C264.64 596.707 264.629 597.053 264.608 597.448H258.464C258.624 598.824 259.328 599.512 260.576 599.512C261.024 599.512 261.397 599.427 261.696 599.256C262.005 599.085 262.288 598.824 262.544 598.472L264.432 599.144ZM262.352 595.848C262.266 595.325 262.058 594.904 261.728 594.584C261.397 594.264 260.965 594.104 260.432 594.104C259.888 594.104 259.456 594.243 259.136 594.52C258.826 594.797 258.618 595.24 258.512 595.848H262.352ZM267.356 598.2C267.494 598.691 267.761 599.032 268.156 599.224C268.55 599.405 268.982 599.496 269.452 599.496C269.932 599.496 270.289 599.437 270.524 599.32C270.769 599.192 270.892 598.979 270.892 598.68C270.892 598.435 270.849 598.253 270.764 598.136C270.678 598.019 270.534 597.933 270.332 597.88C270.14 597.816 269.804 597.741 269.324 597.656C268.577 597.539 267.958 597.405 267.468 597.256C266.988 597.096 266.577 596.84 266.236 596.488C265.894 596.136 265.724 595.645 265.724 595.016C265.724 594.568 265.873 594.147 266.172 593.752C266.481 593.347 266.908 593.021 267.452 592.776C268.006 592.52 268.636 592.392 269.34 592.392C269.99 592.392 270.572 592.509 271.084 592.744C271.606 592.979 272.028 593.277 272.348 593.64C272.678 593.992 272.913 594.36 273.052 594.744L271.084 595.32C270.977 594.936 270.764 594.643 270.444 594.44C270.124 594.227 269.756 594.12 269.34 594.12C268.924 594.12 268.588 594.211 268.332 594.392C268.086 594.563 267.964 594.749 267.964 594.952C267.964 595.133 268.017 595.272 268.124 595.368C268.241 595.464 268.401 595.533 268.604 595.576C268.806 595.619 269.169 595.683 269.692 595.768C270.801 595.949 271.649 596.248 272.236 596.664C272.833 597.069 273.132 597.72 273.132 598.616C273.132 599.469 272.774 600.125 272.06 600.584C271.356 601.032 270.486 601.256 269.452 601.256C268.62 601.256 267.825 601.075 267.068 600.712C266.31 600.349 265.788 599.683 265.5 598.712L267.356 598.2ZM282.369 599.144C282.06 599.784 281.569 600.296 280.897 600.68C280.225 601.064 279.431 601.256 278.513 601.256C277.649 601.256 276.887 601.085 276.225 600.744C275.575 600.392 275.068 599.88 274.705 599.208C274.343 598.536 274.161 597.736 274.161 596.808C274.161 595.837 274.343 595.021 274.705 594.36C275.068 593.699 275.564 593.208 276.193 592.888C276.833 592.557 277.559 592.392 278.369 592.392C279.212 592.392 279.953 592.579 280.593 592.952C281.233 593.315 281.724 593.805 282.065 594.424C282.407 595.032 282.577 595.693 282.577 596.408C282.577 596.707 282.567 597.053 282.545 597.448H276.401C276.561 598.824 277.265 599.512 278.513 599.512C278.961 599.512 279.335 599.427 279.633 599.256C279.943 599.085 280.225 598.824 280.481 598.472L282.369 599.144ZM280.289 595.848C280.204 595.325 279.996 594.904 279.665 594.584C279.335 594.264 278.903 594.104 278.369 594.104C277.825 594.104 277.393 594.243 277.073 594.52C276.764 594.797 276.556 595.24 276.449 595.848H280.289ZM284.013 601V592.648H286.253V593.672C286.787 592.819 287.629 592.392 288.781 592.392C289.517 592.392 290.088 592.536 290.493 592.824C290.909 593.101 291.192 593.501 291.341 594.024C291.501 594.547 291.581 595.208 291.581 596.008V601H289.341V596.008C289.341 595.389 289.256 594.947 289.085 594.68C288.925 594.403 288.6 594.264 288.109 594.264C287.565 594.264 287.117 594.413 286.765 594.712C286.424 595.011 286.253 595.443 286.253 596.008V601H284.013ZM292.355 592.648H294.691L296.643 598.392L298.579 592.648H300.915L297.715 601H295.555L292.355 592.648ZM305.51 599.464C306.15 599.464 306.624 599.256 306.934 598.84C307.243 598.413 307.398 597.736 307.398 596.808C307.398 595.059 306.768 594.184 305.51 594.184C304.87 594.184 304.395 594.392 304.086 594.808C303.776 595.224 303.622 595.891 303.622 596.808C303.622 598.579 304.251 599.464 305.51 599.464ZM305.51 601.256C304.678 601.256 303.942 601.085 303.302 600.744C302.672 600.403 302.182 599.901 301.83 599.24C301.478 598.568 301.302 597.757 301.302 596.808C301.302 595.837 301.483 595.021 301.846 594.36C302.208 593.699 302.704 593.208 303.334 592.888C303.974 592.557 304.699 592.392 305.51 592.392C306.342 592.392 307.072 592.568 307.702 592.92C308.342 593.261 308.838 593.768 309.19 594.44C309.542 595.101 309.718 595.891 309.718 596.808C309.718 598.205 309.339 599.299 308.582 600.088C307.824 600.867 306.8 601.256 305.51 601.256ZM311.154 601V589.576H313.394V601H311.154ZM314.48 592.648H316.816L318.768 598.392L320.704 592.648H323.04L319.84 601H317.68L314.48 592.648ZM331.635 599.144C331.325 599.784 330.835 600.296 330.163 600.68C329.491 601.064 328.696 601.256 327.779 601.256C326.915 601.256 326.152 601.085 325.491 600.744C324.84 600.392 324.333 599.88 323.971 599.208C323.608 598.536 323.427 597.736 323.427 596.808C323.427 595.837 323.608 595.021 323.971 594.36C324.333 593.699 324.829 593.208 325.459 592.888C326.099 592.557 326.824 592.392 327.635 592.392C328.477 592.392 329.219 592.579 329.859 592.952C330.499 593.315 330.989 593.805 331.331 594.424C331.672 595.032 331.843 595.693 331.843 596.408C331.843 596.707 331.832 597.053 331.811 597.448H325.667C325.827 598.824 326.531 599.512 327.779 599.512C328.227 599.512 328.6 599.427 328.899 599.256C329.208 599.085 329.491 598.824 329.747 598.472L331.635 599.144ZM329.555 595.848C329.469 595.325 329.261 594.904 328.931 594.584C328.6 594.264 328.168 594.104 327.635 594.104C327.091 594.104 326.659 594.243 326.339 594.52C326.029 594.797 325.821 595.24 325.715 595.848H329.555ZM333.279 601V592.648H335.519V593.832C336.084 592.872 337.055 592.392 338.431 592.392C338.559 592.392 338.655 592.397 338.719 592.408L338.431 594.616C338.175 594.552 337.897 594.52 337.599 594.52C336.212 594.52 335.519 595.235 335.519 596.664V601H333.279Z" fill="#EEF1F4"/>
<path d="M267.518 316.576H271.918C273.006 316.576 273.956 316.8 274.766 317.248C275.588 317.696 276.222 318.352 276.67 319.216C277.129 320.069 277.358 321.093 277.358 322.288C277.358 323.515 277.124 324.555 276.654 325.408C276.196 326.261 275.556 326.907 274.734 327.344C273.924 327.781 272.985 328 271.918 328H267.518V316.576ZM271.918 325.92C272.9 325.92 273.652 325.621 274.174 325.024C274.697 324.427 274.958 323.515 274.958 322.288C274.958 321.115 274.702 320.219 274.19 319.6C273.678 318.971 272.921 318.656 271.918 318.656H269.918V325.92H271.918ZM286.713 326.144C286.404 326.784 285.913 327.296 285.241 327.68C284.569 328.064 283.774 328.256 282.857 328.256C281.993 328.256 281.23 328.085 280.569 327.744C279.918 327.392 279.412 326.88 279.049 326.208C278.686 325.536 278.505 324.736 278.505 323.808C278.505 322.837 278.686 322.021 279.049 321.36C279.412 320.699 279.908 320.208 280.537 319.888C281.177 319.557 281.902 319.392 282.713 319.392C283.556 319.392 284.297 319.579 284.937 319.952C285.577 320.315 286.068 320.805 286.409 321.424C286.75 322.032 286.921 322.693 286.921 323.408C286.921 323.707 286.91 324.053 286.889 324.448H280.745C280.905 325.824 281.609 326.512 282.857 326.512C283.305 326.512 283.678 326.427 283.977 326.256C284.286 326.085 284.569 325.824 284.825 325.472L286.713 326.144ZM284.633 322.848C284.548 322.325 284.34 321.904 284.009 321.584C283.678 321.264 283.246 321.104 282.713 321.104C282.169 321.104 281.737 321.243 281.417 321.52C281.108 321.797 280.9 322.24 280.793 322.848H284.633ZM293.046 321.248H291.11V328H288.87V321.248H287.574V319.648H288.87V318.944C288.87 318.453 288.998 317.995 289.254 317.568C289.521 317.141 289.878 316.8 290.326 316.544C290.785 316.288 291.297 316.16 291.862 316.16C292.534 316.16 293.201 316.341 293.862 316.704L292.998 318.208C292.667 318.08 292.363 318.016 292.086 318.016C291.766 318.016 291.521 318.107 291.35 318.288C291.19 318.459 291.11 318.677 291.11 318.944V319.648H293.046V321.248ZM294.576 328V319.648H296.816V328H294.576ZM296.816 316.576V318.496H294.576V316.576H296.816ZM298.607 328V319.648H300.847V320.672C301.38 319.819 302.223 319.392 303.375 319.392C304.111 319.392 304.682 319.536 305.087 319.824C305.503 320.101 305.786 320.501 305.935 321.024C306.095 321.547 306.175 322.208 306.175 323.008V328H303.935V323.008C303.935 322.389 303.85 321.947 303.679 321.68C303.519 321.403 303.194 321.264 302.703 321.264C302.159 321.264 301.711 321.413 301.359 321.712C301.018 322.011 300.847 322.443 300.847 323.008V328H298.607ZM307.966 328V319.648H310.206V328H307.966ZM310.206 316.576V318.496H307.966V316.576H310.206ZM311.998 328V319.648H314.238V320.832C314.803 319.872 315.774 319.392 317.15 319.392C317.278 319.392 317.374 319.397 317.438 319.408L317.15 321.616C316.894 321.552 316.616 321.52 316.318 321.52C314.931 321.52 314.238 322.235 314.238 323.664V328H311.998Z" fill="#EEF1F4"/>
<path d="M268.014 749.656H262.622V752.232H267.694V754.312H262.622V756.92H268.014V759H260.222V747.576H268.014V749.656ZM269.482 759V750.648H271.722V751.672C272.255 750.819 273.098 750.392 274.25 750.392C274.986 750.392 275.557 750.536 275.962 750.824C276.378 751.101 276.661 751.501 276.81 752.024C276.97 752.547 277.05 753.208 277.05 754.008V759H274.81V754.008C274.81 753.389 274.725 752.947 274.554 752.68C274.394 752.403 274.069 752.264 273.578 752.264C273.034 752.264 272.586 752.413 272.234 752.712C271.893 753.011 271.722 753.443 271.722 754.008V759H269.482ZM283.471 752.248H281.535V756.424C281.535 756.733 281.615 756.989 281.775 757.192C281.945 757.384 282.217 757.48 282.591 757.48C282.804 757.48 283.081 757.437 283.423 757.352L283.743 759C283.039 759.171 282.425 759.256 281.903 759.256C280.164 759.256 279.295 758.312 279.295 756.424V752.248H277.999V750.648H279.295V748.424H281.535V750.648H283.471V752.248ZM284.951 759V750.648H287.191V751.832C287.756 750.872 288.727 750.392 290.103 750.392C290.231 750.392 290.327 750.397 290.391 750.408L290.103 752.616C289.847 752.552 289.569 752.52 289.271 752.52C287.884 752.52 287.191 753.235 287.191 754.664V759H284.951ZM298.932 757.144C298.622 757.784 298.132 758.296 297.46 758.68C296.788 759.064 295.993 759.256 295.076 759.256C294.212 759.256 293.449 759.085 292.788 758.744C292.137 758.392 291.63 757.88 291.268 757.208C290.905 756.536 290.724 755.736 290.724 754.808C290.724 753.837 290.905 753.021 291.268 752.36C291.63 751.699 292.126 751.208 292.756 750.888C293.396 750.557 294.121 750.392 294.932 750.392C295.774 750.392 296.516 750.579 297.156 750.952C297.796 751.315 298.286 751.805 298.628 752.424C298.969 753.032 299.14 753.693 299.14 754.408C299.14 754.707 299.129 755.053 299.108 755.448H292.964C293.124 756.824 293.828 757.512 295.076 757.512C295.524 757.512 295.897 757.427 296.196 757.256C296.505 757.085 296.788 756.824 297.044 756.472L298.932 757.144ZM296.852 753.848C296.766 753.325 296.558 752.904 296.228 752.584C295.897 752.264 295.465 752.104 294.932 752.104C294.388 752.104 293.956 752.243 293.636 752.52C293.326 752.797 293.118 753.24 293.012 753.848H296.852ZM304.336 757.08C304.965 757.08 305.434 756.888 305.744 756.504C306.053 756.109 306.208 755.48 306.208 754.616C306.208 753.005 305.584 752.2 304.336 752.2C303.706 752.2 303.237 752.392 302.928 752.776C302.618 753.16 302.464 753.773 302.464 754.616C302.464 756.259 303.088 757.08 304.336 757.08ZM303.856 759C302.65 759 301.744 758.632 301.136 757.896C300.528 757.16 300.224 756.088 300.224 754.68C300.224 753.251 300.533 752.179 301.152 751.464C301.77 750.749 302.672 750.392 303.856 750.392C304.89 750.392 305.674 750.765 306.208 751.512V750.648H308.448V759C308.448 759.64 308.256 760.232 307.872 760.776C307.498 761.32 306.986 761.747 306.336 762.056C305.696 762.376 305.002 762.536 304.256 762.536C303.328 762.536 302.506 762.312 301.792 761.864C301.077 761.427 300.586 760.888 300.32 760.248L302.368 759.48C302.528 759.843 302.768 760.12 303.088 760.312C303.418 760.515 303.808 760.616 304.256 760.616C304.8 760.616 305.258 760.456 305.632 760.136C306.016 759.816 306.208 759.437 306.208 759V757.816C305.632 758.605 304.848 759 303.856 759ZM315.256 759V757.992C314.904 758.397 314.488 758.712 314.008 758.936C313.528 759.149 313.043 759.256 312.552 759.256C312.029 759.256 311.549 759.128 311.112 758.872C310.685 758.616 310.36 758.301 310.136 757.928C309.912 757.555 309.8 757.16 309.8 756.744C309.8 756.051 310.088 755.416 310.664 754.84C310.973 754.531 311.4 754.312 311.944 754.184C312.499 754.045 313.272 753.923 314.264 753.816C314.723 753.773 315.053 753.736 315.256 753.704C315.224 753.128 315.085 752.733 314.84 752.52C314.605 752.307 314.248 752.2 313.768 752.2C313.299 752.2 312.936 752.291 312.68 752.472C312.424 752.643 312.264 752.877 312.2 753.176L310.12 752.936C310.205 752.509 310.387 752.104 310.664 751.72C310.952 751.325 311.357 751.005 311.88 750.76C312.403 750.515 313.032 750.392 313.768 750.392C314.941 750.392 315.853 750.691 316.504 751.288C317.165 751.875 317.496 752.765 317.496 753.96V759H315.256ZM312.328 757.32C312.531 757.469 312.808 757.544 313.16 757.544C313.491 757.544 313.816 757.469 314.136 757.32C314.456 757.16 314.723 756.915 314.936 756.584C315.149 756.253 315.256 755.837 315.256 755.336V755.24L314.312 755.336C313.757 755.389 313.336 755.448 313.048 755.512C312.771 755.565 312.547 755.677 312.376 755.848C312.28 755.944 312.2 756.067 312.136 756.216C312.083 756.365 312.056 756.52 312.056 756.68C312.056 756.957 312.147 757.171 312.328 757.32ZM319.294 759V750.648H321.534V751.832C322.1 750.872 323.07 750.392 324.446 750.392C324.574 750.392 324.67 750.397 324.734 750.408L324.446 752.616C324.19 752.552 323.913 752.52 323.614 752.52C322.228 752.52 321.534 753.235 321.534 754.664V759H319.294Z" fill="#EEF1F4"/>
</svg>
