<svg width="280" height="139" viewBox="0 0 280 139" fill="none" xmlns="http://www.w3.org/2000/svg">
<g clip-path="url(#clip0_376_50)">
<path d="M47.8891 97.8998C56.0306 106.382 66.3544 111.954 78.0977 112.918C84.4968 113.409 90.9683 112.554 97.0919 110.645C110.4 106.623 122.349 98.8472 130.83 87.6969L131.139 91.0717C125.926 86.5926 120.158 82.8169 113.976 79.885C113.397 79.5879 112.699 79.3076 112.109 79.0525C111.062 78.6097 109.409 77.8725 108.323 77.5193C95.9897 72.771 82.7294 72.6757 69.6082 72.8187C46.823 73.3176 23.8346 70.5399 1.86212 64.4069L4.80978 62.0833C4.72071 68.945 5.63646 75.8347 7.50137 82.475C8.20836 84.9276 9.03504 87.4391 10.012 89.7964C11.6793 93.7794 13.7112 97.6503 16.0131 101.303C21.4881 110.208 29.1231 117.605 37.9967 123.054C56.8462 134.706 83.286 140.455 103.733 129.84C104.799 129.26 106.088 128.578 107.101 127.909C107.519 127.642 108.362 127.124 108.752 126.877C109.77 126.157 111.499 124.996 112.47 124.237C126.182 113.888 137.301 100.61 148.672 87.8147C154.929 81.0847 162.954 76.2299 171.424 72.8663C184.965 67.4622 199.575 67.0417 213.891 66.4335C220.969 66.2765 227.869 66.6045 234.883 66.0915C250.189 65.1497 265.337 61.7974 280.003 57.2173C280.003 66.5148 279.132 75.9272 276.234 84.8267C271.007 101.614 259.801 116.352 245.243 126.039C225.687 139.193 201.048 142.366 178.649 135.421C173.119 133.697 167.794 131.244 162.887 128.15C155.731 123.693 149.56 117.809 144.486 111.119L145.791 109.63C162.208 90.7942 187.072 82.3012 211.333 88.4117C219.04 90.2841 226.422 93.4767 233.041 97.8409L232.704 98.3987C208.48 84.6193 178.661 86.0011 157.392 104.613C154.506 107.091 151.853 109.835 149.432 112.767L149.465 109.67C156.365 117.908 165.281 124.332 175.27 128.127C190.237 133.714 207.099 134.215 222.369 129.512C244.403 122.779 262.681 104.834 269.662 82.7132C271.839 75.9468 273.002 68.8357 273.206 61.688L277.495 65.004C268.042 67.6976 258.364 69.8027 248.614 71.064C240.62 72.0983 232.528 72.586 224.468 72.4487C219.143 72.331 214.041 72.2357 208.78 72.4431C200.157 72.8103 191.423 73.071 182.978 74.8032C174.664 76.5074 166.614 79.6832 159.488 84.3362C155.92 86.6486 152.733 89.474 149.835 92.5825C146.835 95.8116 143.784 99.0827 140.722 102.253C132.074 111.169 123.064 119.948 112.857 127.082L110.619 128.57C110.433 128.693 110.249 128.822 110.057 128.937C109.219 129.445 108.006 130.159 107.168 130.667C88.4939 141.22 65.2772 138.229 46.3387 129.896C31.0381 123.09 19.022 113.092 10.4991 98.4688C3.34569 86.6766 -0.0473187 72.8607 -2.70171e-07 59.0701C13.2436 62.3159 26.6932 64.6732 40.243 65.9065C47.1988 66.5456 54.1601 66.8792 61.1494 66.9436C68.9291 67.0277 76.7728 66.8203 84.5692 67.238C103.452 68.0228 120.206 74.6574 134.34 87.3718L136.096 88.9471C126.427 101.631 113.369 110.073 98.0605 114.093C96.0926 114.611 93.9271 115.074 91.9147 115.379C85.1983 116.464 78.2341 116.158 71.6596 114.39C62.1236 111.825 53.6619 105.925 47.4075 98.3343L47.8891 97.897V97.8998Z" fill="#BE8110"/>
<g opacity="0.15">
<path d="M138.685 77.04L83.041 23.2227L99.7945 0H179.256L195.971 23.1639L138.685 77.0428V77.04ZM89.031 22.6874L138.729 70.7557L189.95 22.5836L176.949 4.56606H102.105L89.031 22.6902V22.6874Z" fill="#BE8110"/>
</g>
</g>
<defs>
<clipPath id="clip0_376_50">
<rect width="280" height="139" fill="white"/>
</clipPath>
</defs>
</svg>
