<svg width="176" height="147" viewBox="0 0 176 147" fill="none" xmlns="http://www.w3.org/2000/svg">
<g id="Camada_1" clip-path="url(#clip0_506_17)">
<path id="Vector" d="M23.7346 92.3854V37.535C23.7346 29.6036 22.6592 21.9174 20.6593 14.6273C21.6875 14.7876 22.7252 14.9857 23.7346 15.2026C42.7619 19.2013 59.0534 30.641 69.4114 46.3341C69.6189 46.6642 69.8359 46.9943 70.034 47.3149C76.1374 56.859 80.0712 67.9309 81.1183 79.8139H95.4477C96.4005 68.9683 99.7494 58.8112 104.966 49.8613C104.966 49.8613 104.966 49.8518 104.975 49.8518C105.975 47.645 107.315 45.5985 108.909 43.8066C108.909 43.7972 108.919 43.7972 108.919 43.7877C108.928 43.7877 108.928 43.7783 108.928 43.7783C119.314 29.415 134.823 18.9938 152.794 15.212C153.746 15.014 154.718 14.8253 155.69 14.665C154.143 20.2764 153.162 26.133 152.794 32.1405V93.3379H165.831V37.535C165.831 29.1698 167.236 21.1346 169.831 13.6559C171.434 8.99702 173.51 4.55505 175.991 0.386578C173.302 0.122512 170.566 -9.05478e-05 167.812 -9.05478e-05C167.142 -9.05478e-05 166.491 0.00934039 165.831 0.0282023C164.227 0.0564951 162.642 0.131943 161.067 0.263976C158.265 0.480887 155.52 0.820401 152.794 1.30138C128.653 5.52644 107.956 19.786 95.1553 39.6193C92.4856 43.7689 90.1461 48.1637 88.2122 52.7566C86.3161 48.2486 84.0332 43.9481 81.4296 39.8645C68.6661 19.9369 47.9408 5.59245 23.7346 1.32024C20.9611 0.829832 18.15 0.471456 15.2916 0.245114C13.5936 0.122512 11.8862 0.0470641 10.1693 0.00934039C9.65042 -0.00952148 9.13159 -0.00952148 8.60331 -0.00952148C5.69781 -9.05478e-05 2.83004 0.141373 0 0.424302C2.481 4.59278 4.55636 9.02532 6.16948 13.6842C8.76368 21.1535 10.1693 29.1792 10.1693 37.5256V93.3285H23.7346V92.3759V92.3854Z" fill="#504A67"/>
<path id="Vector_2" d="M10.8862 125.479C13.4804 135.344 21.5272 140.455 23.744 141.86C26.9137 143.869 29.706 144.822 30.8097 145.161C33.5737 146.019 36.5075 146.491 39.5545 146.491C46.0258 146.491 52.035 144.388 56.8838 140.832H56.8932C59.1572 138.814 61.2892 136.683 63.2891 134.41C63.2891 134.41 63.2891 134.41 63.2891 134.401C65.7512 131.43 66.7323 128.516 67.3832 126.497C68.8548 121.952 68.9114 118.17 68.9114 117.123C68.9114 109.512 66.0059 102.562 61.242 97.3464C60.4968 96.5164 59.7044 95.7431 58.8648 95.0358L50.0445 103.854L49.9785 103.92C52.5349 105.938 54.4877 108.673 55.5348 111.832C55.5348 111.832 56.431 114.52 56.3838 117.123C56.2706 123.63 50.12 134.316 39.5356 133.967C30.9417 133.684 23.6969 126.262 23.7157 117.123C23.7157 109.201 23.7157 101.27 23.7157 93.3477H10.1504V117.123C9.85798 120.82 10.3957 123.706 10.8674 125.488L10.8862 125.479Z" fill="#EADDDA"/>
<path id="Vector_3" d="M152.803 117.113C152.803 126.422 145.256 133.957 135.945 133.957C126.634 133.957 119.097 126.422 119.097 117.113C119.097 111.719 121.635 106.918 125.587 103.835L125.512 103.759L116.767 95.0166C115.842 95.8182 114.975 96.6764 114.173 97.5818H114.163C109.447 102.825 106.569 109.767 106.569 117.377C106.569 121.461 107.399 125.356 108.899 128.883C108.909 128.883 108.909 128.893 108.909 128.893C111.824 135.805 117.295 141.379 124.125 144.435C127.813 146.085 131.898 147 136.209 147C142.36 147 148.067 145.133 152.803 141.917C160.67 136.588 165.84 127.591 165.84 117.377V93.3379H152.803V117.113Z" fill="#EADDDA"/>
</g>
<defs>
<clipPath id="clip0_506_17">
<rect width="176" height="147" fill="white"/>
</clipPath>
</defs>
</svg>
