<svg width="107" height="33" viewBox="0 0 107 33" fill="none" xmlns="http://www.w3.org/2000/svg">
<g id="Logo Visage" clip-path="url(#clip0_39_144)">
<g id="VISAGE">
<path id="Vector" d="M0.680969 0H5.14224L10.3369 13.988L15.5024 0H19.9636L12.2852 19.9351H8.36164L0.680969 0Z" fill="#74797F"/>
<path id="Vector_2" d="M23.1965 19.9351V0H27.4306V19.9351H23.1965Z" fill="#74797F"/>
<path id="Vector_3" d="M36.0539 15.7501C36.9156 16.2485 37.8492 16.4954 38.8571 16.4954C39.9707 16.4954 40.8549 16.3086 41.5118 15.9348C42.1665 15.561 42.495 14.9669 42.495 14.1482C42.495 13.5452 42.3735 13.0869 42.1305 12.7754C41.8875 12.4639 41.5253 12.2281 41.0394 12.0701C40.5534 11.9099 39.8088 11.7497 38.8031 11.5895C37.2035 11.3226 35.9009 11.02 34.8953 10.684C33.8896 10.3458 33.0482 9.79627 32.3756 9.0309C31.7029 8.26776 31.3654 7.21093 31.3654 5.86042C31.3654 4.83029 31.6849 3.86691 32.3216 2.96805C32.9582 2.07141 33.8491 1.35054 34.9898 0.809892C36.1304 0.267016 37.4195 -0.00219727 38.8571 -0.00219727C40.2947 -0.00219727 41.4398 0.255891 42.5085 0.769844C43.5771 1.28602 44.4478 1.94682 45.1227 2.75446C45.7954 3.56209 46.2678 4.42091 46.5378 5.32644L42.6569 6.39217C42.423 5.54003 41.9843 4.83251 41.3363 4.27406C40.6884 3.71339 39.8627 3.43528 38.8571 3.43528C38.1574 3.43528 37.5455 3.55542 37.0258 3.79571C36.5039 4.036 36.1057 4.33414 35.8267 4.6879C35.5477 5.04388 35.4082 5.39764 35.4082 5.75362C35.4082 6.2342 35.5297 6.59686 35.7727 6.84605C36.0157 7.09524 36.3531 7.27768 36.7828 7.39337C37.2148 7.50907 37.8875 7.64701 38.8031 7.80721L39.451 7.914C40.9066 8.16319 42.1463 8.49693 43.1699 8.91298C44.1935 9.33126 45.0102 9.95646 45.6221 10.793C46.2318 11.6274 46.5378 12.7109 46.5378 14.0436C46.5378 15.3763 46.1823 16.4554 45.4736 17.3342C44.7627 18.2131 43.8291 18.8672 42.6704 19.2921C41.5118 19.7193 40.2407 19.9307 38.8571 19.9307C37.1135 19.9307 35.4667 19.5258 33.9121 18.7181C32.3576 17.9105 31.2754 16.422 30.6657 14.255L34.3036 13.2693C34.6096 14.4241 35.1923 15.2517 36.0562 15.7479L36.0539 15.7501Z" fill="#74797F"/>
<path id="Vector_4" d="M49.7707 19.9351L57.1679 0H61.6561L69.0534 19.9351H64.5921L63.0667 15.4964H55.755L54.2297 19.9351H49.7684H49.7707ZM61.9104 12.1457L59.4266 4.83026L56.9137 12.1457H61.9104Z" fill="#74797F"/>
<path id="Vector_5" d="M81.2605 8.55472H89.9919V14.1259C89.3979 15.9392 88.3518 17.3587 86.8512 18.391C85.3506 19.4211 83.5508 19.9373 81.4473 19.9373C79.5777 19.9373 77.9534 19.5368 76.5698 18.7381C75.1862 17.9394 74.1266 16.7891 73.3909 15.2873C72.653 13.7855 72.2863 12.0144 72.2863 9.96976C72.2863 7.92507 72.6552 6.15405 73.3909 4.65224C74.1266 3.15043 75.1862 2.00016 76.5698 1.20142C77.9534 0.40268 79.5777 0.00219727 81.4473 0.00219727C83.4765 0.00219727 85.2291 0.482776 86.7027 1.44171C88.1763 2.40064 89.2269 3.74226 89.8546 5.46656L86.0818 6.63908C85.6678 5.53775 85.0851 4.73456 84.3292 4.22729C83.5755 3.72001 82.6126 3.46859 81.445 3.46859C79.7554 3.46859 78.4798 4.02037 77.6182 5.1217C76.7565 6.22302 76.3246 7.84053 76.3246 9.97198C76.3246 12.1034 76.7565 13.7209 77.6182 14.8223C78.4798 15.9236 79.7554 16.4754 81.445 16.4754C82.6666 16.4754 83.7308 16.1861 84.6374 15.6099C85.5441 15.0336 86.1515 14.1214 86.4575 12.8777V11.7586H81.256V8.56139L81.2605 8.55472Z" fill="#74797F"/>
<path id="Vector_6" d="M107 3.62881H97.4858V8.12311H106.435V11.7519H97.4858V16.3019H107V19.9307H93.2518V0H107V3.62881Z" fill="#74797F"/>
</g>
<g id="SLOGAN">
<path id="Vector_7" d="M0.680969 29.5778V26.5587H0.964439V29.5778C0.964439 30.2787 1.37614 30.7415 2.00158 30.7415C2.62701 30.7415 3.03871 30.2787 3.03871 29.5778V26.5587H3.32218V29.5778C3.32218 30.4344 2.79799 31.0018 2.00158 31.0018C1.20516 31.0018 0.680969 30.4322 0.680969 29.5778Z" fill="#74797F"/>
<path id="Vector_8" d="M4.33908 27.9092H4.62255V28.4409C4.84303 28.0227 5.25473 27.8402 5.63269 27.8402C6.17038 27.8402 6.54384 28.1161 6.70133 28.5833C6.89031 28.0961 7.35826 27.8402 7.8397 27.8402C8.57987 27.8402 9.00958 28.3275 9.00958 29.1396V30.9328H8.73736V29.1774C8.73736 28.5077 8.40889 28.0894 7.80821 28.0894C7.36051 28.0894 6.80931 28.3831 6.80931 29.1774V30.9328H6.53709V29.1774C6.53709 28.5032 6.19063 28.0894 5.58995 28.0894C5.14674 28.0894 4.6113 28.3697 4.6113 29.1885V30.9328H4.33908V27.907V27.9092Z" fill="#74797F"/>
<path id="Vector_9" d="M9.81948 30.1474C9.81948 29.5422 10.3504 29.1662 11.2593 29.1662H12.049V29.0172C12.049 28.4298 11.6958 28.0738 11.0951 28.0738C10.6024 28.0738 10.1727 28.4187 10.1479 28.8614H9.86897C9.89372 28.2874 10.4382 27.8424 11.1018 27.8424C11.8668 27.8424 12.328 28.2918 12.328 29.0305V30.9372H12.0557V30.2942C11.842 30.7125 11.3921 31.0062 10.8544 31.0062C10.2087 31.0062 9.81723 30.6569 9.81723 30.1496L9.81948 30.1474ZM10.8679 30.7704C11.5563 30.7704 12.0557 30.2386 12.0557 29.609V29.3843H11.2728C10.5214 29.3843 10.0917 29.6646 10.0917 30.1407C10.0917 30.5101 10.3752 30.7726 10.8701 30.7726L10.8679 30.7704Z" fill="#74797F"/>
<path id="Vector_10" d="M14.9557 27.9092H15.2279V28.4587C15.4439 28.0827 15.8286 27.8402 16.3078 27.8402C17.0345 27.8402 17.5204 28.3475 17.5204 29.1663V30.935H17.2482V29.1729C17.2482 28.5544 16.8882 28.0916 16.256 28.0916C15.6239 28.0916 15.2324 28.5166 15.2324 29.1863V30.9373H14.9534V27.9114L14.9557 27.9092Z" fill="#74797F"/>
<path id="Vector_11" d="M18.2786 29.4221C18.2786 28.5411 18.9805 27.8402 19.8579 27.8402C20.7353 27.8402 21.444 28.5411 21.444 29.4221C21.444 30.3032 20.7353 31.004 19.8579 31.004C18.9805 31.004 18.2786 30.3165 18.2786 29.4221ZM19.8601 30.7526C20.5868 30.7526 21.174 30.1652 21.174 29.4221C21.174 28.679 20.5868 28.0916 19.8601 28.0916C19.1335 28.0916 18.5508 28.679 18.5508 29.4221C18.5508 30.1652 19.12 30.7526 19.8601 30.7526Z" fill="#74797F"/>
<path id="Vector_12" d="M21.7679 27.9092H22.0784L23.2168 30.5835L24.3552 27.9092H24.6589L23.3518 30.935H23.0728L21.7702 27.9092H21.7679Z" fill="#74797F"/>
<path id="Vector_13" d="M25.0211 30.1474C25.0211 29.5422 25.5521 29.1662 26.461 29.1662H27.2506V29.0172C27.2506 28.4298 26.8974 28.0738 26.2967 28.0738C25.804 28.0738 25.3743 28.4187 25.3496 28.8614H25.0706C25.0954 28.2874 25.6398 27.8424 26.3035 27.8424C27.0684 27.8424 27.5296 28.2918 27.5296 29.0305V30.9372H27.2574V30.2942C27.0436 30.7125 26.5937 31.0062 26.056 31.0062C25.4103 31.0062 25.0189 30.6569 25.0189 30.1496L25.0211 30.1474ZM26.0717 30.7704C26.7602 30.7704 27.2596 30.2386 27.2596 29.609V29.3843H26.4767C25.7253 29.3843 25.2956 29.6646 25.2956 30.1407C25.2956 30.5101 25.579 30.7726 26.074 30.7726L26.0717 30.7704Z" fill="#74797F"/>
<path id="Vector_14" d="M30.1595 27.9092H30.4385V28.6278C30.6792 28.1406 31.1832 27.8402 31.7839 27.8402C32.668 27.8402 33.3565 28.521 33.3565 29.4221C33.3565 30.3232 32.668 31.004 31.7839 31.004C31.1832 31.004 30.677 30.7037 30.4385 30.2164V32.1098H30.1595V27.9092ZM31.7704 30.7459C32.515 30.7459 33.0842 30.1586 33.0842 29.4199C33.0842 28.6812 32.515 28.0961 31.7704 28.0961C31.0257 28.0961 30.4363 28.6389 30.4363 29.4199C30.4363 30.2008 30.9987 30.7459 31.7704 30.7459Z" fill="#74797F"/>
<path id="Vector_15" d="M33.9257 29.4288C33.9257 28.5032 34.6523 27.8424 35.4735 27.8424C36.2946 27.8424 36.9201 28.4743 36.9201 29.293C36.9201 29.3242 36.9133 29.3553 36.9133 29.3932H34.1956V29.431C34.1956 30.1941 34.7446 30.7615 35.4915 30.7615C36.0292 30.7615 36.5151 30.4745 36.6096 30.0184H36.8931C36.7603 30.6057 36.1799 31.0062 35.4712 31.0062C34.5286 31.0062 33.9234 30.2631 33.9234 29.431L33.9257 29.4288ZM36.6434 29.1595C36.6051 28.5544 36.1124 28.0782 35.4735 28.0782C34.8728 28.0782 34.3351 28.5099 34.2226 29.1595H36.6434Z" fill="#74797F"/>
<path id="Vector_16" d="M37.9887 28.372C38.1462 28.0716 38.4252 27.9092 38.8031 27.9092H39.1451V28.1472H38.7986C38.2924 28.1472 37.9887 28.4721 37.9887 29.0216V30.935H37.7165V27.9092H37.9887V28.372Z" fill="#74797F"/>
<path id="Vector_17" d="M39.4173 30.0517H39.6895C39.7345 30.5012 40.081 30.7704 40.5624 30.7704C41.0439 30.7704 41.4038 30.5012 41.4038 30.114C41.4038 29.1328 39.496 29.7647 39.496 28.6634C39.496 28.1005 39.982 27.838 40.5062 27.838C41.0934 27.838 41.5298 28.1494 41.5861 28.6812H41.3138C41.2576 28.3252 40.9674 28.0627 40.5107 28.0627C40.1372 28.0627 39.7525 28.2318 39.7525 28.6367C39.7525 29.5311 41.6671 28.8748 41.6671 30.0873C41.6671 30.6191 41.2059 30.9995 40.5602 30.9995C39.9145 30.9995 39.4735 30.6502 39.4173 30.0495V30.0517Z" fill="#74797F"/>
<path id="Vector_18" d="M42.4635 27.9092H42.7424V28.6278C42.9832 28.1406 43.4871 27.8402 44.0878 27.8402C44.972 27.8402 45.6604 28.521 45.6604 29.4221C45.6604 30.3232 44.972 31.004 44.0878 31.004C43.4871 31.004 42.9809 30.7037 42.7424 30.2164V32.1098H42.4635V27.9092ZM44.0743 30.7459C44.819 30.7459 45.3882 30.1586 45.3882 29.4199C45.3882 28.6812 44.819 28.0961 44.0743 28.0961C43.3296 28.0961 42.7402 28.6389 42.7402 29.4199C42.7402 30.2008 43.3026 30.7459 44.0743 30.7459Z" fill="#74797F"/>
<path id="Vector_19" d="M46.2295 29.4288C46.2295 28.5032 46.9562 27.8424 47.7774 27.8424C48.5985 27.8424 49.224 28.4743 49.224 29.293C49.224 29.3242 49.2172 29.3553 49.2172 29.3932H46.4995V29.431C46.4995 30.1941 47.0485 30.7615 47.7954 30.7615C48.3331 30.7615 48.819 30.4745 48.9135 30.0184H49.197C49.0642 30.6057 48.4838 31.0062 47.7751 31.0062C46.8325 31.0062 46.2273 30.2631 46.2273 29.431L46.2295 29.4288ZM48.9473 29.1595C48.909 28.5544 48.4163 28.0782 47.7774 28.0782C47.1767 28.0782 46.639 28.5099 46.5265 29.1595H48.9473Z" fill="#74797F"/>
<path id="Vector_20" d="M49.7797 29.4221C49.7797 28.5411 50.4816 27.8402 51.359 27.8402C52.016 27.8402 52.6099 28.2652 52.7314 28.8347H52.4524C52.3377 28.4031 51.8765 28.0916 51.3523 28.0916C50.6189 28.0916 50.0497 28.679 50.0497 29.4221C50.0497 30.1652 50.6189 30.7482 51.3523 30.7482C51.8652 30.7482 52.3444 30.4478 52.4524 29.985H52.7314C52.6234 30.5969 52.0115 31.004 51.359 31.004C50.4816 31.004 49.7797 30.3165 49.7797 29.4221Z" fill="#74797F"/>
<path id="Vector_21" d="M53.0351 27.9092H53.674V27.0593H53.9462V27.9092H54.9069V28.1472H53.9462V30.0651C53.9462 30.4901 54.1622 30.6903 54.5716 30.6903H54.9069V30.935H54.5537C53.9597 30.935 53.6762 30.6592 53.6762 30.0718V28.1472H53.0373V27.9092H53.0351Z" fill="#74797F"/>
<path id="Vector_22" d="M55.5301 26.5587H55.872V27.1394H55.5301V26.5587ZM55.8405 27.9092V30.935H55.5683V27.9092H55.8405Z" fill="#74797F"/>
<path id="Vector_23" d="M56.4772 27.9092H56.7877L57.926 30.5835L59.0644 27.9092H59.3681L58.061 30.935H57.7821L56.4795 27.9092H56.4772Z" fill="#74797F"/>
<path id="Vector_24" d="M59.7326 30.1474C59.7326 29.5422 60.2635 29.1662 61.1747 29.1662H61.9644V29.0172C61.9644 28.4298 61.6112 28.0738 61.0105 28.0738C60.5178 28.0738 60.0881 28.4187 60.0633 28.8614H59.7843C59.8091 28.2874 60.3535 27.8424 61.0172 27.8424C61.7821 27.8424 62.2433 28.2918 62.2433 29.0305V30.9372H61.9711V30.2942C61.7551 30.7125 61.3074 31.0062 60.7697 31.0062C60.1241 31.0062 59.7326 30.6569 59.7326 30.1496V30.1474ZM60.781 30.7704C61.4694 30.7704 61.9689 30.2386 61.9689 29.609V29.3843H61.1859C60.4345 29.3843 60.0048 29.6646 60.0048 30.1407C60.0048 30.5101 60.2883 30.7726 60.781 30.7726V30.7704Z" fill="#74797F"/>
<path id="Vector_25" d="M64.8711 27.9092H65.15V28.6278C65.3908 28.1406 65.897 27.8402 66.4954 27.8402C67.3795 27.8402 68.068 28.521 68.068 29.4221C68.068 30.3232 67.3795 31.004 66.4954 31.004C65.8947 31.004 65.3885 30.7037 65.15 30.2164V32.1098H64.8711V27.9092ZM66.4819 30.7459C67.2266 30.7459 67.7957 30.1586 67.7957 29.4199C67.7957 28.6812 67.2266 28.0961 66.4819 28.0961C65.7372 28.0961 65.1478 28.6389 65.1478 29.4199C65.1478 30.2008 65.7102 30.7459 66.4819 30.7459Z" fill="#74797F"/>
<path id="Vector_26" d="M68.6799 30.1474C68.6799 29.5422 69.2108 29.1662 70.1197 29.1662H70.9094V29.0172C70.9094 28.4298 70.5562 28.0738 69.9555 28.0738C69.4628 28.0738 69.0331 28.4187 69.0084 28.8614H68.7294C68.7541 28.2874 69.2986 27.8424 69.9623 27.8424C70.7272 27.8424 71.1884 28.2918 71.1884 29.0305V30.9372H70.9162V30.2942C70.7024 30.7125 70.2525 31.0062 69.7148 31.0062C69.0691 31.0062 68.6776 30.6569 68.6776 30.1496L68.6799 30.1474ZM69.7305 30.7704C70.419 30.7704 70.9184 30.2386 70.9184 29.609V29.3843H70.1355C69.3841 29.3843 68.9544 29.6646 68.9544 30.1407C68.9544 30.5101 69.2378 30.7726 69.7328 30.7726L69.7305 30.7704Z" fill="#74797F"/>
<path id="Vector_27" d="M72.4662 28.372C72.6237 28.0716 72.9027 27.9092 73.2807 27.9092H73.6226V28.1472H73.2762C72.77 28.1472 72.4662 28.4721 72.4662 29.0216V30.935H72.194V27.9092H72.4662V28.372Z" fill="#74797F"/>
<path id="Vector_28" d="M73.9061 30.1474C73.9061 29.5422 74.437 29.1662 75.3459 29.1662H76.1356V29.0172C76.1356 28.4298 75.7824 28.0738 75.1817 28.0738C74.689 28.0738 74.2593 28.4187 74.2346 28.8614H73.9556C73.9803 28.2874 74.5248 27.8424 75.1884 27.8424C75.9534 27.8424 76.4146 28.2918 76.4146 29.0305V30.9372H76.1424V30.2942C75.9286 30.7125 75.4787 31.0062 74.941 31.0062C74.2953 31.0062 73.9038 30.6569 73.9038 30.1496L73.9061 30.1474ZM74.9545 30.7704C75.6429 30.7704 76.1424 30.2386 76.1424 29.609V29.3843H75.3594C74.608 29.3843 74.1783 29.6646 74.1783 30.1407C74.1783 30.5101 74.4618 30.7726 74.9567 30.7726L74.9545 30.7704Z" fill="#74797F"/>
<path id="Vector_29" d="M78.7903 30.0517H79.0625C79.1075 30.5012 79.454 30.7704 79.9354 30.7704C80.4169 30.7704 80.7768 30.5012 80.7768 30.114C80.7768 29.1328 78.869 29.7647 78.869 28.6634C78.869 28.1005 79.355 27.838 79.8792 27.838C80.4664 27.838 80.9028 28.1494 80.959 28.6812H80.6868C80.6306 28.3252 80.3404 28.0627 79.8837 28.0627C79.5102 28.0627 79.1255 28.2318 79.1255 28.6367C79.1255 29.5311 81.04 28.8748 81.04 30.0873C81.04 30.6191 80.5788 30.9995 79.9332 30.9995C79.2875 30.9995 78.8465 30.6502 78.7903 30.0495V30.0517Z" fill="#74797F"/>
<path id="Vector_30" d="M84.3584 30.935H84.0862V30.3855C83.8725 30.7615 83.4855 31.004 83.0063 31.004C82.2796 31.004 81.7937 30.4989 81.7937 29.6779V27.9091H82.0659V29.6713C82.0659 30.2898 82.4259 30.7526 83.0581 30.7526C83.6902 30.7526 84.0817 30.3276 84.0817 29.6579V27.9069H84.3607V30.9328L84.3584 30.935Z" fill="#74797F"/>
<path id="Vector_31" d="M85.2044 30.1474C85.2044 29.5422 85.7353 29.1662 86.6442 29.1662H87.4339V29.0172C87.4339 28.4298 87.0807 28.0738 86.48 28.0738C85.9873 28.0738 85.5576 28.4187 85.5328 28.8614H85.2539C85.2786 28.2874 85.823 27.8424 86.4867 27.8424C87.2516 27.8424 87.7128 28.2918 87.7128 29.0305V30.9372H87.4406V30.2942C87.2269 30.7125 86.7769 31.0062 86.2393 31.0062C85.5936 31.0062 85.2021 30.6569 85.2021 30.1496L85.2044 30.1474ZM86.255 30.7704C86.9434 30.7704 87.4429 30.2386 87.4429 29.609V29.3843H86.66C85.9085 29.3843 85.4788 29.6646 85.4788 30.1407C85.4788 30.5101 85.7623 30.7726 86.2573 30.7726L86.255 30.7704Z" fill="#74797F"/>
<path id="Vector_32" d="M90.3495 27.9092H90.633V28.4409C90.8535 28.0227 91.2652 27.8402 91.6432 27.8402C92.1809 27.8402 92.5543 28.1161 92.7118 28.5833C92.9008 28.0961 93.3687 27.8402 93.8502 27.8402C94.5903 27.8402 95.02 28.3275 95.02 29.1396V30.9328H94.7478V29.1774C94.7478 28.5077 94.4194 28.0894 93.8187 28.0894C93.371 28.0894 92.8198 28.3831 92.8198 29.1774V30.9328H92.5476V29.1774C92.5476 28.5032 92.2011 28.0894 91.6004 28.0894C91.1572 28.0894 90.6218 28.3697 90.6218 29.1885V30.9328H90.3495V27.907V27.9092Z" fill="#74797F"/>
<path id="Vector_33" d="M95.8277 30.1474C95.8277 29.5422 96.3586 29.1662 97.2698 29.1662H98.0595V29.0172C98.0595 28.4298 97.7062 28.0738 97.1056 28.0738C96.6129 28.0738 96.1832 28.4187 96.1584 28.8614H95.8794C95.9042 28.2874 96.4486 27.8424 97.1123 27.8424C97.8772 27.8424 98.3384 28.2918 98.3384 29.0305V30.9372H98.0662V30.2942C97.8502 30.7125 97.4025 31.0062 96.8648 31.0062C96.2192 31.0062 95.8277 30.6569 95.8277 30.1496V30.1474ZM96.8761 30.7704C97.5645 30.7704 98.064 30.2386 98.064 29.609V29.3843H97.281C96.5296 29.3843 96.0999 29.6646 96.0999 30.1407C96.0999 30.5101 96.3834 30.7726 96.8761 30.7726V30.7704Z" fill="#74797F"/>
<path id="Vector_34" d="M99.6118 28.372C99.7693 28.0716 100.048 27.9092 100.426 27.9092H100.768V28.1472H100.422C99.9155 28.1472 99.6118 28.4721 99.6118 29.0216V30.935H99.3396V27.9092H99.6118V28.372Z" fill="#74797F"/>
<path id="Vector_35" d="M100.959 29.4221C100.959 28.5411 101.661 27.8402 102.539 27.8402C103.196 27.8402 103.79 28.2652 103.911 28.8347H103.632C103.517 28.4031 103.056 28.0916 102.532 28.0916C101.799 28.0916 101.229 28.679 101.229 29.4221C101.229 30.1652 101.799 30.7482 102.532 30.7482C103.045 30.7482 103.524 30.4478 103.632 29.985H103.911C103.803 30.5969 103.191 31.004 102.539 31.004C101.661 31.004 100.959 30.3165 100.959 29.4221Z" fill="#74797F"/>
<path id="Vector_36" d="M104.492 30.1474C104.492 29.5422 105.022 29.1662 105.931 29.1662H106.721V29.0172C106.721 28.4298 106.368 28.0738 105.767 28.0738C105.274 28.0738 104.845 28.4187 104.82 28.8614H104.541C104.566 28.2874 105.11 27.8424 105.774 27.8424C106.539 27.8424 107 28.2918 107 29.0305V30.9372H106.728V30.2942C106.514 30.7125 106.064 31.0062 105.526 31.0062C104.881 31.0062 104.489 30.6569 104.489 30.1496L104.492 30.1474ZM105.54 30.7704C106.228 30.7704 106.728 30.2386 106.728 29.609V29.3843H105.945C105.193 29.3843 104.764 29.6646 104.764 30.1407C104.764 30.5101 105.047 30.7726 105.542 30.7726L105.54 30.7704Z" fill="#74797F"/>
</g>
</g>
<defs>
<clipPath id="clip0_39_144">
<rect width="106.319" height="32.1098" fill="white" transform="translate(0.680969)"/>
</clipPath>
</defs>
</svg>
