<svg width="79" height="33" viewBox="0 0 79 33" fill="none" xmlns="http://www.w3.org/2000/svg">
<g id="Logo Vivir" clip-path="url(#clip0_39_95)">
<g id="semijoias">
<path id="Vector" d="M20.0927 32.1098C19.8348 32.1098 19.6009 32.0674 19.3946 31.9827C19.1882 31.898 19.0169 31.7801 18.8825 31.6254C18.7461 31.4707 18.6559 31.2883 18.6098 31.0784L18.8327 31.036C18.9027 31.2975 19.0482 31.5057 19.273 31.6585C19.4977 31.8114 19.7703 31.8869 20.0909 31.8869C20.3138 31.8869 20.509 31.8519 20.6748 31.7801C20.8406 31.7101 20.9714 31.6088 21.0635 31.4817C21.1556 31.3528 21.2017 31.2036 21.2017 31.0323C21.2017 30.9034 21.1777 30.7947 21.1298 30.7082C21.0819 30.6216 21.0211 30.5516 20.9475 30.4964C20.8738 30.4429 20.7982 30.3987 20.7172 30.3674C20.638 30.3361 20.5661 30.3103 20.5054 30.2938L19.5493 30.0064C19.4111 29.9659 19.2914 29.9162 19.1919 29.8573C19.0925 29.7983 19.0096 29.732 18.9469 29.6583C18.8825 29.5847 18.8364 29.5018 18.8051 29.4134C18.7738 29.325 18.759 29.2292 18.759 29.1298C18.759 28.9345 18.8124 28.7614 18.9174 28.6104C19.0225 28.4593 19.1698 28.3396 19.3577 28.2549C19.5456 28.1683 19.763 28.126 20.008 28.126C20.253 28.126 20.4814 28.172 20.6804 28.2641C20.8793 28.3562 21.0414 28.4851 21.1685 28.6527C21.2956 28.8203 21.3748 29.0156 21.4061 29.2421L21.1832 29.2845C21.1593 29.0984 21.093 28.9345 20.9861 28.7945C20.8793 28.6546 20.743 28.5441 20.5735 28.4667C20.4059 28.3894 20.2161 28.3507 20.008 28.3507C19.7998 28.3507 19.6322 28.3857 19.4811 28.4538C19.3301 28.5238 19.2122 28.6159 19.1256 28.7319C19.0409 28.848 18.9985 28.9806 18.9985 29.1242C18.9985 29.2771 19.039 29.3987 19.1219 29.4889C19.2048 29.581 19.3043 29.651 19.424 29.7007C19.5419 29.7504 19.6561 29.7928 19.7648 29.8241L20.5569 30.0635C20.6251 30.0838 20.7061 30.1114 20.8038 30.1501C20.9014 30.1888 20.9972 30.2422 21.093 30.314C21.1869 30.384 21.2661 30.4779 21.3288 30.594C21.3914 30.71 21.4227 30.8555 21.4227 31.0305C21.4227 31.1944 21.3914 31.3436 21.3306 31.4762C21.268 31.6088 21.1796 31.723 21.0617 31.8169C20.9456 31.9109 20.8056 31.9827 20.6417 32.0343C20.4796 32.084 20.2953 32.1098 20.0946 32.1098H20.0927Z" fill="#74797F"/>
<path id="Vector_2" d="M24.0791 32.0306V28.2052H26.4167V28.4281H24.3019V30.0065H26.098V30.2293H24.3019V31.8077H26.4167V32.0306H24.0791Z" fill="#74797F"/>
<path id="Vector_3" d="M29.1799 32.0306V28.2052H29.3917L31.0183 31.7599L32.6283 28.2052H32.8512V32.0251H32.6283V28.7412L31.1399 32.0306H30.8893L29.4009 28.7412V32.0306H29.178H29.1799Z" fill="#74797F"/>
<path id="Vector_4" d="M35.7746 32.0306V28.2052H35.9975V32.0306H35.7746Z" fill="#74797F"/>
<path id="Vector_5" d="M39.5012 32.1043C39.271 32.1043 39.0683 32.0361 38.8933 31.9017C38.7183 31.7672 38.6041 31.5886 38.5507 31.3657L38.7791 31.3123C38.8196 31.4725 38.9062 31.6088 39.037 31.7175C39.1678 31.8262 39.3262 31.8814 39.5123 31.8814C39.6265 31.8814 39.7425 31.8556 39.8586 31.8022C39.9728 31.7488 40.0667 31.6604 40.1349 31.537C40.1828 31.4486 40.2104 31.3547 40.2178 31.2589C40.2252 31.1613 40.2289 31.0434 40.2289 30.9053V28.2052H40.4518V30.9053C40.4518 31.0029 40.4517 31.0931 40.4499 31.1779C40.4499 31.2626 40.4389 31.3436 40.4223 31.421C40.4057 31.4983 40.3744 31.5775 40.3302 31.6549C40.2454 31.8041 40.1294 31.9164 39.9839 31.9919C39.8383 32.0674 39.6762 32.1061 39.5012 32.1061V32.1043Z" fill="#74797F"/>
<path id="Vector_6" d="M44.8839 32.1098C44.5026 32.1098 44.1857 32.025 43.9315 31.8538C43.6773 31.6843 43.4857 31.4486 43.3586 31.1502C43.2315 30.85 43.167 30.5056 43.167 30.117C43.167 29.7283 43.2315 29.3821 43.3586 29.0837C43.4857 28.7835 43.6773 28.5496 43.9315 28.3801C44.1857 28.2107 44.5026 28.126 44.8839 28.126C45.2652 28.126 45.582 28.2107 45.8362 28.3801C46.0905 28.5496 46.282 28.7853 46.4091 29.0837C46.5362 29.3839 46.6007 29.7283 46.6007 30.117C46.6007 30.5056 46.5362 30.8518 46.4091 31.1502C46.282 31.4504 46.0905 31.6843 45.8362 31.8538C45.582 32.0232 45.2652 32.1098 44.8839 32.1098ZM44.8839 31.8869C45.2118 31.8869 45.4844 31.8114 45.7036 31.6604C45.9228 31.5093 46.0868 31.3012 46.1973 31.0342C46.3078 30.7671 46.3612 30.4632 46.3612 30.117C46.3612 29.7707 46.306 29.465 46.1973 29.1997C46.0868 28.9327 45.9228 28.7246 45.7036 28.5735C45.4844 28.4225 45.2118 28.347 44.8839 28.347C44.556 28.347 44.2833 28.4225 44.0678 28.5735C43.8504 28.7246 43.6865 28.9327 43.5778 29.1997C43.4673 29.4668 43.412 29.7725 43.4083 30.117C43.4047 30.4632 43.4581 30.7671 43.5686 31.0342C43.6791 31.3012 43.8431 31.5093 44.0641 31.6604C44.2852 31.8114 44.5597 31.8869 44.8857 31.8869H44.8839Z" fill="#74797F"/>
<path id="Vector_7" d="M49.3105 32.0306V28.2052H49.5333V32.0306H49.3105Z" fill="#74797F"/>
<path id="Vector_8" d="M52.1915 32.0306L53.5842 28.2052H53.8236L55.2163 32.0306H54.9768L53.621 28.3065H53.7813L52.431 32.0306H52.1915ZM52.7221 31.036V30.8242H54.6784V31.036H52.7221Z" fill="#74797F"/>
<path id="Vector_9" d="M58.9834 32.1098C58.7255 32.1098 58.4915 32.0674 58.2852 31.9827C58.0789 31.898 57.9076 31.7801 57.7731 31.6254C57.6368 31.4707 57.5465 31.2883 57.5005 31.0784L57.7234 31.036C57.7915 31.2975 57.9389 31.5057 58.1636 31.6585C58.3884 31.8114 58.661 31.8869 58.9815 31.8869C59.2044 31.8869 59.3997 31.8519 59.5655 31.7801C59.7313 31.7101 59.8621 31.6088 59.9542 31.4817C60.0463 31.3528 60.0923 31.2036 60.0923 31.0323C60.0923 30.9034 60.0684 30.7947 60.0205 30.7082C59.9726 30.6216 59.9118 30.5516 59.8381 30.4964C59.7644 30.4429 59.6871 30.3987 59.6079 30.3674C59.5287 30.3361 59.4568 30.3103 59.396 30.2938L58.44 30.0064C58.3018 29.9659 58.1821 29.9162 58.0826 29.8573C57.9831 29.7983 57.9002 29.732 57.8376 29.6583C57.7731 29.5847 57.7271 29.5018 57.6958 29.4134C57.6644 29.325 57.6497 29.2292 57.6497 29.1298C57.6497 28.9345 57.7031 28.7614 57.8081 28.6104C57.9131 28.4593 58.0605 28.3396 58.2484 28.2549C58.4363 28.1683 58.6536 28.126 58.8987 28.126C59.1437 28.126 59.3721 28.172 59.571 28.2641C59.77 28.3562 59.9321 28.4851 60.0592 28.6527C60.1863 28.8203 60.2655 29.0156 60.2968 29.2421L60.0739 29.2845C60.05 29.0984 59.9837 28.9345 59.8768 28.7945C59.77 28.6546 59.6337 28.5441 59.4642 28.4667C59.2965 28.3894 59.1068 28.3507 58.8987 28.3507C58.6905 28.3507 58.5229 28.3857 58.3718 28.4538C58.2208 28.5238 58.1029 28.6159 58.0163 28.7319C57.9315 28.848 57.8892 28.9806 57.8892 29.1242C57.8892 29.2771 57.9297 29.3987 58.0126 29.4889C58.0955 29.581 58.195 29.651 58.3147 29.7007C58.4326 29.7504 58.5468 29.7928 58.6555 29.8241L59.4476 30.0635C59.5158 30.0838 59.5968 30.1114 59.6944 30.1501C59.7921 30.1888 59.8879 30.2422 59.9837 30.314C60.0794 30.3859 60.1568 30.4779 60.2194 30.594C60.2821 30.71 60.3134 30.8555 60.3134 31.0305C60.3134 31.1944 60.2821 31.3436 60.2213 31.4762C60.1587 31.6088 60.0702 31.723 59.9523 31.8169C59.8363 31.9109 59.6963 31.9827 59.5323 32.0343C59.3684 32.0858 59.1879 32.1098 58.9852 32.1098H58.9834Z" fill="#74797F"/>
</g>
<g id="VIVIR">
<path id="Vector_10" d="M0.18869 0.0626221H1.67343L1.84291 0.467816L10.7127 20.6336L19.5143 0.467816L19.6838 0.0626221H21.1685L20.7301 1.00746L10.7127 24.0059L0.627113 1.00746L0.18869 0.0626221Z" fill="#74797F"/>
<path id="Vector_11" d="M25.2009 0.0626221H26.5493V24.0685H25.2009V0.0626221Z" fill="#74797F"/>
<path id="Vector_12" d="M30.5964 0.0626221H32.0812L32.2507 0.467816L41.1204 20.6336L49.9239 0.467816L50.0934 0.0626221H51.5781L51.1397 1.00746L41.1223 24.0059L31.0349 1.00746L30.5964 0.0626221Z" fill="#74797F"/>
<path id="Vector_13" d="M55.5736 0H56.9184V24.0685H55.5736V0Z" fill="#74797F"/>
<path id="Vector_14" d="M77.6329 22.9211L68.695 13.2756H71.0566C72.9226 13.2756 74.5142 12.6863 75.8295 11.5057C76.605 10.8095 77.1521 10.0286 77.4708 9.16292C77.7287 8.45936 77.7619 7.8221 77.8024 7.23825C77.8411 6.66913 77.8227 6.19027 77.7969 5.84217C77.7324 4.26744 77.0766 2.91557 75.8295 1.78471C74.5142 0.593067 72.9116 -0.00183105 71.0234 -0.00183105L61.6471 0.0313212H60.9729V0.705417L60.9563 5.84033C60.9508 8.09284 60.9452 10.3453 60.9379 12.5979V24.063H62.2863V13.272H66.805L76.6198 23.8604L76.8224 24.063H78.6774L77.6311 22.9156L77.6329 22.9211ZM62.2881 11.9606V1.3482H71.0234C72.5082 1.3482 73.7829 1.80865 74.8513 2.73139C75.8479 3.59334 76.3803 4.63027 76.4466 5.84401C76.4779 6.19395 76.4982 6.67282 76.454 7.24009C76.4116 7.79447 76.3821 8.21992 76.1961 8.72089C75.9419 9.40419 75.4998 10.0175 74.8679 10.5608C73.8105 11.4707 72.5413 11.9274 71.0566 11.9274H67.4147C65.7053 11.9385 63.9976 11.9495 62.2881 11.9606Z" fill="#74797F"/>
</g>
</g>
<defs>
<clipPath id="clip0_39_95">
<rect width="78.4906" height="32.1098" fill="white" transform="translate(0.18869)"/>
</clipPath>
</defs>
</svg>
