<svg width="81" height="33" viewBox="0 0 81 33" fill="none" xmlns="http://www.w3.org/2000/svg">
<g id="Logo Gelissa" clip-path="url(#clip0_39_113)">
<g id="Group">
<path id="Vector" d="M8.32595 1.20154C9.27731 1.20154 10.1658 1.32551 10.9913 1.57504C11.8153 1.82298 12.4821 2.15674 12.99 2.57315L12.6094 2.71778C12.0701 2.33316 11.4521 2.02483 10.7539 1.79278C10.0557 1.56073 9.38896 1.44471 8.75524 1.44471C7.94697 1.44471 7.20947 1.64497 6.54273 2.04549C5.87599 2.446 5.30203 3.01499 4.8177 3.75246C4.33337 4.48992 3.96068 5.37519 3.69965 6.40986C3.43861 7.44453 3.30652 8.59364 3.30652 9.86036C3.30652 11.1271 3.44176 12.2778 3.71066 13.3109C3.97955 14.3455 4.3601 15.2308 4.85229 15.9683C5.34448 16.7057 5.94203 17.2747 6.64809 17.6752C7.35414 18.0757 8.13567 18.276 8.99111 18.276C9.41884 18.276 9.86385 18.2283 10.323 18.1314C10.7822 18.0344 11.2351 17.8993 11.6785 17.7229V12.1204L7.61046 12.0727V11.9281L14.1049 11.8566V16.3767C13.2793 17.0983 12.3405 17.6355 11.2854 17.9883C10.2302 18.3412 9.17982 18.5176 8.13253 18.5176C6.97517 18.5176 5.90744 18.3094 4.93249 17.893C3.95754 17.4766 3.12411 16.8917 2.43378 16.1383C1.74346 15.385 1.20409 14.4758 0.81568 13.4094C0.43199 12.3398 0.237 11.1573 0.237 9.85877C0.237 8.56026 0.435135 7.37778 0.831405 6.31132C1.22768 5.24486 1.78277 4.33575 2.49668 3.5824C3.2106 2.82904 4.0629 2.24416 5.05357 1.82774C6.04425 1.41133 7.13556 1.20313 8.32437 1.20313L8.32595 1.20154Z" fill="#74797F"/>
<path id="Vector_2" d="M23.3386 18.516C22.2913 18.516 21.3525 18.3682 20.5191 18.071C19.6857 17.7738 18.9812 17.3494 18.401 16.7963C17.8223 16.2432 17.3773 15.582 17.0691 14.8128C16.7608 14.0435 16.6052 13.1932 16.6052 12.2635C16.6052 11.3337 16.7483 10.4643 17.0329 9.703C17.3191 8.9417 17.7264 8.28371 18.2579 7.73061C18.7894 7.17751 19.4231 6.75315 20.1606 6.45595C20.8981 6.15874 21.7189 6.01093 22.6231 6.01093C23.4801 6.01093 24.2648 6.14761 24.9787 6.41939C25.6926 6.69276 26.3106 7.06785 26.8343 7.54942C27.3579 8.031 27.7746 8.60793 28.0828 9.28023C28.3926 9.95412 28.5782 10.6995 28.6427 11.5165H19.4593C19.4593 11.6452 19.4545 11.7692 19.4467 11.89C19.4388 12.0107 19.4341 12.1347 19.4341 12.2635C19.4341 14.0753 19.8225 15.5264 20.5993 16.6151C21.3761 17.7054 22.5099 18.2585 24.0022 18.2744C25.0967 18.2744 26.0323 17.9979 26.8091 17.4448C27.5859 16.8917 28.0939 16.159 28.3313 15.2451H28.498C28.2118 16.3036 27.6331 17.1126 26.7619 17.6736C25.8892 18.2347 24.7476 18.516 23.3355 18.516H23.3386ZM25.6706 11.2781C25.6549 10.5088 25.5716 9.81585 25.4206 9.19759C25.2696 8.58092 25.0636 8.04689 24.8026 7.59869C24.5416 7.15049 24.2271 6.8056 23.8623 6.56402C23.4974 6.32403 23.0933 6.20324 22.6483 6.20324C21.7755 6.20324 21.0585 6.66415 20.4955 7.58598C19.9326 8.50781 19.5945 9.73797 19.4844 11.2765H25.6706V11.2781Z" fill="#74797F"/>
<path id="Vector_3" d="M31.5235 0H34.3792V18.516H31.5235V0Z" fill="#74797F"/>
<path id="Vector_4" d="M38.1846 1.75465C38.1846 1.2254 38.3466 0.801038 38.6721 0.479988C38.9976 0.158938 39.4127 -0.00158691 39.9206 -0.00158691C40.4286 -0.00158691 40.8689 0.158938 41.1944 0.479988C41.5199 0.801038 41.6818 1.2254 41.6818 1.75465C41.6818 2.28391 41.5183 2.73211 41.1944 3.05316C40.8689 3.37421 40.4443 3.53473 39.9206 3.53473C39.397 3.53473 38.996 3.37421 38.6721 3.05316C38.3466 2.73211 38.1846 2.2998 38.1846 1.75465ZM38.4944 6.25253H41.35V18.516H38.4944V6.25253Z" fill="#74797F"/>
<path id="Vector_5" d="M52.2931 7.93564C52.0714 7.42228 51.6515 7.00587 51.0319 6.68482C50.4139 6.36377 49.7629 6.20324 49.0805 6.20324C48.398 6.20324 47.8586 6.359 47.4624 6.6721C47.0661 6.9852 46.868 7.39844 46.868 7.91021C46.868 8.31073 46.9827 8.70807 47.2123 9.10064C47.4419 9.49321 47.7548 9.83333 48.1527 10.1226L51.1027 12.2635C51.7207 12.7291 52.2207 13.2536 52.6013 13.8385C52.9818 14.4234 53.1721 15.021 53.1721 15.6297C53.1721 16.062 53.0683 16.4562 52.8623 16.8074C52.6563 17.1603 52.367 17.4654 51.9943 17.7213C51.6216 17.9772 51.1766 18.1743 50.6624 18.311C50.1466 18.4476 49.5884 18.516 48.9845 18.516C47.7784 18.516 46.7516 18.2633 45.904 17.7579C45.0549 17.2525 44.4479 16.631 44.0846 15.8936V15.7728C44.4966 16.5261 45.0879 17.1237 45.8568 17.564C46.6258 18.0058 47.4624 18.2251 48.3665 18.2251C49.0805 18.2251 49.6544 18.0773 50.0916 17.7801C50.5272 17.4829 50.7457 17.0554 50.7457 16.4943C50.7457 15.981 50.5508 15.4851 50.1623 15.0035C49.7739 14.5219 49.2786 14.0737 48.6748 13.6573L46.2484 11.9027C45.6461 11.4704 45.1822 10.9888 44.8567 10.4595C44.5312 9.93028 44.3692 9.38513 44.3692 8.82409C44.3692 7.95789 44.7341 7.27288 45.4637 6.76746C46.1933 6.26205 47.1526 6.00934 48.343 6.00934C49.2943 6.00934 50.1513 6.16986 50.9124 6.49091C51.6735 6.81196 52.2365 7.22837 52.6013 7.74174L52.2915 7.93405L52.2931 7.93564Z" fill="#74797F"/>
<path id="Vector_6" d="M62.8556 7.93564C62.6339 7.42228 62.214 7.00587 61.5944 6.68482C60.9764 6.36377 60.3254 6.20324 59.643 6.20324C58.9605 6.20324 58.4211 6.359 58.0249 6.6721C57.6286 6.9852 57.4305 7.39844 57.4305 7.91021C57.4305 8.31073 57.5452 8.70807 57.7748 9.10064C58.0044 9.49321 58.3173 9.83333 58.7152 10.1226L61.6652 12.2635C62.2832 12.7291 62.7832 13.2536 63.1638 13.8385C63.5443 14.4234 63.7346 15.021 63.7346 15.6297C63.7346 16.062 63.6308 16.4562 63.4248 16.8074C63.2188 17.1603 62.9295 17.4654 62.5568 17.7213C62.1841 17.9772 61.7391 18.1743 61.2249 18.311C60.7091 18.4476 60.1509 18.516 59.547 18.516C58.3409 18.516 57.3141 18.2633 56.4665 17.7579C55.6174 17.2525 55.0104 16.631 54.6471 15.8936V15.7728C55.0591 16.5261 55.6504 17.1237 56.4193 17.564C57.1883 18.0058 58.0249 18.2251 58.929 18.2251C59.643 18.2251 60.2169 18.0773 60.6541 17.7801C61.0897 17.4829 61.3082 17.0554 61.3082 16.4943C61.3082 15.981 61.1133 15.4851 60.7248 15.0035C60.3364 14.5219 59.8411 14.0737 59.2373 13.6573L56.8109 11.9027C56.2086 11.4704 55.7447 10.9888 55.4192 10.4595C55.0937 9.93028 54.9318 9.38513 54.9318 8.82409C54.9318 7.95789 55.2966 7.27288 56.0262 6.76746C56.7559 6.26205 57.7151 6.00934 58.9055 6.00934C59.8568 6.00934 60.7138 6.16986 61.4749 6.49091C62.236 6.81196 62.799 7.22837 63.1638 7.74174L62.854 7.93405L62.8556 7.93564Z" fill="#74797F"/>
<path id="Vector_7" d="M69.9932 6.01093C70.77 6.01093 71.4807 6.119 72.1223 6.33516C72.7639 6.55131 73.3111 6.85647 73.764 7.24904C74.2153 7.64161 74.5691 8.11524 74.8223 8.66833C75.0755 9.22143 75.2028 9.83492 75.2028 10.5072V18.2744L73.6319 18.2506C73.536 18.0265 73.4338 17.8294 73.3221 17.6609C73.2105 17.4924 73.069 17.4082 72.8944 17.4082C72.767 17.4082 72.6129 17.4638 72.4305 17.5767C72.2481 17.6895 72.0185 17.8135 71.7402 17.9502C71.4619 18.0869 71.1222 18.214 70.7165 18.3348C70.3124 18.4556 69.8249 18.5144 69.2541 18.5144C68.1124 18.5144 67.1878 18.2696 66.4818 17.7817C65.7757 17.2922 65.4235 16.639 65.4235 15.822C65.4235 15.3087 65.5666 14.8478 65.8512 14.4393C66.1374 14.0308 66.5085 13.67 66.9692 13.3569C67.4284 13.0438 67.9489 12.7721 68.5276 12.54C69.1063 12.308 69.6975 12.1188 70.2998 11.9742C70.759 11.8629 71.1474 11.7787 71.465 11.7215C71.7827 11.6659 72.0751 11.5975 72.3456 11.5165V10.8426C72.3456 9.44871 72.0924 8.33457 71.5845 7.50015C71.0766 6.66733 70.3234 6.24933 69.3248 6.24933C68.7226 6.24933 68.136 6.39714 67.5636 6.69435C66.9928 6.99156 66.5478 7.37936 66.2317 7.86094H66.0886C66.8497 6.62601 68.1502 6.00934 69.99 6.00934L69.9932 6.01093ZM70.3737 12.2635C69.6912 12.5368 69.1644 12.9532 68.7918 13.5143C68.4191 14.0753 68.2319 14.7651 68.2319 15.582C68.2319 15.9031 68.2681 16.2241 68.3389 16.5436C68.4096 16.8646 68.5244 17.1571 68.6833 17.4209C68.8421 17.6848 69.0402 17.9025 69.2777 18.0694C69.5151 18.2379 69.8092 18.3221 70.1583 18.3221C70.5074 18.3221 70.9083 18.2251 71.3125 18.0328C71.7166 17.8405 72.0626 17.5926 72.3472 17.2874V11.7088C72.0453 11.7898 71.7371 11.8645 71.4194 11.9376C71.1018 12.0092 70.7527 12.1172 70.3721 12.2619L70.3737 12.2635Z" fill="#74797F"/>
</g>
<g id="Group_2">
<path id="Vector_8" d="M3.50624 28.5067C3.50624 29.1488 3.36629 29.659 3.08481 30.0356C2.80333 30.4123 2.42593 30.6015 1.95103 30.6015C1.38336 30.6015 0.954069 30.3885 0.663156 29.9609L0.644286 30.5252H0.221283V24.6763H0.669446V27.0031C0.955641 26.5534 1.38022 26.3293 1.94317 26.3293C2.42593 26.3293 2.80648 26.5152 3.08638 26.8871C3.36629 27.259 3.50624 27.7756 3.50624 28.4383V28.5067ZM3.05493 28.4272C3.05493 27.8837 2.95115 27.4641 2.742 27.1684C2.53286 26.8728 2.2388 26.725 1.85983 26.725C1.57049 26.725 1.32675 26.7965 1.12547 26.9396C0.924191 27.0826 0.773231 27.2924 0.669446 27.569V29.4269C0.895886 29.945 1.2953 30.2041 1.86769 30.2041C2.2388 30.2041 2.52972 30.0563 2.74043 29.7591C2.94957 29.4619 3.05493 29.0185 3.05493 28.4256V28.4272Z" fill="#74797F"/>
<path id="Vector_9" d="M6.15746 30.6015C5.81151 30.6015 5.49701 30.5157 5.21711 30.3424C4.9372 30.1692 4.71862 29.9292 4.56295 29.6208C4.40727 29.3125 4.32864 28.966 4.32864 28.583V28.4193C4.32864 28.0235 4.40412 27.6659 4.55666 27.3497C4.70919 27.0318 4.9199 26.7823 5.19195 26.6011C5.46399 26.4199 5.75648 26.3293 6.07412 26.3293C6.56946 26.3293 6.96101 26.4993 7.25192 26.8411C7.54126 27.1828 7.68751 27.6484 7.68751 28.2397V28.494H4.77838V28.5814C4.77838 29.0487 4.91047 29.4381 5.17622 29.748C5.44197 30.0579 5.77534 30.2137 6.17633 30.2137C6.41693 30.2137 6.63079 30.1692 6.81477 30.0802C6.99875 29.9912 7.16701 29.8497 7.31797 29.6542L7.60102 29.872C7.26922 30.3567 6.78804 30.5999 6.15746 30.5999V30.6015ZM6.07412 26.7171C5.73446 26.7171 5.44984 26.8426 5.21711 27.0938C4.98438 27.3449 4.84285 27.6834 4.79253 28.1062H7.23777V28.0569C7.22519 27.6612 7.11354 27.3385 6.90283 27.089C6.69211 26.8395 6.41535 26.7155 6.07412 26.7155V26.7171Z" fill="#74797F"/>
<path id="Vector_10" d="M9.1468 30.5252H8.6955V24.6763H9.1468V30.5252Z" fill="#74797F"/>
<path id="Vector_11" d="M12.0261 30.6015C11.6801 30.6015 11.3656 30.5157 11.0857 30.3424C10.8058 30.1692 10.5872 29.9292 10.4315 29.6208C10.2759 29.3125 10.1972 28.966 10.1972 28.583V28.4193C10.1972 28.0235 10.2727 27.6659 10.4252 27.3497C10.5778 27.0318 10.7885 26.7823 11.0605 26.6011C11.3326 26.4199 11.6251 26.3293 11.9427 26.3293C12.438 26.3293 12.8296 26.4993 13.1205 26.8411C13.4099 27.1828 13.5561 27.6484 13.5561 28.2397V28.494H10.647V28.5814C10.647 29.0487 10.7791 29.4381 11.0448 29.748C11.3106 30.0595 11.6439 30.2137 12.0449 30.2137C12.2855 30.2137 12.4994 30.1692 12.6834 30.0802C12.8673 29.9912 13.0356 29.8497 13.1866 29.6542L13.4696 29.872C13.1378 30.3567 12.6566 30.5999 12.0261 30.5999V30.6015ZM11.9443 26.7171C11.6046 26.7171 11.32 26.8426 11.0873 27.0938C10.8545 27.3449 10.713 27.6834 10.6627 28.1062H13.1079V28.0569C13.0954 27.6612 12.9837 27.3385 12.773 27.089C12.5623 26.8395 12.2855 26.7155 11.9443 26.7155V26.7171Z" fill="#74797F"/>
<path id="Vector_12" d="M14.8094 30.1406H17.4575V30.5252H14.2511V30.1898L16.7231 26.8013H14.3266V26.4056H17.2923V26.7473L14.8094 30.1406Z" fill="#74797F"/>
<path id="Vector_13" d="M20.9138 30.5252C20.8682 30.3964 20.8399 30.2041 20.8273 29.9498C20.6685 30.158 20.4672 30.3186 20.2219 30.4314C19.9766 30.5443 19.7172 30.6015 19.4435 30.6015C19.052 30.6015 18.7344 30.4902 18.4922 30.2709C18.25 30.05 18.1289 29.7702 18.1289 29.4333C18.1289 29.0328 18.294 28.7149 18.6243 28.4813C18.9545 28.2476 19.4152 28.1316 20.0049 28.1316H20.8226V27.6628C20.8226 27.3687 20.733 27.1367 20.5537 26.9682C20.3745 26.7997 20.1119 26.7155 19.7675 26.7155C19.453 26.7155 19.1935 26.7966 18.9875 26.9587C18.7815 27.1208 18.6793 27.3163 18.6793 27.5451L18.2264 27.542C18.2264 27.2146 18.3774 26.9301 18.6793 26.6901C18.9812 26.4501 19.3508 26.3309 19.7911 26.3309C20.2314 26.3309 20.6041 26.4453 20.8667 26.6758C21.1293 26.9062 21.2645 27.2257 21.2724 27.6373V29.5875C21.2724 29.9864 21.3133 30.2836 21.3966 30.4823V30.5284H20.9138V30.5252ZM19.497 30.1978C19.7989 30.1978 20.0678 30.1247 20.3053 29.9769C20.5427 29.829 20.7157 29.6336 20.8226 29.3872V28.4813H20.0159C19.5662 28.486 19.214 28.5703 18.9608 28.7308C18.7076 28.8913 18.5802 29.1138 18.5802 29.3952C18.5802 29.6256 18.6652 29.8179 18.835 29.9705C19.0048 30.1231 19.225 30.1994 19.4954 30.1994L19.497 30.1978Z" fill="#74797F"/>
<path id="Vector_14" d="M24.323 28.4272C24.323 27.782 24.4645 27.2718 24.7476 26.8951C25.0306 26.5184 25.4159 26.3293 25.9065 26.3293C26.4569 26.3293 26.8752 26.5407 27.1614 26.965L27.1834 26.4056H27.6048V32.1098H27.1519V30.015C26.8547 30.406 26.438 30.6015 25.8971 30.6015C25.4206 30.6015 25.0385 30.4108 24.7523 30.0309C24.4661 29.651 24.323 29.1361 24.323 28.4892V28.4288V28.4272ZM24.779 28.5067C24.779 29.0391 24.8844 29.4587 25.0967 29.7607C25.309 30.0643 25.603 30.2153 25.9804 30.2153C26.5198 30.2153 26.9113 29.9784 27.1519 29.5032V27.4847C27.0387 27.2384 26.883 27.0493 26.6833 26.9158C26.4836 26.7823 26.2525 26.7155 25.9883 26.7155C25.6093 26.7155 25.3121 26.8665 25.0998 27.1701C24.886 27.4736 24.779 27.9186 24.779 28.5051V28.5067Z" fill="#74797F"/>
<path id="Vector_15" d="M31.5062 30.0039C31.2342 30.4028 30.8017 30.6015 30.2057 30.6015C29.7717 30.6015 29.4415 30.4743 29.2151 30.2184C28.9886 29.9642 28.8738 29.5859 28.8691 29.0852V26.404H29.3173V29.028C29.3173 29.8132 29.6318 30.2041 30.2592 30.2041C30.8866 30.2041 31.3254 29.9308 31.4983 29.3856V26.404H31.9496V30.5236H31.5125L31.5046 30.0023L31.5062 30.0039Z" fill="#74797F"/>
<path id="Vector_16" d="M34.7786 30.6015C34.4326 30.6015 34.1181 30.5157 33.8382 30.3424C33.5583 30.1692 33.3397 29.9292 33.1841 29.6208C33.0284 29.3125 32.9498 28.966 32.9498 28.583V28.4193C32.9498 28.0235 33.0252 27.6659 33.1778 27.3497C33.3303 27.0318 33.541 26.7823 33.8131 26.6011C34.0851 26.4199 34.3776 26.3293 34.6952 26.3293C35.1906 26.3293 35.5821 26.4993 35.873 26.8411C36.1624 27.1828 36.3086 27.6484 36.3086 28.2397V28.494H33.3995V28.5814C33.3995 29.0487 33.5316 29.4381 33.7973 29.748C34.0631 30.0579 34.3965 30.2137 34.7975 30.2137C35.0381 30.2137 35.2519 30.1692 35.4359 30.0802C35.6199 29.9912 35.7881 29.8497 35.9391 29.6542L36.2221 29.872C35.8903 30.3567 35.4092 30.5999 34.7786 30.5999V30.6015ZM34.6952 26.7171C34.3556 26.7171 34.071 26.8426 33.8382 27.0938C33.6055 27.3449 33.464 27.6834 33.4137 28.1062H35.8589V28.0569C35.8463 27.6612 35.7347 27.3385 35.524 27.089C35.3132 26.8395 35.0365 26.7155 34.6952 26.7155V26.7171Z" fill="#74797F"/>
<path id="Vector_17" d="M41.1 26.7934C41.0041 26.7759 40.9035 26.7664 40.795 26.7664C40.5135 26.7664 40.2761 26.8458 40.0811 27.0048C39.8861 27.1637 39.7477 27.3942 39.6644 27.6961V30.5252H39.2162V26.4056H39.6565L39.6644 27.0604C39.9034 26.5725 40.2855 26.3293 40.8139 26.3293C40.9397 26.3293 41.0387 26.3452 41.1111 26.3786L41.1 26.7934Z" fill="#74797F"/>
<path id="Vector_18" d="M43.3959 30.6015C43.0499 30.6015 42.7354 30.5157 42.4555 30.3424C42.1756 30.1692 41.9571 29.9292 41.8014 29.6208C41.6457 29.3125 41.5671 28.966 41.5671 28.583V28.4193C41.5671 28.0235 41.6426 27.6659 41.7951 27.3497C41.9476 27.0318 42.1583 26.7823 42.4304 26.6011C42.7024 26.4199 42.9949 26.3293 43.3126 26.3293C43.8079 26.3293 44.1994 26.4993 44.4904 26.8411C44.7813 27.1828 44.9259 27.6484 44.9259 28.2397V28.494H42.0168V28.5814C42.0168 29.0487 42.1489 29.4381 42.4147 29.748C42.6804 30.0595 43.0138 30.2137 43.4148 30.2137C43.6554 30.2137 43.8692 30.1692 44.0532 30.0802C44.2372 29.9912 44.4054 29.8497 44.5564 29.6542L44.8395 29.872C44.5077 30.3567 44.0265 30.5999 43.3959 30.5999V30.6015ZM43.3141 26.7171C42.9745 26.7171 42.6898 26.8426 42.4571 27.0938C42.2244 27.3449 42.0829 27.6834 42.0325 28.1062H44.4778V28.0569C44.4652 27.6612 44.3536 27.3385 44.1428 27.089C43.9321 26.8395 43.6554 26.7155 43.3141 26.7155V26.7171Z" fill="#74797F"/>
<path id="Vector_19" d="M48.3225 29.4778C48.3225 29.2521 48.2329 29.0709 48.0536 28.9327C47.8744 28.796 47.6039 28.6879 47.2422 28.6116C46.8806 28.5337 46.5991 28.4447 46.401 28.3446C46.2012 28.2445 46.0534 28.1221 45.9559 27.9775C45.8584 27.8328 45.8113 27.658 45.8113 27.4514C45.8113 27.1271 45.9449 26.8585 46.2138 26.6456C46.4827 26.4342 46.8271 26.3277 47.2454 26.3277C47.6998 26.3277 48.0647 26.4405 48.3398 26.6678C48.615 26.8951 48.7518 27.1907 48.7518 27.5563H48.299C48.299 27.3147 48.1999 27.1144 48.0002 26.9539C47.8005 26.7934 47.5489 26.7139 47.2454 26.7139C46.9419 26.7139 46.7107 26.7807 46.5315 26.9142C46.3522 27.0477 46.2626 27.2209 46.2626 27.4339C46.2626 27.6469 46.3365 27.7994 46.4859 27.9123C46.6353 28.0251 46.9073 28.1284 47.3036 28.2222C47.6998 28.316 47.9955 28.4161 48.192 28.5226C48.3886 28.6291 48.5348 28.7578 48.6308 28.9072C48.7267 29.0566 48.7739 29.2378 48.7739 29.4524C48.7739 29.8004 48.6355 30.0786 48.3571 30.2868C48.0788 30.495 47.7171 30.5983 47.2705 30.5983C46.7956 30.5983 46.4104 30.4823 46.1163 30.2502C45.8207 30.0182 45.6729 29.7242 45.6729 29.3681H46.1258C46.1431 29.6352 46.2547 29.8418 46.4591 29.9912C46.6636 30.139 46.934 30.2137 47.2705 30.2137C47.585 30.2137 47.8382 30.1437 48.0316 30.0039C48.2251 29.864 48.321 29.6876 48.321 29.4746L48.3225 29.4778Z" fill="#74797F"/>
<path id="Vector_20" d="M53.1423 28.5067C53.1423 29.1488 53.0023 29.659 52.7208 30.0357C52.4393 30.4123 52.0635 30.6015 51.5902 30.6015C51.032 30.6015 50.6058 30.4028 50.3086 30.0071V32.1098H49.8604V26.4056H50.2787L50.3007 26.9889C50.5948 26.5502 51.0209 26.3309 51.5776 26.3309C52.0651 26.3309 52.4472 26.5168 52.7255 26.8903C53.0023 27.2638 53.1423 27.782 53.1423 28.4431V28.5083V28.5067ZM52.6909 28.4272C52.6909 27.9012 52.584 27.4863 52.3702 27.1828C52.1563 26.8776 51.8591 26.7266 51.477 26.7266C51.2002 26.7266 50.9628 26.7934 50.7646 26.9285C50.5665 27.0636 50.414 27.2591 50.3086 27.5149V29.4905C50.4171 29.7273 50.5712 29.9069 50.7725 30.0309C50.9738 30.1549 51.2112 30.2168 51.4848 30.2168C51.8638 30.2168 52.1594 30.0643 52.3717 29.7575C52.584 29.4524 52.6894 29.0073 52.6894 28.4272H52.6909Z" fill="#74797F"/>
<path id="Vector_21" d="M54.7226 30.5252H54.2697V24.6763H54.7226V30.5252Z" fill="#74797F"/>
<path id="Vector_22" d="M58.5973 30.5252C58.5516 30.3964 58.5233 30.2041 58.5108 29.9498C58.3519 30.158 58.1507 30.3186 57.9053 30.4314C57.66 30.5443 57.4006 30.6015 57.127 30.6015C56.7354 30.6015 56.4178 30.4902 56.1756 30.2709C55.9334 30.05 55.8123 29.7702 55.8123 29.4333C55.8123 29.0328 55.9775 28.7149 56.3077 28.4813C56.6379 28.2476 57.0987 28.1316 57.6883 28.1316H58.506V27.6628C58.506 27.3687 58.4164 27.1367 58.2371 26.9682C58.0579 26.7997 57.7953 26.7155 57.4509 26.7155C57.1364 26.7155 56.8769 26.7966 56.6709 26.9587C56.4649 27.1208 56.3627 27.3163 56.3627 27.5451L55.9114 27.542C55.9114 27.2146 56.0624 26.9301 56.3627 26.6901C56.6646 26.4501 57.0342 26.3309 57.4745 26.3309C57.9148 26.3309 58.2875 26.4453 58.5501 26.6758C58.8127 26.9062 58.9479 27.2257 58.9558 27.6373V29.5875C58.9558 29.9864 58.9967 30.2836 59.08 30.4823V30.5284H58.5973V30.5252ZM57.182 30.1978C57.4839 30.1978 57.7528 30.1247 57.9903 29.9769C58.2277 29.829 58.4007 29.6336 58.5076 29.3872V28.4813H57.7009C57.2512 28.486 56.8989 28.5703 56.6458 28.7308C56.3926 28.8913 56.2652 29.1138 56.2652 29.3952C56.2652 29.6256 56.3501 29.8179 56.52 29.9705C56.6898 30.1231 56.91 30.1994 57.1804 30.1994L57.182 30.1978Z" fill="#74797F"/>
<path id="Vector_23" d="M60.6651 26.4056L60.6808 27.1097C60.8333 26.8554 61.0252 26.6615 61.2532 26.5295C61.4812 26.396 61.7344 26.3293 62.0111 26.3293C62.4483 26.3293 62.7738 26.4533 62.9877 26.7028C63.2015 26.9523 63.3085 27.3242 63.3116 27.8217V30.5252H62.8634V27.8185C62.8603 27.4498 62.7832 27.1764 62.6323 26.9952C62.4798 26.8156 62.2376 26.725 61.9026 26.725C61.6243 26.725 61.3774 26.8124 61.162 26.9889C60.9466 27.1653 60.7877 27.4037 60.6855 27.7025V30.5236H60.2374V26.404H60.6667L60.6651 26.4056Z" fill="#74797F"/>
<path id="Vector_24" d="M64.3699 28.4272C64.3699 27.7883 64.5114 27.2781 64.7945 26.8983C65.0775 26.5184 65.4612 26.3293 65.9455 26.3293C66.4959 26.3293 66.9158 26.5486 67.2035 26.9873V24.6763H67.6517V30.5252H67.2303L67.2114 29.9768C66.9221 30.3932 66.4975 30.6015 65.9377 30.6015C65.4675 30.6015 65.0901 30.4107 64.8023 30.0277C64.5146 29.6462 64.3715 29.1297 64.3715 28.4797V28.4256L64.3699 28.4272ZM64.8259 28.5067C64.8259 29.0328 64.9297 29.446 65.1389 29.7496C65.348 30.0531 65.6421 30.2041 66.021 30.2041C66.5761 30.2041 66.9708 29.9562 67.2035 29.4619V27.5276C66.9692 26.992 66.5777 26.7234 66.0289 26.7234C65.6499 26.7234 65.3543 26.8744 65.1436 27.1748C64.9329 27.4752 64.8275 27.9186 64.8275 28.5051L64.8259 28.5067Z" fill="#74797F"/>
<path id="Vector_25" d="M70.4932 30.6015C70.1473 30.6015 69.8328 30.5157 69.5529 30.3424C69.273 30.1692 69.0544 29.9292 68.8987 29.6208C68.743 29.3125 68.6644 28.966 68.6644 28.583V28.4193C68.6644 28.0235 68.7399 27.6659 68.8924 27.3497C69.0449 27.0318 69.2557 26.7823 69.5277 26.6011C69.7997 26.4199 70.0922 26.3293 70.4099 26.3293C70.9052 26.3293 71.2968 26.4993 71.5877 26.8411C71.8786 27.1828 72.0233 27.6484 72.0233 28.2397V28.494H69.1141V28.5814C69.1141 29.0487 69.2462 29.4381 69.512 29.748C69.7777 30.0595 70.1111 30.2137 70.5121 30.2137C70.7527 30.2137 70.9665 30.1692 71.1505 30.0802C71.3345 29.9912 71.5028 29.8497 71.6537 29.6542L71.9368 29.872C71.605 30.3567 71.1238 30.5999 70.4932 30.5999V30.6015ZM70.4114 26.7171C70.0718 26.7171 69.7872 26.8426 69.5544 27.0938C69.3217 27.3449 69.1802 27.6834 69.1299 28.1062H71.5751V28.0569C71.5625 27.6612 71.4509 27.3385 71.2402 27.089C71.0294 26.8395 70.7527 26.7155 70.4114 26.7155V26.7171Z" fill="#74797F"/>
<path id="Vector_26" d="M74.4858 30.2169C74.8003 30.2169 75.0629 30.1279 75.2752 29.9483C75.4875 29.7687 75.6023 29.5382 75.6196 29.2537H76.0536C76.041 29.5048 75.9624 29.7337 75.8193 29.9403C75.6762 30.1469 75.4859 30.309 75.2485 30.4251C75.011 30.5411 74.7563 30.5999 74.4858 30.5999C73.9512 30.5999 73.5266 30.4123 73.2137 30.0357C72.9007 29.659 72.7451 29.1552 72.7451 28.5194V28.3827C72.7451 27.9759 72.8158 27.6167 72.9558 27.3052C73.0957 26.9936 73.2986 26.7521 73.5612 26.582C73.8238 26.4119 74.1304 26.3277 74.4827 26.3277C74.9293 26.3277 75.2988 26.4628 75.5881 26.7314C75.879 27 76.0332 27.3544 76.0536 27.7931H75.6196C75.5991 27.4704 75.4844 27.2098 75.2752 27.0127C75.0661 26.814 74.8003 26.7155 74.4827 26.7155C74.0754 26.7155 73.7593 26.8633 73.5345 27.1605C73.3096 27.4577 73.1979 27.8741 73.1979 28.4098V28.5433C73.1979 29.0693 73.3096 29.4794 73.5345 29.7734C73.7593 30.0675 74.077 30.2153 74.4858 30.2153V30.2169Z" fill="#74797F"/>
<path id="Vector_27" d="M78.6089 30.6015C78.263 30.6015 77.9485 30.5157 77.6686 30.3424C77.3887 30.1692 77.1701 29.9292 77.0144 29.6208C76.8587 29.3125 76.7801 28.966 76.7801 28.583V28.4193C76.7801 28.0235 76.8556 27.6659 77.0081 27.3497C77.1606 27.0318 77.3714 26.7823 77.6434 26.6011C77.9154 26.4199 78.2079 26.3293 78.5256 26.3293C79.0209 26.3293 79.4125 26.4993 79.7034 26.8411C79.9943 27.1828 80.139 27.6484 80.139 28.2397V28.494H77.2298V28.5814C77.2298 29.0487 77.3619 29.4381 77.6277 29.748C77.8934 30.0595 78.2268 30.2137 78.6278 30.2137C78.8684 30.2137 79.0822 30.1692 79.2662 30.0802C79.4502 29.9912 79.6185 29.8497 79.7694 29.6542L80.0525 29.872C79.7207 30.3567 79.2395 30.5999 78.6089 30.5999V30.6015ZM78.5256 26.7171C78.1859 26.7171 77.9013 26.8426 77.6686 27.0938C77.4358 27.3449 77.2943 27.6834 77.244 28.1062H79.6892V28.0569C79.6766 27.6612 79.565 27.3385 79.3543 27.089C79.1436 26.8395 78.8668 26.7155 78.5256 26.7155V26.7171Z" fill="#74797F"/>
</g>
</g>
<defs>
<clipPath id="clip0_39_113">
<rect width="79.9177" height="32.1098" fill="white" transform="translate(0.221283)"/>
</clipPath>
</defs>
</svg>
