<svg width="66" height="33" viewBox="0 0 66 33" fill="none" xmlns="http://www.w3.org/2000/svg">
<g id="Logo Fujioka" clip-path="url(#clip0_31_22)">
<path id="Vector" d="M0 0H65.6467V21.8625C65.6436 21.8658 65.6387 21.8715 65.6332 21.8767C65.6274 21.8818 65.6213 21.889 65.6143 21.8903C65.5835 21.896 65.5524 21.9038 65.5215 21.9038C43.729 21.9045 21.9368 21.9045 0.144337 21.9042C0.113212 21.9042 0.0814758 21.8999 0.0506554 21.8939C0.0363132 21.8912 0.0238019 21.8791 0 21.8652L0 0ZM50.9194 16.7671C50.9273 16.7492 50.9349 16.7314 50.9429 16.7136C49.6429 15.1799 48.3426 13.6463 47.0372 12.1063C48.2166 10.9299 49.3747 9.77494 50.5651 8.58739C50.4781 8.57894 50.4418 8.57199 50.4052 8.57199C49.4583 8.57139 48.5114 8.57411 47.5645 8.56837C47.4366 8.56746 47.3625 8.62605 47.2847 8.7079C46.7388 9.28235 46.191 9.85528 45.642 10.4264C45.5932 10.4771 45.559 10.559 45.4519 10.5533C45.4519 10.2461 45.4519 9.95012 45.4519 9.65414V6.9607C45.4519 6.66412 45.4528 6.36723 45.4519 6.07064C45.4507 5.77738 45.4577 5.48382 45.447 5.19538H42.8139V16.7501H45.516V14.0558C45.6155 14.1014 45.6707 14.163 45.7244 14.2261C46.3994 15.0211 47.0769 15.8142 47.7467 16.6133C47.8422 16.7272 47.9386 16.771 48.0872 16.7698C48.963 16.7631 49.8388 16.7665 50.7146 16.7665H50.9197L50.9194 16.7671ZM6.65112 16.768C7.54247 16.7637 8.39751 16.7737 9.26628 16.7619C9.26628 16.4345 9.26628 16.1385 9.26628 15.8426C9.26628 15.5535 9.26567 15.2648 9.26506 14.9758C9.26444 14.6792 9.26383 14.3823 9.26322 14.0857C9.26261 13.7967 9.26048 13.5079 9.262 13.2189C9.26353 12.9259 9.25224 12.6324 9.26841 12.3186H13.4618V9.66048H9.27848C9.27848 9.25939 9.25315 8.88458 9.2855 8.51461C9.31937 8.12711 9.57448 7.8707 9.92998 7.7973C10.0292 7.77677 10.1335 7.77526 10.2354 7.77526C11.2928 7.77677 12.3505 7.78039 13.4078 7.78281C13.4911 7.78281 13.5741 7.77646 13.6532 7.77344C13.6962 7.37961 13.6809 5.30894 13.6339 5.12743C13.568 5.12411 13.4981 5.11776 13.4283 5.11776C12.0157 5.11716 10.6032 5.11716 9.19029 5.11776C9.11156 5.11776 9.03283 5.12411 8.9541 5.13075C7.88851 5.22106 6.63738 6.42914 6.64532 7.67166C6.66393 10.623 6.65112 13.5747 6.65112 16.526C6.65112 16.5952 6.65112 16.6644 6.65112 16.7677V16.768ZM56.4344 11.0884C56.3203 11.0884 56.2345 11.0884 56.1488 11.0884C55.3596 11.0884 54.5702 11.0842 53.7811 11.0912C53.5455 11.0933 53.3044 11.1002 53.0759 11.1507C51.9499 11.398 51.1885 12.0498 50.8721 13.1654C50.746 13.6097 50.7616 14.0634 50.8507 14.5122C51.0005 15.2651 51.3417 15.9093 51.9749 16.3784C52.3203 16.6345 52.7109 16.7662 53.143 16.7665C55.0292 16.7677 56.9156 16.7674 58.8021 16.7665C58.8625 16.7665 58.9229 16.7556 59.0001 16.748C59.0001 16.6568 59.0001 16.5798 59.0001 16.5031C59.0001 14.6916 59.0001 12.8797 58.9998 11.0682C58.9998 10.9667 59.0016 10.8646 58.9907 10.7641C58.8906 9.82297 58.4197 9.14311 57.5329 8.76589C57.1954 8.62243 56.8372 8.57108 56.4698 8.57139C55.0176 8.5729 53.5653 8.57169 52.1131 8.57229C52.0365 8.57229 51.9596 8.57864 51.8553 8.58347C51.8559 9.20986 51.8504 9.82115 51.8595 10.4485C51.9782 10.4485 52.0643 10.4485 52.1503 10.4485C53.1607 10.4469 54.1708 10.446 55.1811 10.4436C55.4674 10.443 55.7493 10.4654 56.0157 10.578C56.2284 10.6677 56.3871 10.8057 56.4347 11.089L56.4344 11.0884ZM41.5197 12.6632C41.5155 12.6632 41.5112 12.6632 41.5069 12.6629C41.5069 12.3741 41.5148 12.0851 41.5045 11.7967C41.4965 11.5711 41.4828 11.3433 41.4425 11.1217C41.264 10.1383 40.7086 9.41161 39.8511 8.90572C39.0935 8.45873 38.2628 8.27208 37.3867 8.26906C36.4774 8.26604 35.6156 8.45632 34.835 8.9314C33.7539 9.5892 33.2116 10.5584 33.1875 11.8094C33.1765 12.3711 33.1833 12.9332 33.1866 13.4953C33.1887 13.8483 33.2428 14.195 33.3526 14.5312C33.6831 15.5418 34.3877 16.2065 35.3498 16.6248C36.1939 16.9918 37.0819 17.0896 37.9903 16.9893C38.7779 16.9024 39.514 16.6568 40.1581 16.1857C40.9354 15.6173 41.3931 14.8604 41.4758 13.9024C41.5112 13.491 41.5063 13.0763 41.5194 12.6632H41.5197ZM20.1444 8.57743C20.1444 8.68313 20.1447 8.7671 20.1444 8.85106C20.1395 9.82689 20.134 10.803 20.13 11.7789C20.1279 12.3177 20.1312 12.8562 20.1282 13.395C20.1251 13.9281 19.8389 14.3146 19.329 14.4904C19.1004 14.5692 18.8661 14.5871 18.6287 14.5611C17.9177 14.4835 17.4535 13.9894 17.4242 13.2838C17.4209 13.2059 17.4227 13.1277 17.4227 13.0498C17.4227 11.652 17.4227 10.2546 17.4221 8.8568C17.4221 8.76649 17.4148 8.67619 17.4105 8.58528H14.7654V8.87431C14.7654 10.2328 14.7639 11.5916 14.767 12.9501C14.7676 13.1839 14.7746 13.4191 14.8011 13.6511C14.9577 15.0238 15.6543 16.0289 16.9195 16.6248C17.7804 17.0304 18.6912 17.1114 19.6241 16.9498C21.5041 16.6236 22.7446 15.1842 22.7571 13.3023C22.7672 11.7955 22.7598 10.2884 22.7589 8.78159C22.7589 8.71515 22.7479 8.6484 22.7418 8.57773H20.1444V8.57743ZM23.1871 16.8504C23.2881 16.8707 23.3634 16.893 23.4403 16.9002C24.0421 16.9564 24.6399 16.9335 25.2215 16.7589C26.5093 16.3729 27.4098 15.5852 27.8019 14.2835C27.9175 13.8994 27.9603 13.5037 27.9609 13.1044C27.9633 11.6683 27.9621 10.2325 27.9615 8.79639C27.9615 8.72874 27.9523 8.66079 27.9474 8.59736C27.6218 8.54692 25.5056 8.56263 25.3311 8.6188C25.3311 8.68313 25.3311 8.7523 25.3311 8.82176C25.3295 9.39138 25.3271 9.96129 25.3262 10.5309C25.3246 11.4518 25.3246 12.3726 25.3231 13.2935C25.3222 13.816 25.0485 14.211 24.5496 14.3787C24.3881 14.433 24.2118 14.4466 24.0412 14.4708C23.9661 14.4814 23.888 14.4726 23.8038 14.4726C23.5975 15.2681 23.3958 16.0452 23.1871 16.8501V16.8504ZM31.8815 16.7526C31.9321 16.1817 31.9086 8.75924 31.8574 8.58437H29.2669C29.2123 8.83656 29.2224 16.5777 29.2761 16.7526H31.8815ZM27.9523 7.79942V5.19599H25.3286C25.2807 5.53214 25.296 7.62998 25.3466 7.79942H27.9526H27.9523ZM29.2492 5.19176V7.79549H31.8735C31.9205 7.47172 31.9062 5.35666 31.8571 5.19176H29.2492Z" fill="#74797F"/>
<g id="Group">
<path id="Vector_2" d="M34.6071 27.9899C34.6748 28.0192 34.7231 28.0415 34.7722 28.0615C35.6526 28.4169 35.9751 29.2119 35.9147 29.9739C35.886 30.3366 35.7731 30.6767 35.5866 30.9908C35.2696 31.5244 34.7978 31.8295 34.1781 31.905C33.9751 31.9298 33.7695 31.9455 33.565 31.9473C32.4292 31.9569 31.2938 31.9612 30.158 31.9663C30.0966 31.9663 30.0353 31.9588 29.9608 31.9539V24.4985C30.0081 24.4925 30.0457 24.4837 30.0829 24.4837C31.2263 24.4879 32.37 24.4885 33.5134 24.5015C33.7402 24.5042 33.9727 24.5299 34.1912 24.5879C34.9428 24.7872 35.4029 25.2889 35.5345 26.0343C35.6684 26.7954 35.4148 27.4345 34.7533 27.8863C34.7093 27.9165 34.666 27.9476 34.6068 27.9896L34.6071 27.9899ZM31.3914 30.6887C31.4808 30.6939 31.5501 30.7017 31.6194 30.7011C32.2495 30.6963 32.8796 30.7011 33.5092 30.6812C33.9815 30.6664 34.3068 30.4121 34.3947 30.014C34.4228 29.8866 34.4243 29.7504 34.4173 29.619C34.3929 29.1572 34.0929 28.8334 33.6288 28.7667C33.45 28.741 33.2687 28.7223 33.0884 28.7193C32.5766 28.7108 32.0646 28.7117 31.5525 28.7111C31.5006 28.7111 31.4491 28.725 31.3911 28.7332V30.6884L31.3914 30.6887ZM31.3963 27.4402C32.0502 27.4402 32.6798 27.4414 33.3093 27.4387C33.3792 27.4387 33.4497 27.4197 33.5186 27.4037C33.9446 27.3052 34.1909 26.9709 34.1683 26.5245C34.146 26.079 33.8897 25.8108 33.4335 25.7558C33.3789 25.7492 33.3239 25.7398 33.269 25.7395C32.6627 25.7353 32.056 25.7326 31.4494 25.7308C31.436 25.7308 31.4228 25.744 31.396 25.7582V27.4402H31.3963Z" fill="#74797F"/>
<path id="Vector_3" d="M27.3579 31.9663C26.8126 31.9663 26.2926 31.9645 25.7726 31.9678C25.664 31.9684 25.6249 31.8968 25.5785 31.824C25.3014 31.3882 25.0262 30.9512 24.7449 30.5178C24.5105 30.1569 24.267 29.8017 24.0311 29.4414C23.7641 29.0337 23.3912 28.8313 22.8971 28.8497C22.7495 28.8552 22.6015 28.8506 22.4309 28.8506V31.9198C22.2423 31.9763 21.2759 31.988 20.9896 31.9412V24.5027C21.0543 24.4952 21.1074 24.4837 21.1608 24.4837C22.281 24.4864 23.4013 24.4861 24.5212 24.4979C24.772 24.5006 25.0262 24.5281 25.2725 24.5758C26.1156 24.7386 26.6585 25.3173 26.7842 26.1611C26.8376 26.5208 26.8306 26.8784 26.7341 27.2291C26.5385 27.941 26.0558 28.3701 25.3521 28.5728C25.2401 28.6051 25.1263 28.6299 24.9829 28.6658C25.0415 28.7165 25.0759 28.7531 25.1165 28.7806C25.4662 29.0171 25.7653 29.3058 25.9871 29.6622C26.4418 30.3928 26.8852 31.1303 27.3322 31.8654C27.3432 31.8835 27.3435 31.908 27.3573 31.9657L27.3579 31.9663ZM22.4391 27.6326C22.5035 27.6368 22.5569 27.6438 22.6103 27.6435C23.0992 27.6419 23.588 27.6435 24.0766 27.635C24.2572 27.632 24.4388 27.6148 24.6179 27.5894C24.9438 27.5432 25.1632 27.359 25.2719 27.0521C25.3497 26.8328 25.3515 26.6057 25.2947 26.3834C25.1989 26.0092 24.8977 25.7764 24.4745 25.7673C23.8282 25.7537 23.1816 25.757 22.5352 25.7543C22.5059 25.7543 22.4766 25.7655 22.4388 25.773V27.6326H22.4391Z" fill="#74797F"/>
<path id="Vector_4" d="M63.2277 28.6715C63.3141 28.7338 63.3574 28.7661 63.4019 28.7966C63.7431 29.0309 64.0318 29.3173 64.2533 29.6646C64.5264 30.0935 64.7922 30.5272 65.058 30.9606C65.2216 31.2273 65.3796 31.4973 65.5392 31.7667C65.5701 31.8186 65.5957 31.8733 65.6344 31.9476C65.5505 31.9557 65.4913 31.9663 65.4321 31.9663C64.9982 31.9678 64.5643 31.9618 64.1306 31.9699C63.9875 31.9726 63.903 31.9249 63.827 31.8047C63.401 31.1297 62.9686 30.4589 62.5338 29.7893C62.4187 29.6123 62.2939 29.4408 62.1633 29.275C61.9583 29.0146 61.6845 28.8721 61.3495 28.8603C61.1389 28.8528 60.9278 28.8588 60.694 28.8588V31.95C60.2049 31.9835 59.7374 31.963 59.2546 31.9642V24.5027C59.319 24.4952 59.3724 24.4837 59.4255 24.4837C60.5454 24.4864 61.6656 24.4864 62.7855 24.4982C63.0364 24.5009 63.2887 24.5347 63.5371 24.5749C64.2951 24.6984 64.751 25.162 64.975 25.8673C65.123 26.3333 65.1218 26.8075 64.9836 27.2747C64.7794 27.963 64.2997 28.3771 63.6146 28.5737C63.5029 28.6057 63.3891 28.6311 63.2274 28.6715H63.2277ZM60.6974 27.657C61.376 27.6423 62.0288 27.6287 62.6815 27.6136C62.7443 27.612 62.8072 27.6018 62.8694 27.5927C63.2558 27.5368 63.5188 27.2738 63.5795 26.883C63.654 26.4049 63.4825 26.0104 63.112 25.8567C62.9778 25.8008 62.8237 25.77 62.6778 25.767C62.0709 25.754 61.4636 25.7552 60.8564 25.7534C60.8048 25.7534 60.7532 25.7679 60.6974 25.7764V27.6574V27.657Z" fill="#74797F"/>
<path id="Vector_5" d="M58.7151 28.2481C58.7203 28.8537 58.6419 29.4463 58.4249 30.0159C57.9476 31.2684 56.8473 32.0455 55.4939 32.0902C55.0179 32.1059 54.547 32.0766 54.0917 31.9295C52.9895 31.5737 52.3069 30.8111 51.9941 29.7286C51.706 28.7323 51.7268 27.7232 51.9932 26.7232C52.1192 26.25 52.3597 25.8295 52.6737 25.4502C53.237 24.7697 53.9773 24.4354 54.8491 24.3678C55.3792 24.3267 55.9071 24.3514 56.4164 24.5194C57.504 24.8779 58.175 25.6344 58.5125 26.6997C58.6577 27.1578 58.7157 27.642 58.7154 28.2481H58.7151ZM57.2345 28.2113C57.2253 27.7567 57.1872 27.3067 57.0285 26.8754C56.7408 26.0941 56.1173 25.6562 55.2818 25.6453C54.4649 25.6347 53.8046 26.0772 53.5046 26.8389C53.4646 26.9404 53.4308 27.0449 53.4042 27.1506C53.2587 27.7265 53.2507 28.3097 53.3279 28.8945C53.3719 29.2288 53.4668 29.5505 53.6352 29.8476C54.0655 30.6078 54.9016 30.9642 55.7539 30.7383C56.4216 30.5613 56.8232 30.1059 57.0453 29.4795C57.1906 29.0696 57.2244 28.6417 57.2348 28.2113H57.2345Z" fill="#74797F"/>
<path id="Vector_6" d="M0.0927658 31.967V24.5034C0.156238 24.4955 0.208724 24.4835 0.261515 24.4835C1.23953 24.4862 2.21724 24.4865 3.19526 24.4977C3.41466 24.5001 3.63651 24.5282 3.85195 24.5704C4.45951 24.6891 4.93677 25.0153 5.306 25.5025C5.62885 25.9283 5.83697 26.407 5.93706 26.9259C6.10153 27.7764 6.12625 28.6326 5.94591 29.4831C5.88182 29.7858 5.7796 30.0863 5.65204 30.369C5.20072 31.3708 4.39512 31.8794 3.30145 31.947C2.90048 31.9718 2.49737 31.9639 2.09518 31.9658C1.51936 31.9685 0.943838 31.9664 0.368014 31.9664H0.0927658V31.967ZM1.54194 25.752V30.6665C1.56879 30.6806 1.58222 30.6939 1.59534 30.6939C2.14675 30.6894 2.7003 30.7112 3.24896 30.6704C3.79793 30.6293 4.18883 30.3345 4.36155 29.7981C4.40916 29.6502 4.4531 29.4997 4.483 29.3472C4.58828 28.8075 4.59347 28.2615 4.55899 27.7157C4.53396 27.3179 4.47629 26.9253 4.29411 26.5605C4.08264 26.1379 3.74636 25.8713 3.27582 25.8136C2.902 25.7677 2.52178 25.7677 2.14431 25.7535C1.94932 25.7462 1.75402 25.7523 1.54194 25.7523V25.752Z" fill="#74797F"/>
<path id="Vector_7" d="M45.3088 24.497C45.3662 24.4916 45.4116 24.4835 45.4571 24.4835C46.4437 24.4868 47.4299 24.4874 48.4165 24.4983C48.6283 24.5007 48.8425 24.5269 49.0503 24.5677C49.7116 24.6973 50.2154 25.0639 50.5919 25.6094C50.9279 26.096 51.115 26.6378 51.1967 27.2183C51.3096 28.021 51.316 28.8217 51.1278 29.6151C51.0262 30.0434 50.8556 30.4448 50.6115 30.8154C50.2025 31.436 49.6121 31.7791 48.8876 31.9005C48.609 31.947 48.3228 31.9609 48.0396 31.9636C47.1953 31.9718 46.3506 31.9673 45.5062 31.9667C45.4449 31.9667 45.3833 31.9591 45.3085 31.9543V24.497H45.3088ZM46.7439 30.6668C46.7708 30.6803 46.7845 30.6933 46.798 30.693C47.3576 30.6879 47.9194 30.7109 48.476 30.6671C49.0152 30.6248 49.3979 30.3282 49.5687 29.8012C49.6048 29.69 49.6432 29.5786 49.667 29.4647C49.8147 28.7622 49.8211 28.0534 49.7228 27.3463C49.6868 27.0872 49.6109 26.8259 49.5068 26.5855C49.3127 26.137 48.9532 25.8522 48.4604 25.8121C47.9044 25.7668 47.3439 25.7773 46.7851 25.7649C46.7732 25.7649 46.761 25.7819 46.7439 25.7948V30.6671V30.6668Z" fill="#74797F"/>
<path id="Vector_8" d="M8.71243 29.5299C9.1607 29.4843 9.61232 29.4381 10.0774 29.3907C10.0978 29.4743 10.1143 29.5408 10.1305 29.6072C10.3685 30.5882 11.0288 30.9047 11.9422 30.8081C12.2632 30.7742 12.5555 30.6679 12.7819 30.4236C12.9196 30.275 13.0108 30.1047 13.0355 29.9053C13.0721 29.6109 12.9855 29.3544 12.7243 29.1965C12.5519 29.092 12.3584 29.0132 12.1646 28.9534C11.7283 28.8187 11.2824 28.7148 10.8479 28.5755C10.5641 28.4849 10.2785 28.381 10.0194 28.2373C9.26048 27.8159 8.88606 27.1545 8.95136 26.2989C9.01758 25.4312 9.49301 24.8262 10.3294 24.5432C11.1695 24.259 12.0252 24.2729 12.8616 24.5583C13.7294 24.8546 14.2806 25.6716 14.268 26.5789C14.0804 26.6453 13.323 26.6951 12.85 26.6707C12.8241 26.5807 12.7984 26.4849 12.7688 26.3901C12.6193 25.9129 12.3129 25.6547 11.8073 25.6278C11.5348 25.6133 11.2565 25.6372 10.9861 25.6779C10.8448 25.6994 10.7023 25.777 10.5818 25.8594C10.2428 26.0914 10.2263 26.5447 10.5504 26.7981C10.6776 26.8978 10.8311 26.9766 10.9852 27.0277C11.3511 27.1488 11.7261 27.2415 12.0938 27.3575C12.4689 27.4756 12.8509 27.5816 13.2095 27.7386C14.0221 28.095 14.4347 28.7347 14.4771 29.6112C14.4923 29.9259 14.4664 30.2354 14.3599 30.5344C14.106 31.2466 13.6172 31.7256 12.8842 31.9352C12.103 32.1584 11.3111 32.1666 10.5238 31.9615C9.771 31.7652 9.2556 31.2919 8.94953 30.5897C8.79879 30.2436 8.69839 29.7996 8.71243 29.5293V29.5299Z" fill="#74797F"/>
<path id="Vector_9" d="M36.539 24.4937H37.9577C37.9601 24.5876 37.9644 24.6779 37.9647 24.7679C37.9659 26.134 37.9644 27.5 37.9687 28.8661C37.9696 29.1309 37.9842 29.3967 38.0077 29.6607C38.0587 30.2306 38.4169 30.6392 38.9763 30.7573C39.2875 30.8232 39.604 30.8223 39.9146 30.7422C40.3602 30.6275 40.6571 30.3061 40.7086 29.8567C40.7434 29.555 40.7605 29.2499 40.762 28.9464C40.7681 27.5646 40.7657 26.1832 40.7663 24.8014C40.7663 24.709 40.7663 24.6163 40.7663 24.5302C40.9515 24.4732 41.9329 24.4626 42.2158 24.5148C42.2158 24.5849 42.2158 24.6604 42.2158 24.7362C42.2158 25.9929 42.2234 27.2496 42.2121 28.5064C42.2075 29.0285 42.1834 29.5523 42.1319 30.0717C42.0266 31.133 41.3235 31.8627 40.2524 32.0337C39.633 32.1327 39.0098 32.1258 38.3931 32.0017C37.4496 31.812 36.7694 31.1207 36.6358 30.1796C36.5701 29.7175 36.5396 29.2475 36.5351 28.7806C36.5213 27.4145 36.5283 26.0485 36.5277 24.6825C36.5277 24.6287 36.5338 24.5749 36.539 24.4934V24.4937Z" fill="#74797F"/>
<path id="Vector_10" d="M18.344 31.9548H16.8969V25.757H14.8262C14.7709 25.5622 14.7639 24.738 14.8118 24.4955H20.4282V25.7504H18.344V31.9548Z" fill="#74797F"/>
<path id="Vector_11" d="M27.743 24.4967H29.15V31.9527H27.743V24.4967Z" fill="#74797F"/>
<path id="Vector_12" d="M42.9991 24.4964H44.4101V31.953H42.9991V24.4964Z" fill="#74797F"/>
<path id="Vector_13" d="M6.65447 24.497H8.06489V31.953H6.65447V24.497Z" fill="#74797F"/>
</g>
<g id="Group_2">
<path id="Vector_14" d="M50.9193 16.7671H50.7143C49.8385 16.7671 48.9627 16.7637 48.0869 16.7704C47.9383 16.7716 47.8419 16.7278 47.7464 16.6139C47.0766 15.8148 46.3991 15.0217 45.7241 14.2267C45.6704 14.1636 45.6152 14.102 45.5157 14.0564V16.7507H42.8136V5.19568H45.4467C45.4574 5.48411 45.4507 5.77768 45.4516 6.07094C45.4528 6.36752 45.4516 6.66411 45.4516 6.961V9.65443C45.4516 9.95041 45.4516 10.2464 45.4516 10.5536C45.5587 10.5593 45.5929 10.4774 45.6417 10.4267C46.191 9.85528 46.7384 9.28234 47.2844 8.7082C47.3622 8.62635 47.4363 8.56806 47.5642 8.56866C48.5111 8.5744 49.458 8.57168 50.4049 8.57229C50.4415 8.57229 50.4778 8.57893 50.5648 8.58769C49.3744 9.77524 48.216 10.9302 47.0369 12.1065C48.3426 13.6469 49.6426 15.1805 50.9425 16.7139C50.9346 16.7317 50.927 16.7495 50.919 16.7674L50.9193 16.7671Z" fill="white"/>
<path id="Vector_15" d="M6.65111 16.768C6.65111 16.6647 6.65111 16.5955 6.65111 16.5263C6.65111 13.575 6.66363 10.6233 6.64532 7.67196C6.63738 6.42944 7.88881 5.22136 8.9541 5.13105C9.03253 5.12441 9.11156 5.11806 9.19029 5.11806C10.6028 5.11716 12.0154 5.11746 13.4283 5.11806C13.4981 5.11806 13.568 5.12441 13.6339 5.12773C13.6809 5.30924 13.6962 7.37991 13.6532 7.77374C13.5744 7.77707 13.4911 7.78341 13.4078 7.78311C12.3505 7.78099 11.2928 7.77707 10.2354 7.77556C10.1335 7.77556 10.0292 7.77707 9.92998 7.7976C9.57418 7.871 9.31937 8.12711 9.2855 8.51491C9.25315 8.88488 9.27848 9.25969 9.27848 9.66078H13.4618V12.3189H9.26841C9.25254 12.6327 9.26383 12.9262 9.262 13.2192C9.26048 13.5082 9.26261 13.797 9.26322 14.086C9.26383 14.3826 9.26444 14.6795 9.26505 14.9761C9.26567 15.2651 9.26597 15.5538 9.26628 15.8429C9.26628 16.1388 9.26628 16.4348 9.26628 16.7622C8.39751 16.774 7.54247 16.7643 6.65111 16.7683V16.768Z" fill="white"/>
<path id="Vector_16" d="M56.4344 11.0885C56.3868 10.8052 56.2281 10.6671 56.0154 10.5774C55.749 10.4651 55.4668 10.4424 55.1808 10.443C54.1705 10.4458 53.1604 10.4467 52.15 10.4479C52.064 10.4479 51.9779 10.4479 51.8592 10.4479C51.8501 9.82057 51.8559 9.20928 51.855 8.58288C51.9596 8.57835 52.0362 8.57171 52.1128 8.57171C53.565 8.5711 55.0173 8.57231 56.4695 8.5708C56.8369 8.5705 57.1951 8.62154 57.5326 8.7653C58.4197 9.14253 58.8903 9.82268 58.9904 10.7635C59.001 10.8641 58.9992 10.9661 58.9995 11.0676C59.0001 12.8791 58.9998 14.691 58.9998 16.5025C58.9998 16.5795 58.9998 16.6565 58.9998 16.7474C58.9226 16.755 58.8622 16.7659 58.8018 16.7659C56.9156 16.7668 55.0292 16.7668 53.1427 16.7659C52.7103 16.7659 52.32 16.6339 51.9746 16.3778C51.3414 15.9087 51.0002 15.2642 50.8504 14.5116C50.761 14.0628 50.7457 13.6094 50.8718 13.1649C51.1882 12.0489 51.9496 11.3974 53.0756 11.1501C53.3041 11.0999 53.5452 11.0927 53.7808 11.0906C54.5699 11.0836 55.3593 11.0879 56.1485 11.0879C56.2342 11.0879 56.32 11.0879 56.4341 11.0879L56.4344 11.0885ZM56.4201 15.0368V12.8958H56.1707C55.5787 12.8958 54.9864 12.9063 54.3948 12.8921C53.9578 12.8816 53.6783 13.0857 53.501 13.4581C53.3948 13.6807 53.3453 13.9166 53.363 14.1633C53.3945 14.6061 53.6468 14.926 54.0435 15.0193C54.1424 15.0425 54.2468 15.0492 54.349 15.0495C54.9883 15.0522 55.6276 15.051 56.2669 15.0504C56.3129 15.0504 56.3593 15.0425 56.4201 15.0368Z" fill="white"/>
<path id="Vector_17" d="M41.5197 12.6632C41.5063 13.0764 41.5115 13.491 41.4761 13.9024C41.3934 14.8604 40.9357 15.6173 40.1584 16.1857C39.5143 16.6568 38.7782 16.9024 37.9906 16.9894C37.0822 17.0899 36.1942 16.9918 35.3501 16.6248C34.388 16.2065 33.6834 15.5418 33.3529 14.5312C33.2428 14.1948 33.1891 13.8483 33.1869 13.4953C33.1836 12.9332 33.1768 12.3711 33.1878 11.8094C33.2119 10.5584 33.7542 9.58922 34.8354 8.93141C35.6159 8.45663 36.4777 8.26606 37.387 8.26908C38.2631 8.2721 39.0938 8.45905 39.8515 8.90574C40.7089 9.41163 41.2643 10.138 41.4428 11.1217C41.4831 11.3434 41.4965 11.5711 41.5048 11.7967C41.5152 12.0851 41.5072 12.3742 41.5072 12.6629C41.5115 12.6629 41.5158 12.6629 41.52 12.6632H41.5197ZM38.9262 12.6427C38.9262 12.6427 38.9259 12.6427 38.9256 12.6427C38.9256 12.3225 38.9177 12.0024 38.9278 11.6825C38.9397 11.2926 38.77 11.0075 38.4459 10.8027C37.8432 10.4216 36.8277 10.4467 36.2406 10.8559C35.9446 11.0622 35.77 11.3388 35.767 11.7019C35.7615 12.3264 35.7621 12.9507 35.7658 13.5753C35.7682 13.9676 35.9605 14.2576 36.286 14.4675C36.5149 14.6149 36.7694 14.6988 37.0373 14.7339C37.5338 14.7991 38.0157 14.7556 38.4517 14.485C38.7694 14.2881 38.936 14.0057 38.9275 13.6257C38.9201 13.298 38.9259 12.9701 38.9259 12.6424L38.9262 12.6427Z" fill="white"/>
<path id="Vector_18" d="M20.1444 8.57745H22.7418C22.7479 8.64812 22.7589 8.71487 22.7589 8.78132C22.7595 10.2881 22.7672 11.7952 22.7571 13.302C22.7446 15.1839 21.5041 16.6233 19.6241 16.9495C18.6909 17.1114 17.7804 17.0301 16.9195 16.6245C15.6544 16.0286 14.9577 15.0235 14.8011 13.6508C14.7746 13.4189 14.7676 13.1836 14.767 12.9498C14.7639 11.5913 14.7654 10.2325 14.7654 8.87404V8.585H17.4105C17.4145 8.67591 17.4221 8.76621 17.4221 8.85652C17.4227 10.2543 17.4227 11.6517 17.4227 13.0495C17.4227 13.1277 17.4212 13.2056 17.4242 13.2836C17.4535 13.9891 17.918 14.4832 18.6287 14.5608C18.8661 14.5868 19.1004 14.569 19.329 14.4901C19.8389 14.3144 20.1251 13.9278 20.1282 13.3947C20.1313 12.8559 20.1282 12.3174 20.13 11.7786C20.1337 10.8027 20.1395 9.82661 20.1444 8.85078C20.1447 8.76682 20.1444 8.68286 20.1444 8.57715V8.57745Z" fill="white"/>
<path id="Vector_19" d="M23.187 16.8504C23.3958 16.0455 23.5975 15.2684 23.8038 14.4729C23.888 14.4729 23.9658 14.482 24.0412 14.4711C24.2117 14.4466 24.3881 14.4334 24.5496 14.379C25.0485 14.2111 25.3225 13.8163 25.3231 13.2938C25.3246 12.373 25.3246 11.4521 25.3262 10.5312C25.3271 9.96162 25.3295 9.3917 25.331 8.82209C25.331 8.75262 25.331 8.68316 25.331 8.61913C25.5056 8.56265 27.6221 8.54725 27.9474 8.59769C27.952 8.66141 27.9612 8.72907 27.9615 8.79672C27.9624 10.2328 27.9636 11.6686 27.9609 13.1048C27.9602 13.504 27.9175 13.8997 27.8019 14.2839C27.4098 15.5856 26.5092 16.3732 25.2215 16.7592C24.6399 16.9335 24.0424 16.9564 23.4403 16.9006C23.3634 16.8933 23.2877 16.871 23.187 16.8507V16.8504Z" fill="white"/>
<path id="Vector_20" d="M31.8815 16.7525H29.2761C29.2224 16.5777 29.2126 8.83654 29.2669 8.58435H31.8574C31.9086 8.75922 31.9321 16.1817 31.8815 16.7525Z" fill="white"/>
<path id="Vector_21" d="M27.9523 7.79941H25.3463C25.2957 7.62968 25.2807 5.53213 25.3283 5.19598H27.952V7.79941H27.9523Z" fill="white"/>
<path id="Vector_22" d="M29.2492 5.19177H31.8571C31.9062 5.35668 31.9205 7.47174 31.8735 7.7955H29.2492V5.19177Z" fill="white"/>
</g>
<path id="Vector_23" d="M56.42 15.0368C56.3593 15.0425 56.3132 15.0504 56.2669 15.0504C55.6276 15.0513 54.9883 15.0522 54.349 15.0495C54.2471 15.0492 54.1424 15.0425 54.0435 15.0193C53.6468 14.9259 53.3945 14.6061 53.363 14.1633C53.3453 13.9166 53.3951 13.681 53.501 13.4581C53.6786 13.0854 53.9578 12.8815 54.3947 12.8921C54.9864 12.9063 55.5787 12.8957 56.1707 12.8957H56.42V15.0368Z" fill="#74797F"/>
<path id="Vector_24" d="M38.9262 12.6426C38.9262 12.9703 38.9204 13.2983 38.9278 13.626C38.936 14.006 38.7697 14.288 38.452 14.4853C38.016 14.7556 37.5341 14.7994 37.0376 14.7341C36.7697 14.6988 36.5152 14.6151 36.2864 14.4677C35.9605 14.2578 35.7682 13.9679 35.7661 13.5756C35.7624 12.951 35.7618 12.3267 35.7673 11.7021C35.7703 11.3391 35.9452 11.0628 36.2409 10.8562C36.8277 10.4469 37.8432 10.4216 38.4462 10.803C38.7703 11.0081 38.94 11.2932 38.9281 11.6828C38.9183 12.0026 38.9259 12.3228 38.9259 12.6429C38.9259 12.6429 38.9262 12.6429 38.9265 12.6429L38.9262 12.6426Z" fill="#74797F"/>
</g>
<defs>
<clipPath id="clip0_31_22">
<rect width="65.6467" height="32.1098" fill="white"/>
</clipPath>
</defs>
</svg>
