<svg width="280" height="139" viewBox="0 0 280 139" fill="none" xmlns="http://www.w3.org/2000/svg">
<path opacity="0.15" d="M47.8867 97.8998C55.5246 105.885 65.5979 111.59 76.6233 112.753C82.989 113.515 89.5079 112.812 95.6649 111.06C109.513 107.186 122.058 99.2396 130.826 87.6969L131.135 91.0717C126.965 87.4839 122.428 84.3558 117.624 81.7406C101.683 73.0513 87.2951 72.6001 69.6006 72.8159C46.8151 73.3148 23.8265 70.5371 1.85379 64.4041L4.80148 62.0805C4.68736 72.3618 6.75269 82.7945 11.042 92.1649C15.4204 101.591 21.5106 110.325 29.5409 116.954C48.6049 132.78 79.3872 141.551 102.579 130.434C103.222 130.151 104.216 129.554 104.859 129.22C105.493 128.904 106.476 128.301 107.091 127.906C107.509 127.639 108.352 127.121 108.742 126.874C109.76 126.154 111.489 124.993 112.46 124.234C119.105 119.247 125.142 113.47 130.904 107.489C136.398 101.802 141.631 95.8256 146.819 89.8412C151.003 84.9584 156.022 80.824 161.577 77.6314C170.98 72.0619 181.822 68.9674 192.563 67.835C199.697 67.0754 206.734 66.6577 213.882 66.4335C220.96 66.2765 227.857 66.6045 234.874 66.0915C250.181 65.1497 265.328 61.7974 279.994 57.2173C279.994 66.5148 279.123 75.9272 276.226 84.8267C270.998 101.614 259.792 116.352 245.234 126.039C225.678 139.193 201.039 142.366 178.64 135.421C165.057 131.25 152.985 122.507 144.476 111.119C160.996 91.3016 186.214 82.1274 211.324 88.4117C219.031 90.2841 226.413 93.4767 233.032 97.8409L232.695 98.3987C204.398 82.3657 170.34 87.3073 149.422 112.77L149.455 109.672C154.062 115.169 159.568 119.872 165.689 123.499C171.79 127.146 178.518 129.68 185.473 131.096C199.369 134.016 214.138 133.01 227.37 127.754C254.15 117.448 272.833 90.5812 273.197 61.6908L277.487 65.0068C260.276 69.9372 242.379 72.7767 224.459 72.4515C217.389 72.2525 210.55 72.2805 203.527 72.6701C196.616 72.9897 189.713 73.4157 182.968 74.806C171.464 77.2138 160.021 82.3432 151.613 90.7494C143.073 99.7245 134.723 108.887 125.403 117.092C120.755 121.207 115.831 125.198 110.612 128.573C109.563 129.271 108.232 130.011 107.161 130.669C106.011 131.278 104.733 131.976 103.553 132.525C102.409 133.038 100.987 133.66 99.8012 134.072C76.1306 142.568 47.2911 133.969 27.9794 118.889C21.6136 113.888 16.2304 107.629 11.9077 100.773C8.49235 95.4332 5.66157 89.6842 3.72706 83.6298C1.15235 75.7534 0.0167008 67.3865 0 59.0701C11.8826 61.9796 23.9489 64.1827 36.0765 65.4917C44.4102 66.3971 52.7662 66.8708 61.15 66.9464C76.1723 67.0978 91.5621 66.1616 106.086 70.9491C117.304 74.5089 127.519 80.9137 136.1 88.9499L134.65 90.7466C125.064 102.774 111.369 110.962 96.5389 114.471C87.9102 116.565 78.6663 116.635 70.1628 113.93C61.2084 111.248 53.3451 105.487 47.408 98.3343L47.8895 97.897L47.8867 97.8998Z" fill="#BE8110"/>
<path d="M138.686 77.04L83.042 23.2227L99.7929 0H179.255L195.97 23.1639L138.683 77.0428L138.686 77.04ZM89.032 22.6874L138.731 70.7557L189.952 22.5836L176.951 4.56606H102.106L89.032 22.6874Z" fill="#BE8110"/>
</svg>
